<mxfile host="app.diagrams.net" modified="2021-04-07T14:46:21.012Z" agent="5.0 (Windows NT 10.0; Win64; x64) AppleWebKit/537.36 (KHTML, like Gecko) Chrome/89.0.4389.82 Safari/537.36" etag="rYbG8F6JOv6tkd9OBAWk" version="14.5.8" type="github" pages="5">
  <diagram id="vLaXbmM3Hhi-dTC1wAEd" name="Building Scale">
    <mxGraphModel dx="2031" dy="1107" grid="1" gridSize="10" guides="1" tooltips="1" connect="1" arrows="1" fold="1" page="1" pageScale="1" pageWidth="1600" pageHeight="900" math="0" shadow="0">
      <root>
        <mxCell id="GMtj8rT2Yxm4aSxBWJuz-0" />
        <mxCell id="GMtj8rT2Yxm4aSxBWJuz-1" parent="GMtj8rT2Yxm4aSxBWJuz-0" />
        <mxCell id="CNm5xOx-yD-aQ8OPoJ83-53" style="rounded=0;orthogonalLoop=1;jettySize=auto;html=1;elbow=vertical;endArrow=none;endFill=0;" parent="GMtj8rT2Yxm4aSxBWJuz-1" source="CNm5xOx-yD-aQ8OPoJ83-51" target="CNm5xOx-yD-aQ8OPoJ83-34" edge="1">
          <mxGeometry relative="1" as="geometry" />
        </mxCell>
        <mxCell id="CNm5xOx-yD-aQ8OPoJ83-54" style="rounded=0;orthogonalLoop=1;jettySize=auto;html=1;elbow=vertical;endArrow=none;endFill=0;" parent="GMtj8rT2Yxm4aSxBWJuz-1" source="CNm5xOx-yD-aQ8OPoJ83-52" target="CNm5xOx-yD-aQ8OPoJ83-34" edge="1">
          <mxGeometry relative="1" as="geometry" />
        </mxCell>
        <mxCell id="CNm5xOx-yD-aQ8OPoJ83-42" style="rounded=0;orthogonalLoop=1;jettySize=auto;html=1;elbow=vertical;endArrow=none;endFill=0;" parent="GMtj8rT2Yxm4aSxBWJuz-1" source="CNm5xOx-yD-aQ8OPoJ83-39" target="CNm5xOx-yD-aQ8OPoJ83-15" edge="1">
          <mxGeometry relative="1" as="geometry" />
        </mxCell>
        <mxCell id="CNm5xOx-yD-aQ8OPoJ83-40" style="rounded=0;orthogonalLoop=1;jettySize=auto;html=1;elbow=vertical;endArrow=none;endFill=0;" parent="GMtj8rT2Yxm4aSxBWJuz-1" source="CNm5xOx-yD-aQ8OPoJ83-38" target="CNm5xOx-yD-aQ8OPoJ83-15" edge="1">
          <mxGeometry relative="1" as="geometry" />
        </mxCell>
        <mxCell id="vXIxPkP1VoYkMAod36Bd-4" value="" style="ellipse;whiteSpace=wrap;html=1;fillColor=#f5f5f5;opacity=70;rotation=0;fontColor=#333333;strokeColor=none;" parent="GMtj8rT2Yxm4aSxBWJuz-1" vertex="1">
          <mxGeometry x="41.71" y="647.55" width="634.29" height="245.1" as="geometry" />
        </mxCell>
        <mxCell id="vXIxPkP1VoYkMAod36Bd-2" value="" style="ellipse;whiteSpace=wrap;html=1;fillColor=#f5f5f5;opacity=70;rotation=-15;fontColor=#333333;strokeColor=none;" parent="GMtj8rT2Yxm4aSxBWJuz-1" vertex="1">
          <mxGeometry x="31.71" y="132" width="640" height="210" as="geometry" />
        </mxCell>
        <mxCell id="GMtj8rT2Yxm4aSxBWJuz-3" value="Next Generation Wireless&lt;br&gt;Production Plant" style="points=[];aspect=fixed;html=1;align=center;shadow=0;dashed=0;image;image=img/lib/allied_telesis/buildings/Long_Building.svg;labelBackgroundColor=#ffffff;" parent="GMtj8rT2Yxm4aSxBWJuz-1" vertex="1">
          <mxGeometry x="373" y="678.4" width="125.39999999999999" height="129.60000000000002" as="geometry" />
        </mxCell>
        <mxCell id="GMtj8rT2Yxm4aSxBWJuz-6" value="Home" style="shape=mxgraph.cisco.buildings.telecommuter_house;html=1;pointerEvents=1;dashed=0;fillColor=#036897;strokeColor=#ffffff;strokeWidth=2;verticalLabelPosition=bottom;verticalAlign=top;align=center;outlineConnect=0;labelBackgroundColor=#ffffff;" parent="GMtj8rT2Yxm4aSxBWJuz-1" vertex="1">
          <mxGeometry x="986" y="93" width="104" height="88" as="geometry" />
        </mxCell>
        <mxCell id="GMtj8rT2Yxm4aSxBWJuz-9" value="Next Generation Wireless&lt;br&gt;Foundry" style="points=[];aspect=fixed;html=1;align=center;shadow=0;dashed=0;image;image=img/lib/allied_telesis/buildings/Long_Building.svg;labelBackgroundColor=#ffffff;" parent="GMtj8rT2Yxm4aSxBWJuz-1" vertex="1">
          <mxGeometry x="121" y="683" width="121" height="125" as="geometry" />
        </mxCell>
        <mxCell id="GMtj8rT2Yxm4aSxBWJuz-10" value="Utilities Building" style="points=[];aspect=fixed;html=1;align=center;shadow=0;dashed=0;image;image=img/lib/allied_telesis/buildings/Medium_Business_Building.svg;labelBackgroundColor=#ffffff;" parent="GMtj8rT2Yxm4aSxBWJuz-1" vertex="1">
          <mxGeometry x="286.40000000000003" y="735" width="54.6" height="70.19999999999999" as="geometry" />
        </mxCell>
        <mxCell id="CNm5xOx-yD-aQ8OPoJ83-61" style="edgeStyle=none;rounded=0;orthogonalLoop=1;jettySize=auto;html=1;endArrow=none;endFill=0;strokeWidth=3;strokeColor=#FF8000;" parent="GMtj8rT2Yxm4aSxBWJuz-1" source="CNm5xOx-yD-aQ8OPoJ83-2" target="CNm5xOx-yD-aQ8OPoJ83-59" edge="1">
          <mxGeometry relative="1" as="geometry" />
        </mxCell>
        <mxCell id="CNm5xOx-yD-aQ8OPoJ83-67" style="edgeStyle=none;rounded=0;orthogonalLoop=1;jettySize=auto;html=1;endArrow=none;endFill=0;strokeWidth=3;strokeColor=#FF8000;" parent="GMtj8rT2Yxm4aSxBWJuz-1" source="CNm5xOx-yD-aQ8OPoJ83-2" target="CNm5xOx-yD-aQ8OPoJ83-64" edge="1">
          <mxGeometry relative="1" as="geometry" />
        </mxCell>
        <mxCell id="CNm5xOx-yD-aQ8OPoJ83-82" style="edgeStyle=none;rounded=0;orthogonalLoop=1;jettySize=auto;html=1;endArrow=none;endFill=0;strokeWidth=3;strokeColor=#FF8000;" parent="GMtj8rT2Yxm4aSxBWJuz-1" source="CNm5xOx-yD-aQ8OPoJ83-2" target="CNm5xOx-yD-aQ8OPoJ83-3" edge="1">
          <mxGeometry relative="1" as="geometry" />
        </mxCell>
        <mxCell id="CNm5xOx-yD-aQ8OPoJ83-2" value="Backbone A&lt;br&gt;10Gbps/10Gbps" style="shape=mxgraph.cisco.switches.atm_fast_gigabit_etherswitch;html=1;pointerEvents=1;dashed=0;fillColor=#036897;strokeColor=#ffffff;strokeWidth=2;verticalLabelPosition=bottom;verticalAlign=top;align=center;outlineConnect=0;labelBackgroundColor=#ffffff;" parent="GMtj8rT2Yxm4aSxBWJuz-1" vertex="1">
          <mxGeometry x="815" y="383.6" width="64" height="64" as="geometry" />
        </mxCell>
        <mxCell id="CNm5xOx-yD-aQ8OPoJ83-62" style="edgeStyle=none;rounded=0;orthogonalLoop=1;jettySize=auto;html=1;endArrow=none;endFill=0;strokeWidth=3;strokeColor=#FF8000;" parent="GMtj8rT2Yxm4aSxBWJuz-1" source="CNm5xOx-yD-aQ8OPoJ83-3" target="CNm5xOx-yD-aQ8OPoJ83-59" edge="1">
          <mxGeometry relative="1" as="geometry" />
        </mxCell>
        <mxCell id="CNm5xOx-yD-aQ8OPoJ83-66" style="edgeStyle=none;rounded=0;orthogonalLoop=1;jettySize=auto;html=1;endArrow=none;endFill=0;strokeWidth=3;strokeColor=#FF8000;" parent="GMtj8rT2Yxm4aSxBWJuz-1" source="CNm5xOx-yD-aQ8OPoJ83-3" target="CNm5xOx-yD-aQ8OPoJ83-64" edge="1">
          <mxGeometry relative="1" as="geometry" />
        </mxCell>
        <mxCell id="CNm5xOx-yD-aQ8OPoJ83-3" value="Backbone B&lt;br&gt;10Gbps/10Gbps" style="shape=mxgraph.cisco.switches.atm_fast_gigabit_etherswitch;html=1;pointerEvents=1;dashed=0;fillColor=#036897;strokeColor=#ffffff;strokeWidth=2;verticalLabelPosition=bottom;verticalAlign=top;align=center;outlineConnect=0;labelBackgroundColor=#ffffff;" parent="GMtj8rT2Yxm4aSxBWJuz-1" vertex="1">
          <mxGeometry x="815" y="641" width="64" height="64" as="geometry" />
        </mxCell>
        <mxCell id="CNm5xOx-yD-aQ8OPoJ83-26" value="" style="group;labelBackgroundColor=#ffffff;" parent="GMtj8rT2Yxm4aSxBWJuz-1" vertex="1" connectable="0">
          <mxGeometry x="1355" y="345" width="117.20000000000005" height="110" as="geometry" />
        </mxCell>
        <mxCell id="CNm5xOx-yD-aQ8OPoJ83-8" value="" style="group" parent="CNm5xOx-yD-aQ8OPoJ83-26" vertex="1" connectable="0">
          <mxGeometry x="23" width="94.20000000000005" height="87.89999999999998" as="geometry" />
        </mxCell>
        <mxCell id="CNm5xOx-yD-aQ8OPoJ83-4" value="" style="points=[];aspect=fixed;html=1;align=center;shadow=0;dashed=0;image;image=img/lib/allied_telesis/switch/Industrial_Ethernet_IE200_POE.svg;" parent="CNm5xOx-yD-aQ8OPoJ83-8" vertex="1">
          <mxGeometry width="40.2" height="56.4" as="geometry" />
        </mxCell>
        <mxCell id="CNm5xOx-yD-aQ8OPoJ83-6" value="" style="points=[];aspect=fixed;html=1;align=center;shadow=0;dashed=0;image;image=img/lib/allied_telesis/switch/Industrial_Ethernet_IE200_POE.svg;" parent="CNm5xOx-yD-aQ8OPoJ83-8" vertex="1">
          <mxGeometry x="18" y="10.600000000000023" width="40.2" height="56.4" as="geometry" />
        </mxCell>
        <mxCell id="CNm5xOx-yD-aQ8OPoJ83-7" value="" style="points=[];aspect=fixed;html=1;align=center;shadow=0;dashed=0;image;image=img/lib/allied_telesis/switch/Industrial_Ethernet_IE200_POE.svg;" parent="CNm5xOx-yD-aQ8OPoJ83-8" vertex="1">
          <mxGeometry x="36" y="21" width="40.2" height="56.4" as="geometry" />
        </mxCell>
        <mxCell id="CNm5xOx-yD-aQ8OPoJ83-13" value="" style="group" parent="CNm5xOx-yD-aQ8OPoJ83-8" vertex="1" connectable="0">
          <mxGeometry x="-40.2" y="10.5" width="76.20000000000005" height="77.39999999999998" as="geometry" />
        </mxCell>
        <mxCell id="CNm5xOx-yD-aQ8OPoJ83-14" value="" style="points=[];aspect=fixed;html=1;align=center;shadow=0;dashed=0;image;image=img/lib/allied_telesis/switch/Industrial_Ethernet_IE200_POE.svg;" parent="CNm5xOx-yD-aQ8OPoJ83-13" vertex="1">
          <mxGeometry width="40.2" height="56.4" as="geometry" />
        </mxCell>
        <mxCell id="CNm5xOx-yD-aQ8OPoJ83-15" value="" style="points=[];aspect=fixed;html=1;align=center;shadow=0;dashed=0;image;image=img/lib/allied_telesis/switch/Industrial_Ethernet_IE200_POE.svg;" parent="CNm5xOx-yD-aQ8OPoJ83-13" vertex="1">
          <mxGeometry x="18" y="10.600000000000023" width="40.2" height="56.4" as="geometry" />
        </mxCell>
        <mxCell id="CNm5xOx-yD-aQ8OPoJ83-16" value="" style="points=[];aspect=fixed;html=1;align=center;shadow=0;dashed=0;image;image=img/lib/allied_telesis/switch/Industrial_Ethernet_IE200_POE.svg;" parent="CNm5xOx-yD-aQ8OPoJ83-13" vertex="1">
          <mxGeometry x="36" y="21" width="40.2" height="56.4" as="geometry" />
        </mxCell>
        <mxCell id="CNm5xOx-yD-aQ8OPoJ83-25" value="Server Farm" style="text;html=1;align=center;verticalAlign=middle;resizable=0;points=[];autosize=1;" parent="CNm5xOx-yD-aQ8OPoJ83-26" vertex="1">
          <mxGeometry y="90" width="80" height="20" as="geometry" />
        </mxCell>
        <mxCell id="CNm5xOx-yD-aQ8OPoJ83-27" value="" style="group;labelBackgroundColor=#ffffff;" parent="GMtj8rT2Yxm4aSxBWJuz-1" vertex="1" connectable="0">
          <mxGeometry x="1355" y="620" width="117.20000000000005" height="110" as="geometry" />
        </mxCell>
        <mxCell id="CNm5xOx-yD-aQ8OPoJ83-28" value="" style="group" parent="CNm5xOx-yD-aQ8OPoJ83-27" vertex="1" connectable="0">
          <mxGeometry x="23" width="94.20000000000005" height="87.89999999999998" as="geometry" />
        </mxCell>
        <mxCell id="CNm5xOx-yD-aQ8OPoJ83-29" value="" style="points=[];aspect=fixed;html=1;align=center;shadow=0;dashed=0;image;image=img/lib/allied_telesis/switch/Industrial_Ethernet_IE200_POE.svg;" parent="CNm5xOx-yD-aQ8OPoJ83-28" vertex="1">
          <mxGeometry width="40.2" height="56.4" as="geometry" />
        </mxCell>
        <mxCell id="CNm5xOx-yD-aQ8OPoJ83-30" value="" style="points=[];aspect=fixed;html=1;align=center;shadow=0;dashed=0;image;image=img/lib/allied_telesis/switch/Industrial_Ethernet_IE200_POE.svg;" parent="CNm5xOx-yD-aQ8OPoJ83-28" vertex="1">
          <mxGeometry x="18" y="10.600000000000023" width="40.2" height="56.4" as="geometry" />
        </mxCell>
        <mxCell id="CNm5xOx-yD-aQ8OPoJ83-31" value="" style="points=[];aspect=fixed;html=1;align=center;shadow=0;dashed=0;image;image=img/lib/allied_telesis/switch/Industrial_Ethernet_IE200_POE.svg;" parent="CNm5xOx-yD-aQ8OPoJ83-28" vertex="1">
          <mxGeometry x="36" y="21" width="40.2" height="56.4" as="geometry" />
        </mxCell>
        <mxCell id="CNm5xOx-yD-aQ8OPoJ83-32" value="" style="group" parent="CNm5xOx-yD-aQ8OPoJ83-28" vertex="1" connectable="0">
          <mxGeometry x="-40.2" y="10.5" width="76.20000000000005" height="77.39999999999998" as="geometry" />
        </mxCell>
        <mxCell id="CNm5xOx-yD-aQ8OPoJ83-33" value="" style="points=[];aspect=fixed;html=1;align=center;shadow=0;dashed=0;image;image=img/lib/allied_telesis/switch/Industrial_Ethernet_IE200_POE.svg;" parent="CNm5xOx-yD-aQ8OPoJ83-32" vertex="1">
          <mxGeometry width="40.2" height="56.4" as="geometry" />
        </mxCell>
        <mxCell id="CNm5xOx-yD-aQ8OPoJ83-34" value="" style="points=[];aspect=fixed;html=1;align=center;shadow=0;dashed=0;image;image=img/lib/allied_telesis/switch/Industrial_Ethernet_IE200_POE.svg;" parent="CNm5xOx-yD-aQ8OPoJ83-32" vertex="1">
          <mxGeometry x="18" y="10.600000000000023" width="40.2" height="56.4" as="geometry" />
        </mxCell>
        <mxCell id="CNm5xOx-yD-aQ8OPoJ83-35" value="" style="points=[];aspect=fixed;html=1;align=center;shadow=0;dashed=0;image;image=img/lib/allied_telesis/switch/Industrial_Ethernet_IE200_POE.svg;" parent="CNm5xOx-yD-aQ8OPoJ83-32" vertex="1">
          <mxGeometry x="36" y="21" width="40.2" height="56.4" as="geometry" />
        </mxCell>
        <mxCell id="CNm5xOx-yD-aQ8OPoJ83-36" value="Server Farm" style="text;html=1;align=center;verticalAlign=middle;resizable=0;points=[];autosize=1;" parent="CNm5xOx-yD-aQ8OPoJ83-27" vertex="1">
          <mxGeometry y="90" width="80" height="20" as="geometry" />
        </mxCell>
        <mxCell id="CNm5xOx-yD-aQ8OPoJ83-46" style="rounded=0;orthogonalLoop=1;jettySize=auto;html=1;elbow=vertical;endArrow=none;endFill=0;strokeWidth=3;strokeColor=#FF8000;" parent="GMtj8rT2Yxm4aSxBWJuz-1" source="CNm5xOx-yD-aQ8OPoJ83-38" target="CNm5xOx-yD-aQ8OPoJ83-2" edge="1">
          <mxGeometry relative="1" as="geometry" />
        </mxCell>
        <mxCell id="CNm5xOx-yD-aQ8OPoJ83-48" style="rounded=0;orthogonalLoop=1;jettySize=auto;html=1;elbow=vertical;endArrow=none;endFill=0;strokeWidth=3;strokeColor=#FF8000;" parent="GMtj8rT2Yxm4aSxBWJuz-1" source="CNm5xOx-yD-aQ8OPoJ83-38" target="CNm5xOx-yD-aQ8OPoJ83-3" edge="1">
          <mxGeometry relative="1" as="geometry" />
        </mxCell>
        <mxCell id="CNm5xOx-yD-aQ8OPoJ83-47" style="rounded=0;orthogonalLoop=1;jettySize=auto;html=1;exitX=0;exitY=0.5;exitDx=0;exitDy=0;exitPerimeter=0;elbow=vertical;endArrow=none;endFill=0;strokeWidth=3;strokeColor=#FF8000;" parent="GMtj8rT2Yxm4aSxBWJuz-1" source="CNm5xOx-yD-aQ8OPoJ83-39" target="CNm5xOx-yD-aQ8OPoJ83-2" edge="1">
          <mxGeometry relative="1" as="geometry" />
        </mxCell>
        <mxCell id="CNm5xOx-yD-aQ8OPoJ83-50" style="rounded=0;orthogonalLoop=1;jettySize=auto;html=1;elbow=vertical;endArrow=none;endFill=0;strokeWidth=3;strokeColor=#FF8000;" parent="GMtj8rT2Yxm4aSxBWJuz-1" source="CNm5xOx-yD-aQ8OPoJ83-39" target="CNm5xOx-yD-aQ8OPoJ83-3" edge="1">
          <mxGeometry relative="1" as="geometry" />
        </mxCell>
        <mxCell id="CNm5xOx-yD-aQ8OPoJ83-39" value="10Gbps/10Gbps" style="shape=mxgraph.cisco.switches.atm_fast_gigabit_etherswitch;html=1;pointerEvents=1;dashed=0;fillColor=#036897;strokeColor=#ffffff;strokeWidth=2;verticalLabelPosition=bottom;verticalAlign=top;align=center;outlineConnect=0;labelBackgroundColor=#ffffff;" parent="GMtj8rT2Yxm4aSxBWJuz-1" vertex="1">
          <mxGeometry x="1195" y="426.4" width="64" height="64" as="geometry" />
        </mxCell>
        <mxCell id="CNm5xOx-yD-aQ8OPoJ83-55" style="rounded=0;orthogonalLoop=1;jettySize=auto;html=1;exitX=0.5;exitY=0;exitDx=0;exitDy=0;exitPerimeter=0;endArrow=none;endFill=0;strokeWidth=3;strokeColor=#FF8000;" parent="GMtj8rT2Yxm4aSxBWJuz-1" source="CNm5xOx-yD-aQ8OPoJ83-51" target="CNm5xOx-yD-aQ8OPoJ83-2" edge="1">
          <mxGeometry relative="1" as="geometry" />
        </mxCell>
        <mxCell id="CNm5xOx-yD-aQ8OPoJ83-56" style="rounded=0;orthogonalLoop=1;jettySize=auto;html=1;exitX=0.5;exitY=0;exitDx=0;exitDy=0;exitPerimeter=0;endArrow=none;endFill=0;strokeWidth=3;strokeColor=#FF8000;" parent="GMtj8rT2Yxm4aSxBWJuz-1" source="CNm5xOx-yD-aQ8OPoJ83-51" target="CNm5xOx-yD-aQ8OPoJ83-3" edge="1">
          <mxGeometry relative="1" as="geometry" />
        </mxCell>
        <mxCell id="CNm5xOx-yD-aQ8OPoJ83-51" value="10Gbps/10Gbps" style="shape=mxgraph.cisco.switches.atm_fast_gigabit_etherswitch;html=1;pointerEvents=1;dashed=0;fillColor=#036897;strokeColor=#ffffff;strokeWidth=2;verticalLabelPosition=bottom;verticalAlign=top;align=center;outlineConnect=0;labelBackgroundColor=#ffffff;" parent="GMtj8rT2Yxm4aSxBWJuz-1" vertex="1">
          <mxGeometry x="1195" y="569" width="64" height="64" as="geometry" />
        </mxCell>
        <mxCell id="CNm5xOx-yD-aQ8OPoJ83-57" style="rounded=0;orthogonalLoop=1;jettySize=auto;html=1;exitX=0.5;exitY=0;exitDx=0;exitDy=0;exitPerimeter=0;endArrow=none;endFill=0;strokeWidth=3;strokeColor=#FF8000;" parent="GMtj8rT2Yxm4aSxBWJuz-1" source="CNm5xOx-yD-aQ8OPoJ83-52" target="CNm5xOx-yD-aQ8OPoJ83-2" edge="1">
          <mxGeometry relative="1" as="geometry" />
        </mxCell>
        <mxCell id="CNm5xOx-yD-aQ8OPoJ83-58" style="rounded=0;orthogonalLoop=1;jettySize=auto;html=1;entryX=1;entryY=0.5;entryDx=0;entryDy=0;entryPerimeter=0;endArrow=none;endFill=0;strokeWidth=3;strokeColor=#FF8000;" parent="GMtj8rT2Yxm4aSxBWJuz-1" source="CNm5xOx-yD-aQ8OPoJ83-52" target="CNm5xOx-yD-aQ8OPoJ83-3" edge="1">
          <mxGeometry relative="1" as="geometry" />
        </mxCell>
        <mxCell id="CNm5xOx-yD-aQ8OPoJ83-52" value="10Gbps/10Gbps" style="shape=mxgraph.cisco.switches.atm_fast_gigabit_etherswitch;html=1;pointerEvents=1;dashed=0;fillColor=#036897;strokeColor=#ffffff;strokeWidth=2;verticalLabelPosition=bottom;verticalAlign=top;align=center;outlineConnect=0;labelBackgroundColor=#ffffff;" parent="GMtj8rT2Yxm4aSxBWJuz-1" vertex="1">
          <mxGeometry x="1195" y="705" width="64" height="64" as="geometry" />
        </mxCell>
        <mxCell id="CNm5xOx-yD-aQ8OPoJ83-104" style="edgeStyle=none;rounded=0;orthogonalLoop=1;jettySize=auto;html=1;endArrow=none;endFill=0;strokeColor=#FF8000;strokeWidth=3;fontColor=#000000;" parent="GMtj8rT2Yxm4aSxBWJuz-1" source="CNm5xOx-yD-aQ8OPoJ83-59" target="CNm5xOx-yD-aQ8OPoJ83-65" edge="1">
          <mxGeometry relative="1" as="geometry" />
        </mxCell>
        <mxCell id="CNm5xOx-yD-aQ8OPoJ83-105" style="edgeStyle=none;rounded=0;orthogonalLoop=1;jettySize=auto;html=1;endArrow=none;endFill=0;strokeColor=#FF8000;strokeWidth=3;fontColor=#000000;" parent="GMtj8rT2Yxm4aSxBWJuz-1" source="CNm5xOx-yD-aQ8OPoJ83-59" target="CNm5xOx-yD-aQ8OPoJ83-64" edge="1">
          <mxGeometry relative="1" as="geometry" />
        </mxCell>
        <mxCell id="MxxzED2LqKstP4RevrAJ-10" style="edgeStyle=none;rounded=0;orthogonalLoop=1;jettySize=auto;html=1;endArrow=none;endFill=0;strokeWidth=1;fontColor=#000000;" parent="GMtj8rT2Yxm4aSxBWJuz-1" source="CNm5xOx-yD-aQ8OPoJ83-59" target="MxxzED2LqKstP4RevrAJ-3" edge="1">
          <mxGeometry relative="1" as="geometry" />
        </mxCell>
        <mxCell id="MxxzED2LqKstP4RevrAJ-15" style="edgeStyle=none;rounded=0;orthogonalLoop=1;jettySize=auto;html=1;endArrow=none;endFill=0;strokeWidth=1;fontColor=#000000;" parent="GMtj8rT2Yxm4aSxBWJuz-1" source="CNm5xOx-yD-aQ8OPoJ83-59" target="CNm5xOx-yD-aQ8OPoJ83-1" edge="1">
          <mxGeometry relative="1" as="geometry" />
        </mxCell>
        <mxCell id="vXIxPkP1VoYkMAod36Bd-1" style="edgeStyle=none;rounded=0;orthogonalLoop=1;jettySize=auto;html=1;endArrow=none;endFill=0;strokeWidth=1;" parent="GMtj8rT2Yxm4aSxBWJuz-1" source="CNm5xOx-yD-aQ8OPoJ83-59" target="vXIxPkP1VoYkMAod36Bd-0" edge="1">
          <mxGeometry relative="1" as="geometry" />
        </mxCell>
        <mxCell id="CNm5xOx-yD-aQ8OPoJ83-59" value="1Gbps/10Gbps" style="shape=mxgraph.cisco.switches.workgroup_switch;html=1;pointerEvents=1;dashed=0;fillColor=#036897;strokeColor=#ffffff;strokeWidth=2;verticalLabelPosition=bottom;verticalAlign=top;align=center;outlineConnect=0;labelBackgroundColor=#ffffff;" parent="GMtj8rT2Yxm4aSxBWJuz-1" vertex="1">
          <mxGeometry x="445" y="383.6" width="101" height="50" as="geometry" />
        </mxCell>
        <mxCell id="CNm5xOx-yD-aQ8OPoJ83-103" style="edgeStyle=none;rounded=0;orthogonalLoop=1;jettySize=auto;html=1;endArrow=none;endFill=0;strokeWidth=3;fontColor=#000000;strokeColor=#FF8000;" parent="GMtj8rT2Yxm4aSxBWJuz-1" source="CNm5xOx-yD-aQ8OPoJ83-64" target="CNm5xOx-yD-aQ8OPoJ83-65" edge="1">
          <mxGeometry relative="1" as="geometry" />
        </mxCell>
        <mxCell id="MxxzED2LqKstP4RevrAJ-12" style="edgeStyle=none;rounded=0;orthogonalLoop=1;jettySize=auto;html=1;endArrow=none;endFill=0;strokeColor=#000000;strokeWidth=1;fontColor=#000000;" parent="GMtj8rT2Yxm4aSxBWJuz-1" source="CNm5xOx-yD-aQ8OPoJ83-64" target="MxxzED2LqKstP4RevrAJ-5" edge="1">
          <mxGeometry relative="1" as="geometry" />
        </mxCell>
        <mxCell id="MxxzED2LqKstP4RevrAJ-14" style="edgeStyle=none;rounded=0;orthogonalLoop=1;jettySize=auto;html=1;endArrow=none;endFill=0;strokeWidth=1;fontColor=#000000;" parent="GMtj8rT2Yxm4aSxBWJuz-1" source="CNm5xOx-yD-aQ8OPoJ83-64" target="GMtj8rT2Yxm4aSxBWJuz-4" edge="1">
          <mxGeometry relative="1" as="geometry" />
        </mxCell>
        <mxCell id="CNm5xOx-yD-aQ8OPoJ83-64" value="1Gbps/10Gbps" style="shape=mxgraph.cisco.switches.workgroup_switch;html=1;pointerEvents=1;dashed=0;fillColor=#036897;strokeColor=#ffffff;strokeWidth=2;verticalLabelPosition=bottom;verticalAlign=top;align=center;outlineConnect=0;labelBackgroundColor=#ffffff;" parent="GMtj8rT2Yxm4aSxBWJuz-1" vertex="1">
          <mxGeometry x="195" y="475" width="101" height="50" as="geometry" />
        </mxCell>
        <mxCell id="CNm5xOx-yD-aQ8OPoJ83-73" style="edgeStyle=none;rounded=0;orthogonalLoop=1;jettySize=auto;html=1;endArrow=none;endFill=0;" parent="GMtj8rT2Yxm4aSxBWJuz-1" source="CNm5xOx-yD-aQ8OPoJ83-65" target="GMtj8rT2Yxm4aSxBWJuz-3" edge="1">
          <mxGeometry relative="1" as="geometry" />
        </mxCell>
        <mxCell id="CNm5xOx-yD-aQ8OPoJ83-74" style="edgeStyle=none;rounded=0;orthogonalLoop=1;jettySize=auto;html=1;endArrow=none;endFill=0;" parent="GMtj8rT2Yxm4aSxBWJuz-1" source="CNm5xOx-yD-aQ8OPoJ83-65" target="GMtj8rT2Yxm4aSxBWJuz-9" edge="1">
          <mxGeometry relative="1" as="geometry" />
        </mxCell>
        <mxCell id="CNm5xOx-yD-aQ8OPoJ83-75" style="edgeStyle=none;rounded=0;orthogonalLoop=1;jettySize=auto;html=1;endArrow=none;endFill=0;" parent="GMtj8rT2Yxm4aSxBWJuz-1" source="CNm5xOx-yD-aQ8OPoJ83-65" target="GMtj8rT2Yxm4aSxBWJuz-10" edge="1">
          <mxGeometry relative="1" as="geometry" />
        </mxCell>
        <mxCell id="CNm5xOx-yD-aQ8OPoJ83-76" style="edgeStyle=none;rounded=0;orthogonalLoop=1;jettySize=auto;html=1;endArrow=none;endFill=0;strokeWidth=3;strokeColor=#FF8000;" parent="GMtj8rT2Yxm4aSxBWJuz-1" source="CNm5xOx-yD-aQ8OPoJ83-65" target="CNm5xOx-yD-aQ8OPoJ83-2" edge="1">
          <mxGeometry relative="1" as="geometry" />
        </mxCell>
        <mxCell id="CNm5xOx-yD-aQ8OPoJ83-77" style="edgeStyle=none;rounded=0;orthogonalLoop=1;jettySize=auto;html=1;endArrow=none;endFill=0;strokeWidth=3;strokeColor=#FF8000;" parent="GMtj8rT2Yxm4aSxBWJuz-1" source="CNm5xOx-yD-aQ8OPoJ83-65" target="CNm5xOx-yD-aQ8OPoJ83-3" edge="1">
          <mxGeometry relative="1" as="geometry" />
        </mxCell>
        <mxCell id="vXIxPkP1VoYkMAod36Bd-7" style="edgeStyle=none;rounded=0;orthogonalLoop=1;jettySize=auto;html=1;endArrow=none;endFill=0;strokeColor=#000000;strokeWidth=1;" parent="GMtj8rT2Yxm4aSxBWJuz-1" source="CNm5xOx-yD-aQ8OPoJ83-65" target="vXIxPkP1VoYkMAod36Bd-6" edge="1">
          <mxGeometry relative="1" as="geometry" />
        </mxCell>
        <mxCell id="CNm5xOx-yD-aQ8OPoJ83-65" value="1Gbps/10Gbps" style="shape=mxgraph.cisco.switches.workgroup_switch;html=1;pointerEvents=1;dashed=0;fillColor=#036897;strokeColor=#ffffff;strokeWidth=2;verticalLabelPosition=bottom;verticalAlign=top;align=center;outlineConnect=0;labelBackgroundColor=#ffffff;" parent="GMtj8rT2Yxm4aSxBWJuz-1" vertex="1">
          <mxGeometry x="314" y="579.0000000000001" width="101" height="50" as="geometry" />
        </mxCell>
        <mxCell id="CNm5xOx-yD-aQ8OPoJ83-81" style="edgeStyle=none;rounded=0;orthogonalLoop=1;jettySize=auto;html=1;endArrow=none;endFill=0;" parent="GMtj8rT2Yxm4aSxBWJuz-1" source="CNm5xOx-yD-aQ8OPoJ83-79" target="GMtj8rT2Yxm4aSxBWJuz-6" edge="1">
          <mxGeometry relative="1" as="geometry" />
        </mxCell>
        <mxCell id="CNm5xOx-yD-aQ8OPoJ83-86" value="" style="group" parent="GMtj8rT2Yxm4aSxBWJuz-1" vertex="1" connectable="0">
          <mxGeometry x="945" y="235" width="186" height="106" as="geometry" />
        </mxCell>
        <mxCell id="CNm5xOx-yD-aQ8OPoJ83-87" value="" style="shape=mxgraph.cisco.storage.cloud;html=1;pointerEvents=1;dashed=0;fillColor=#036897;strokeColor=#ffffff;strokeWidth=2;verticalLabelPosition=bottom;verticalAlign=top;align=center;outlineConnect=0;" parent="CNm5xOx-yD-aQ8OPoJ83-86" vertex="1">
          <mxGeometry width="186" height="106" as="geometry" />
        </mxCell>
        <mxCell id="CNm5xOx-yD-aQ8OPoJ83-88" value="&lt;font style=&quot;font-size: 36px&quot; color=&quot;#ffffff&quot;&gt;ISP&lt;/font&gt;" style="text;html=1;align=center;verticalAlign=middle;resizable=0;points=[];autosize=1;" parent="CNm5xOx-yD-aQ8OPoJ83-86" vertex="1">
          <mxGeometry x="58" y="38" width="70" height="30" as="geometry" />
        </mxCell>
        <mxCell id="CNm5xOx-yD-aQ8OPoJ83-89" style="edgeStyle=none;rounded=0;orthogonalLoop=1;jettySize=auto;html=1;endArrow=none;endFill=0;strokeWidth=5;strokeColor=#007FFF;" parent="GMtj8rT2Yxm4aSxBWJuz-1" source="CNm5xOx-yD-aQ8OPoJ83-87" target="CNm5xOx-yD-aQ8OPoJ83-79" edge="1">
          <mxGeometry relative="1" as="geometry" />
        </mxCell>
        <mxCell id="CNm5xOx-yD-aQ8OPoJ83-90" style="edgeStyle=none;rounded=0;orthogonalLoop=1;jettySize=auto;html=1;endArrow=none;endFill=0;strokeWidth=6;strokeColor=#007FFF;" parent="GMtj8rT2Yxm4aSxBWJuz-1" source="CNm5xOx-yD-aQ8OPoJ83-87" target="CNm5xOx-yD-aQ8OPoJ83-2" edge="1">
          <mxGeometry relative="1" as="geometry" />
        </mxCell>
        <mxCell id="CNm5xOx-yD-aQ8OPoJ83-92" style="edgeStyle=none;rounded=0;orthogonalLoop=1;jettySize=auto;html=1;endArrow=none;endFill=0;strokeWidth=6;strokeColor=#007FFF;" parent="GMtj8rT2Yxm4aSxBWJuz-1" source="CNm5xOx-yD-aQ8OPoJ83-87" target="CNm5xOx-yD-aQ8OPoJ83-3" edge="1">
          <mxGeometry relative="1" as="geometry" />
        </mxCell>
        <mxCell id="MxxzED2LqKstP4RevrAJ-11" style="edgeStyle=none;rounded=0;orthogonalLoop=1;jettySize=auto;html=1;endArrow=none;endFill=0;strokeWidth=3;fontColor=#000000;strokeColor=#FF3333;" parent="GMtj8rT2Yxm4aSxBWJuz-1" source="CNm5xOx-yD-aQ8OPoJ83-1" target="MxxzED2LqKstP4RevrAJ-6" edge="1">
          <mxGeometry relative="1" as="geometry" />
        </mxCell>
        <mxCell id="CNm5xOx-yD-aQ8OPoJ83-1" value="Research and Development Centre" style="points=[];aspect=fixed;html=1;align=center;shadow=0;dashed=0;image;image=img/lib/allied_telesis/buildings/Secure_Building.svg;labelBackgroundColor=#ffffff;" parent="GMtj8rT2Yxm4aSxBWJuz-1" vertex="1">
          <mxGeometry x="440" y="150.19999999999987" width="163.20000000000002" height="111.60000000000001" as="geometry" />
        </mxCell>
        <mxCell id="MxxzED2LqKstP4RevrAJ-13" style="edgeStyle=none;rounded=0;orthogonalLoop=1;jettySize=auto;html=1;endArrow=none;endFill=0;strokeWidth=3;fontColor=#000000;strokeColor=#FF3333;" parent="GMtj8rT2Yxm4aSxBWJuz-1" source="GMtj8rT2Yxm4aSxBWJuz-4" target="MxxzED2LqKstP4RevrAJ-6" edge="1">
          <mxGeometry relative="1" as="geometry" />
        </mxCell>
        <mxCell id="GMtj8rT2Yxm4aSxBWJuz-4" value="Administration Building" style="points=[];aspect=fixed;html=1;align=center;shadow=0;dashed=0;image;image=img/lib/allied_telesis/buildings/Apartments.svg;labelBackgroundColor=#ffffff;" parent="GMtj8rT2Yxm4aSxBWJuz-1" vertex="1">
          <mxGeometry x="141" y="225.6" width="54" height="105" as="geometry" />
        </mxCell>
        <mxCell id="MxxzED2LqKstP4RevrAJ-7" value="" style="group" parent="GMtj8rT2Yxm4aSxBWJuz-1" vertex="1" connectable="0">
          <mxGeometry x="325" y="291" width="55.799999999999955" height="89.90000000000009" as="geometry" />
        </mxCell>
        <mxCell id="MxxzED2LqKstP4RevrAJ-1" value="VPN Router" style="points=[];aspect=fixed;html=1;align=center;shadow=0;dashed=0;image;image=img/lib/allied_telesis/security/Router_VPN.svg;labelBackgroundColor=#ffffff;strokeColor=#CCCCCC;fontColor=#000000;" parent="MxxzED2LqKstP4RevrAJ-7" vertex="1">
          <mxGeometry y="50.30000000000007" width="55.800000000000004" height="39.6" as="geometry" />
        </mxCell>
        <mxCell id="MxxzED2LqKstP4RevrAJ-2" value="" style="points=[];aspect=fixed;html=1;align=center;shadow=0;dashed=0;image;image=img/lib/allied_telesis/security/Router_VPN.svg;labelBackgroundColor=#ffffff;strokeColor=#CCCCCC;fontColor=#000000;" parent="MxxzED2LqKstP4RevrAJ-7" vertex="1">
          <mxGeometry y="40.30000000000007" width="55.800000000000004" height="39.6" as="geometry" />
        </mxCell>
        <mxCell id="MxxzED2LqKstP4RevrAJ-3" value="" style="points=[];aspect=fixed;html=1;align=center;shadow=0;dashed=0;image;image=img/lib/allied_telesis/security/Router_VPN.svg;labelBackgroundColor=#ffffff;strokeColor=#CCCCCC;fontColor=#000000;" parent="MxxzED2LqKstP4RevrAJ-7" vertex="1">
          <mxGeometry y="30.300000000000068" width="55.800000000000004" height="39.6" as="geometry" />
        </mxCell>
        <mxCell id="MxxzED2LqKstP4RevrAJ-4" value="" style="points=[];aspect=fixed;html=1;align=center;shadow=0;dashed=0;image;image=img/lib/allied_telesis/security/Router_VPN.svg;labelBackgroundColor=#ffffff;strokeColor=#CCCCCC;fontColor=#000000;" parent="MxxzED2LqKstP4RevrAJ-7" vertex="1">
          <mxGeometry y="20.300000000000068" width="55.800000000000004" height="39.6" as="geometry" />
        </mxCell>
        <mxCell id="MxxzED2LqKstP4RevrAJ-5" value="" style="points=[];aspect=fixed;html=1;align=center;shadow=0;dashed=0;image;image=img/lib/allied_telesis/security/Router_VPN.svg;labelBackgroundColor=#ffffff;strokeColor=#CCCCCC;fontColor=#000000;" parent="MxxzED2LqKstP4RevrAJ-7" vertex="1">
          <mxGeometry y="10.700000000000045" width="55.800000000000004" height="39.6" as="geometry" />
        </mxCell>
        <mxCell id="MxxzED2LqKstP4RevrAJ-6" value="" style="points=[];aspect=fixed;html=1;align=center;shadow=0;dashed=0;image;image=img/lib/allied_telesis/security/Router_VPN.svg;labelBackgroundColor=#ffffff;strokeColor=#CCCCCC;fontColor=#000000;" parent="MxxzED2LqKstP4RevrAJ-7" vertex="1">
          <mxGeometry width="55.800000000000004" height="39.6" as="geometry" />
        </mxCell>
        <mxCell id="MxxzED2LqKstP4RevrAJ-18" value="" style="group" parent="GMtj8rT2Yxm4aSxBWJuz-1" vertex="1" connectable="0">
          <mxGeometry x="1180" y="111" width="275" height="144" as="geometry" />
        </mxCell>
        <mxCell id="CNm5xOx-yD-aQ8OPoJ83-115" value="" style="rounded=1;whiteSpace=wrap;html=1;labelBackgroundColor=#ffffff;fontColor=#000000;align=left;labelBorderColor=none;strokeColor=#CCCCCC;" parent="MxxzED2LqKstP4RevrAJ-18" vertex="1">
          <mxGeometry width="275" height="144" as="geometry" />
        </mxCell>
        <mxCell id="CNm5xOx-yD-aQ8OPoJ83-106" style="edgeStyle=none;rounded=0;orthogonalLoop=1;jettySize=auto;html=1;endArrow=none;endFill=0;strokeWidth=3;strokeColor=#FF8000;" parent="MxxzED2LqKstP4RevrAJ-18" edge="1">
          <mxGeometry as="geometry">
            <mxPoint x="95" y="55" as="sourcePoint" />
            <mxPoint x="15" y="55" as="targetPoint" />
          </mxGeometry>
        </mxCell>
        <mxCell id="CNm5xOx-yD-aQ8OPoJ83-108" style="edgeStyle=none;rounded=0;orthogonalLoop=1;jettySize=auto;html=1;endArrow=none;endFill=0;strokeWidth=5;strokeColor=#007FFF;" parent="MxxzED2LqKstP4RevrAJ-18" edge="1">
          <mxGeometry as="geometry">
            <mxPoint x="15" y="86" as="sourcePoint" />
            <mxPoint x="95" y="86" as="targetPoint" />
          </mxGeometry>
        </mxCell>
        <mxCell id="CNm5xOx-yD-aQ8OPoJ83-109" style="rounded=0;orthogonalLoop=1;jettySize=auto;html=1;elbow=vertical;endArrow=none;endFill=0;" parent="MxxzED2LqKstP4RevrAJ-18" edge="1">
          <mxGeometry as="geometry">
            <mxPoint x="15" y="26" as="sourcePoint" />
            <mxPoint x="95" y="26" as="targetPoint" />
          </mxGeometry>
        </mxCell>
        <mxCell id="CNm5xOx-yD-aQ8OPoJ83-110" value="UTP-CAT6 (1Gbps)" style="text;html=1;align=left;verticalAlign=middle;resizable=0;points=[];autosize=1;fontColor=#000000;" parent="MxxzED2LqKstP4RevrAJ-18" vertex="1">
          <mxGeometry x="99" y="16" width="120" height="20" as="geometry" />
        </mxCell>
        <mxCell id="CNm5xOx-yD-aQ8OPoJ83-111" value="STP-CAT7 (10Gbps)" style="text;html=1;align=left;verticalAlign=middle;resizable=0;points=[];autosize=1;fontColor=#000000;" parent="MxxzED2LqKstP4RevrAJ-18" vertex="1">
          <mxGeometry x="99" y="46" width="130" height="20" as="geometry" />
        </mxCell>
        <mxCell id="CNm5xOx-yD-aQ8OPoJ83-112" value="Single Mode Fibre (100Gbps)" style="text;html=1;align=left;verticalAlign=middle;resizable=0;points=[];autosize=1;fontColor=#000000;" parent="MxxzED2LqKstP4RevrAJ-18" vertex="1">
          <mxGeometry x="99" y="75.29999999999995" width="170" height="20" as="geometry" />
        </mxCell>
        <mxCell id="MxxzED2LqKstP4RevrAJ-16" style="edgeStyle=none;rounded=0;orthogonalLoop=1;jettySize=auto;html=1;endArrow=none;endFill=0;strokeWidth=3;fontColor=#000000;strokeColor=#FF3333;" parent="MxxzED2LqKstP4RevrAJ-18" edge="1">
          <mxGeometry relative="1" as="geometry">
            <mxPoint x="15" y="114" as="sourcePoint" />
            <mxPoint x="95" y="114" as="targetPoint" />
          </mxGeometry>
        </mxCell>
        <mxCell id="MxxzED2LqKstP4RevrAJ-17" value="Encrypted UTP to Critical Net" style="text;html=1;align=left;verticalAlign=middle;resizable=0;points=[];autosize=1;fontColor=#000000;" parent="MxxzED2LqKstP4RevrAJ-18" vertex="1">
          <mxGeometry x="99" y="103.29999999999995" width="170" height="20" as="geometry" />
        </mxCell>
        <mxCell id="CNm5xOx-yD-aQ8OPoJ83-79" value="Residential Use Router&lt;br&gt;10Gbps/10Gbps" style="shape=mxgraph.cisco.switches.workgroup_switch;html=1;pointerEvents=1;dashed=0;fillColor=#036897;strokeColor=#ffffff;strokeWidth=2;verticalLabelPosition=bottom;verticalAlign=top;align=center;outlineConnect=0;labelBackgroundColor=#ffffff;" parent="GMtj8rT2Yxm4aSxBWJuz-1" vertex="1">
          <mxGeometry x="774" y="181" width="101" height="50" as="geometry" />
        </mxCell>
        <mxCell id="EiEGZkbM21SAsKlI8rAK-7" value="Encrypted Server Farm" style="points=[];aspect=fixed;html=1;align=center;shadow=0;dashed=0;image;image=img/lib/allied_telesis/media_converters/Media_Converter_Standalone_POE.svg;labelBackgroundColor=#ffffff;fontColor=#000000;" parent="GMtj8rT2Yxm4aSxBWJuz-1" vertex="1">
          <mxGeometry x="1449" y="518.2" width="45.6" height="37.2" as="geometry" />
        </mxCell>
        <mxCell id="EiEGZkbM21SAsKlI8rAK-8" value="" style="points=[];aspect=fixed;html=1;align=center;shadow=0;dashed=0;image;image=img/lib/allied_telesis/media_converters/Media_Converter_Standalone_POE.svg;labelBackgroundColor=#ffffff;fontColor=#000000;" parent="GMtj8rT2Yxm4aSxBWJuz-1" vertex="1">
          <mxGeometry x="1449" y="504.6" width="45.6" height="37.2" as="geometry" />
        </mxCell>
        <mxCell id="EiEGZkbM21SAsKlI8rAK-9" value="" style="points=[];aspect=fixed;html=1;align=center;shadow=0;dashed=0;image;image=img/lib/allied_telesis/media_converters/Media_Converter_Standalone_POE.svg;labelBackgroundColor=#ffffff;fontColor=#000000;" parent="GMtj8rT2Yxm4aSxBWJuz-1" vertex="1">
          <mxGeometry x="1449" y="490.4" width="45.6" height="37.2" as="geometry" />
        </mxCell>
        <mxCell id="EiEGZkbM21SAsKlI8rAK-11" style="edgeStyle=none;rounded=0;orthogonalLoop=1;jettySize=auto;html=1;endArrow=none;endFill=0;strokeWidth=1;fontColor=#000000;" parent="GMtj8rT2Yxm4aSxBWJuz-1" source="EiEGZkbM21SAsKlI8rAK-6" target="CNm5xOx-yD-aQ8OPoJ83-39" edge="1">
          <mxGeometry relative="1" as="geometry" />
        </mxCell>
        <mxCell id="EiEGZkbM21SAsKlI8rAK-12" style="edgeStyle=none;rounded=0;orthogonalLoop=1;jettySize=auto;html=1;endArrow=none;endFill=0;strokeColor=#000000;strokeWidth=1;fontColor=#000000;" parent="GMtj8rT2Yxm4aSxBWJuz-1" source="EiEGZkbM21SAsKlI8rAK-6" target="CNm5xOx-yD-aQ8OPoJ83-38" edge="1">
          <mxGeometry relative="1" as="geometry" />
        </mxCell>
        <mxCell id="EiEGZkbM21SAsKlI8rAK-13" style="edgeStyle=none;rounded=0;orthogonalLoop=1;jettySize=auto;html=1;endArrow=none;endFill=0;strokeColor=#000000;strokeWidth=1;fontColor=#000000;" parent="GMtj8rT2Yxm4aSxBWJuz-1" source="EiEGZkbM21SAsKlI8rAK-3" target="CNm5xOx-yD-aQ8OPoJ83-51" edge="1">
          <mxGeometry relative="1" as="geometry" />
        </mxCell>
        <mxCell id="EiEGZkbM21SAsKlI8rAK-15" style="edgeStyle=none;rounded=0;orthogonalLoop=1;jettySize=auto;html=1;endArrow=none;endFill=0;strokeColor=#000000;strokeWidth=1;fontColor=#000000;" parent="GMtj8rT2Yxm4aSxBWJuz-1" source="EiEGZkbM21SAsKlI8rAK-2" target="CNm5xOx-yD-aQ8OPoJ83-52" edge="1">
          <mxGeometry relative="1" as="geometry" />
        </mxCell>
        <mxCell id="EiEGZkbM21SAsKlI8rAK-0" value="" style="group" parent="GMtj8rT2Yxm4aSxBWJuz-1" vertex="1" connectable="0">
          <mxGeometry x="1315" y="481" width="55.799999999999955" height="89.90000000000009" as="geometry" />
        </mxCell>
        <mxCell id="EiEGZkbM21SAsKlI8rAK-1" value="VPN Router" style="points=[];aspect=fixed;html=1;align=center;shadow=0;dashed=0;image;image=img/lib/allied_telesis/security/Router_VPN.svg;labelBackgroundColor=#ffffff;strokeColor=#CCCCCC;fontColor=#000000;" parent="EiEGZkbM21SAsKlI8rAK-0" vertex="1">
          <mxGeometry y="50.30000000000007" width="55.800000000000004" height="39.6" as="geometry" />
        </mxCell>
        <mxCell id="EiEGZkbM21SAsKlI8rAK-2" value="" style="points=[];aspect=fixed;html=1;align=center;shadow=0;dashed=0;image;image=img/lib/allied_telesis/security/Router_VPN.svg;labelBackgroundColor=#ffffff;strokeColor=#CCCCCC;fontColor=#000000;" parent="EiEGZkbM21SAsKlI8rAK-0" vertex="1">
          <mxGeometry y="40.30000000000007" width="55.800000000000004" height="39.6" as="geometry" />
        </mxCell>
        <mxCell id="EiEGZkbM21SAsKlI8rAK-3" value="" style="points=[];aspect=fixed;html=1;align=center;shadow=0;dashed=0;image;image=img/lib/allied_telesis/security/Router_VPN.svg;labelBackgroundColor=#ffffff;strokeColor=#CCCCCC;fontColor=#000000;" parent="EiEGZkbM21SAsKlI8rAK-0" vertex="1">
          <mxGeometry y="30.300000000000068" width="55.800000000000004" height="39.6" as="geometry" />
        </mxCell>
        <mxCell id="EiEGZkbM21SAsKlI8rAK-4" value="" style="points=[];aspect=fixed;html=1;align=center;shadow=0;dashed=0;image;image=img/lib/allied_telesis/security/Router_VPN.svg;labelBackgroundColor=#ffffff;strokeColor=#CCCCCC;fontColor=#000000;" parent="EiEGZkbM21SAsKlI8rAK-0" vertex="1">
          <mxGeometry y="20.300000000000068" width="55.800000000000004" height="39.6" as="geometry" />
        </mxCell>
        <mxCell id="EiEGZkbM21SAsKlI8rAK-5" value="" style="points=[];aspect=fixed;html=1;align=center;shadow=0;dashed=0;image;image=img/lib/allied_telesis/security/Router_VPN.svg;labelBackgroundColor=#ffffff;strokeColor=#CCCCCC;fontColor=#000000;" parent="EiEGZkbM21SAsKlI8rAK-0" vertex="1">
          <mxGeometry y="10.700000000000045" width="55.800000000000004" height="39.6" as="geometry" />
        </mxCell>
        <mxCell id="EiEGZkbM21SAsKlI8rAK-6" value="" style="points=[];aspect=fixed;html=1;align=center;shadow=0;dashed=0;image;image=img/lib/allied_telesis/security/Router_VPN.svg;labelBackgroundColor=#ffffff;strokeColor=#CCCCCC;fontColor=#000000;" parent="EiEGZkbM21SAsKlI8rAK-0" vertex="1">
          <mxGeometry width="55.800000000000004" height="39.6" as="geometry" />
        </mxCell>
        <mxCell id="EiEGZkbM21SAsKlI8rAK-17" style="edgeStyle=none;rounded=0;orthogonalLoop=1;jettySize=auto;html=1;endArrow=none;endFill=0;strokeWidth=2;fontColor=#000000;strokeColor=#FF0000;" parent="GMtj8rT2Yxm4aSxBWJuz-1" source="EiEGZkbM21SAsKlI8rAK-5" target="EiEGZkbM21SAsKlI8rAK-9" edge="1">
          <mxGeometry relative="1" as="geometry" />
        </mxCell>
        <mxCell id="vXIxPkP1VoYkMAod36Bd-0" value="Outdoor WiFi Router&lt;br&gt;(Non-critical Network)" style="shape=mxgraph.cisco.routers.wireless_router;html=1;pointerEvents=1;dashed=0;fillColor=#036897;strokeColor=#ffffff;strokeWidth=2;verticalLabelPosition=bottom;verticalAlign=top;align=center;outlineConnect=0;labelBackgroundColor=#ffffff;" parent="GMtj8rT2Yxm4aSxBWJuz-1" vertex="1">
          <mxGeometry x="280" y="150.2" width="50" height="54" as="geometry" />
        </mxCell>
        <mxCell id="vXIxPkP1VoYkMAod36Bd-5" value="Outdoor WiFi Coverage" style="text;html=1;align=center;verticalAlign=middle;resizable=0;points=[];autosize=1;labelBackgroundColor=none;fontStyle=1" parent="GMtj8rT2Yxm4aSxBWJuz-1" vertex="1">
          <mxGeometry x="455" y="115" width="150" height="20" as="geometry" />
        </mxCell>
        <mxCell id="vXIxPkP1VoYkMAod36Bd-6" value="Outdoor WiFi Router&lt;br&gt;(Non-critical Network)" style="shape=mxgraph.cisco.routers.wireless_router;html=1;pointerEvents=1;dashed=0;fillColor=#036897;strokeColor=#ffffff;strokeWidth=2;verticalLabelPosition=bottom;verticalAlign=top;align=center;outlineConnect=0;labelBackgroundColor=#ffffff;" parent="GMtj8rT2Yxm4aSxBWJuz-1" vertex="1">
          <mxGeometry x="562" y="735" width="44" height="54" as="geometry" />
        </mxCell>
        <mxCell id="vXIxPkP1VoYkMAod36Bd-8" value="Outdoor WiFi Coverage" style="text;html=1;align=center;verticalAlign=middle;resizable=0;points=[];autosize=1;labelBackgroundColor=none;fontStyle=1" parent="GMtj8rT2Yxm4aSxBWJuz-1" vertex="1">
          <mxGeometry x="306" y="860" width="150" height="20" as="geometry" />
        </mxCell>
        <mxCell id="CNm5xOx-yD-aQ8OPoJ83-38" value="10Gbps/10Gbps" style="shape=mxgraph.cisco.switches.atm_fast_gigabit_etherswitch;html=1;pointerEvents=1;dashed=0;fillColor=#036897;strokeColor=#ffffff;strokeWidth=2;verticalLabelPosition=bottom;verticalAlign=top;align=center;outlineConnect=0;labelBackgroundColor=#ffffff;" parent="GMtj8rT2Yxm4aSxBWJuz-1" vertex="1">
          <mxGeometry x="1195" y="305" width="64" height="64" as="geometry" />
        </mxCell>
      </root>
    </mxGraphModel>
  </diagram>
  <diagram id="6zIxw2Hyg6dfomCNbsjq" name="Plant and Foundry">
    <mxGraphModel dx="1422" dy="-52" grid="1" gridSize="10" guides="1" tooltips="1" connect="1" arrows="1" fold="1" page="1" pageScale="1" pageWidth="1169" pageHeight="827" math="0" shadow="0">
      <root>
        <mxCell id="RAIZJpcT9ia0xnAVukXc-0" />
        <mxCell id="RAIZJpcT9ia0xnAVukXc-1" parent="RAIZJpcT9ia0xnAVukXc-0" />
        <mxCell id="1MxvUE7uG66Ad9kFWABK-0" value="" style="rounded=1;whiteSpace=wrap;html=1;fontSize=12;fontColor=#000000;strokeColor=none;fillColor=#E6E6E6;opacity=70;" parent="RAIZJpcT9ia0xnAVukXc-1" vertex="1">
          <mxGeometry x="655" y="1290" width="310" height="230" as="geometry" />
        </mxCell>
        <mxCell id="RPgtPNgpf2uLghUG7uce-0" value="" style="rounded=1;whiteSpace=wrap;html=1;fontSize=12;fillColor=#f8cecc;opacity=70;strokeColor=none;" parent="RAIZJpcT9ia0xnAVukXc-1" vertex="1">
          <mxGeometry x="180" y="1131" width="182.6" height="219.30000000000007" as="geometry" />
        </mxCell>
        <mxCell id="RPgtPNgpf2uLghUG7uce-1" value="" style="rounded=1;whiteSpace=wrap;html=1;labelBackgroundColor=none;fontColor=#000000;opacity=70;" parent="RAIZJpcT9ia0xnAVukXc-1" vertex="1">
          <mxGeometry x="281.01" y="1184.65" width="60" height="136.5" as="geometry" />
        </mxCell>
        <mxCell id="RPgtPNgpf2uLghUG7uce-2" value="" style="rounded=1;whiteSpace=wrap;html=1;labelBackgroundColor=none;fontColor=#000000;opacity=70;" parent="RAIZJpcT9ia0xnAVukXc-1" vertex="1">
          <mxGeometry x="208.6" y="1184.65" width="60" height="136.5" as="geometry" />
        </mxCell>
        <mxCell id="vnIVXOKVOxg8UwXb7cvk-5" style="edgeStyle=none;rounded=0;orthogonalLoop=1;jettySize=auto;html=1;exitX=0.87;exitY=0.74;exitDx=0;exitDy=0;exitPerimeter=0;entryX=0.87;entryY=0.74;entryDx=0;entryDy=0;entryPerimeter=0;endArrow=none;endFill=0;strokeColor=#FF8000;strokeWidth=2;" parent="RAIZJpcT9ia0xnAVukXc-1" source="vnIVXOKVOxg8UwXb7cvk-0" target="m4dTVVSOKDjZEtIVwKJh-0" edge="1">
          <mxGeometry relative="1" as="geometry" />
        </mxCell>
        <mxCell id="-RvLXp1pWWfajbZVR07f-28" value="" style="group" parent="RAIZJpcT9ia0xnAVukXc-1" vertex="1" connectable="0">
          <mxGeometry x="200" y="1400" width="360" height="120.0016956521738" as="geometry" />
        </mxCell>
        <mxCell id="3fsoEWonqgJnVwwGpHkL-3" value="" style="rounded=1;whiteSpace=wrap;html=1;labelBackgroundColor=#ffffff;fillColor=#d5e8d4;fontSize=12;opacity=70;strokeColor=none;" parent="-RvLXp1pWWfajbZVR07f-28" vertex="1">
          <mxGeometry x="-20" y="-10" width="380" height="130" as="geometry" />
        </mxCell>
        <mxCell id="-RvLXp1pWWfajbZVR07f-4" value="" style="shape=image;html=1;verticalAlign=top;verticalLabelPosition=bottom;labelBackgroundColor=#ffffff;imageAspect=0;aspect=fixed;image=https://cdn2.iconfinder.com/data/icons/competitive-strategy-and-corporate-training/512/705_Automation_factory_hand_mechanism_package-128.png;shadow=0;dashed=0;fillColor=#E6E6E6;fontColor=#FFFFFF;" parent="-RvLXp1pWWfajbZVR07f-28" vertex="1">
          <mxGeometry width="70" height="70" as="geometry" />
        </mxCell>
        <mxCell id="-RvLXp1pWWfajbZVR07f-22" value="" style="shape=image;html=1;verticalAlign=top;verticalLabelPosition=bottom;labelBackgroundColor=#ffffff;imageAspect=0;aspect=fixed;image=https://cdn2.iconfinder.com/data/icons/competitive-strategy-and-corporate-training/512/705_Automation_factory_hand_mechanism_package-128.png;shadow=0;dashed=0;fillColor=#E6E6E6;fontColor=#FFFFFF;" parent="-RvLXp1pWWfajbZVR07f-28" vertex="1">
          <mxGeometry x="240" width="70" height="70" as="geometry" />
        </mxCell>
        <mxCell id="-RvLXp1pWWfajbZVR07f-23" value="" style="shape=image;html=1;verticalAlign=top;verticalLabelPosition=bottom;labelBackgroundColor=#ffffff;imageAspect=0;aspect=fixed;image=https://cdn2.iconfinder.com/data/icons/competitive-strategy-and-corporate-training/512/705_Automation_factory_hand_mechanism_package-128.png;shadow=0;dashed=0;fillColor=#E6E6E6;fontColor=#FFFFFF;" parent="-RvLXp1pWWfajbZVR07f-28" vertex="1">
          <mxGeometry x="160" width="70" height="70" as="geometry" />
        </mxCell>
        <mxCell id="3fsoEWonqgJnVwwGpHkL-4" value="&lt;font style=&quot;background-color: rgb(255 , 255 , 255)&quot; size=&quot;1&quot;&gt;&lt;b style=&quot;font-size: 12px&quot;&gt;VLAN: &lt;br&gt;Facility Group&lt;br&gt;&lt;/b&gt;&lt;/font&gt;" style="text;html=1;align=center;verticalAlign=middle;resizable=0;points=[];autosize=1;fontSize=12;fontColor=#000000;labelBackgroundColor=#ffffff;" parent="-RvLXp1pWWfajbZVR07f-28" vertex="1">
          <mxGeometry x="250.00113702623912" y="80.0016956521738" width="100" height="40" as="geometry" />
        </mxCell>
        <mxCell id="-RvLXp1pWWfajbZVR07f-27" value="Manufacturing Facility" style="text;html=1;align=center;verticalAlign=middle;resizable=0;points=[];autosize=1;fontSize=12;fontColor=#000000;labelBackgroundColor=#ffffff;" parent="-RvLXp1pWWfajbZVR07f-28" vertex="1">
          <mxGeometry x="90" y="79.54999999999995" width="130" height="20" as="geometry" />
        </mxCell>
        <mxCell id="-RvLXp1pWWfajbZVR07f-19" value="" style="shape=image;html=1;verticalAlign=top;verticalLabelPosition=bottom;labelBackgroundColor=#ffffff;imageAspect=0;aspect=fixed;image=https://cdn2.iconfinder.com/data/icons/competitive-strategy-and-corporate-training/512/705_Automation_factory_hand_mechanism_package-128.png;shadow=0;dashed=0;fillColor=#E6E6E6;fontColor=#FFFFFF;" parent="-RvLXp1pWWfajbZVR07f-28" vertex="1">
          <mxGeometry x="80" width="70" height="70" as="geometry" />
        </mxCell>
        <mxCell id="40vxavE0q52EdHZP9TQ0-1" style="edgeStyle=none;rounded=0;orthogonalLoop=1;jettySize=auto;html=1;endArrow=none;endFill=0;fontSize=12;fontColor=#000000;strokeColor=#FF8000;strokeWidth=2;" parent="RAIZJpcT9ia0xnAVukXc-1" source="m4dTVVSOKDjZEtIVwKJh-0" target="40vxavE0q52EdHZP9TQ0-0" edge="1">
          <mxGeometry relative="1" as="geometry" />
        </mxCell>
        <mxCell id="BLoogOVAfIrTMPOBQc6R-5" style="edgeStyle=none;rounded=0;orthogonalLoop=1;jettySize=auto;html=1;endArrow=none;endFill=0;fontSize=12;fontColor=#000000;strokeColor=#FF8000;strokeWidth=2;" parent="RAIZJpcT9ia0xnAVukXc-1" source="m4dTVVSOKDjZEtIVwKJh-0" target="BLoogOVAfIrTMPOBQc6R-4" edge="1">
          <mxGeometry relative="1" as="geometry" />
        </mxCell>
        <mxCell id="BLoogOVAfIrTMPOBQc6R-3" style="edgeStyle=none;rounded=0;orthogonalLoop=1;jettySize=auto;html=1;endArrow=none;endFill=0;fontSize=12;fontColor=#000000;strokeColor=#007FFF;strokeWidth=4;" parent="RAIZJpcT9ia0xnAVukXc-1" source="40vxavE0q52EdHZP9TQ0-0" target="BLoogOVAfIrTMPOBQc6R-0" edge="1">
          <mxGeometry relative="1" as="geometry" />
        </mxCell>
        <mxCell id="dmjbSOnmuh-c49Ak6gwg-0" style="edgeStyle=none;rounded=0;orthogonalLoop=1;jettySize=auto;html=1;endArrow=none;endFill=0;strokeColor=#FF8000;strokeWidth=2;fontColor=#000000;" parent="RAIZJpcT9ia0xnAVukXc-1" source="40vxavE0q52EdHZP9TQ0-0" target="vnIVXOKVOxg8UwXb7cvk-0" edge="1">
          <mxGeometry relative="1" as="geometry" />
        </mxCell>
        <mxCell id="40vxavE0q52EdHZP9TQ0-0" value="Backbone Switch&lt;br&gt;10Gbps/10Gbps" style="shape=mxgraph.cisco.switches.atm_fast_gigabit_etherswitch;html=1;pointerEvents=1;dashed=0;fillColor=#036897;strokeColor=#ffffff;strokeWidth=2;verticalLabelPosition=bottom;verticalAlign=top;align=center;outlineConnect=0;labelBackgroundColor=#ffffff;fontSize=12;fontColor=#000000;" parent="RAIZJpcT9ia0xnAVukXc-1" vertex="1">
          <mxGeometry x="422" y="1078" width="64" height="64" as="geometry" />
        </mxCell>
        <mxCell id="BLoogOVAfIrTMPOBQc6R-2" value="" style="group" parent="RAIZJpcT9ia0xnAVukXc-1" vertex="1" connectable="0">
          <mxGeometry x="180" y="969" width="186" height="106" as="geometry" />
        </mxCell>
        <mxCell id="BLoogOVAfIrTMPOBQc6R-0" value="" style="shape=mxgraph.cisco.storage.cloud;html=1;pointerEvents=1;dashed=0;fillColor=#036897;strokeColor=#ffffff;strokeWidth=2;verticalLabelPosition=bottom;verticalAlign=top;align=center;outlineConnect=0;labelBackgroundColor=#ffffff;fontSize=12;fontColor=#000000;" parent="BLoogOVAfIrTMPOBQc6R-2" vertex="1">
          <mxGeometry width="186" height="106" as="geometry" />
        </mxCell>
        <mxCell id="BLoogOVAfIrTMPOBQc6R-1" value="&lt;font style=&quot;font-size: 36px&quot; color=&quot;#ffffff&quot;&gt;ISP&lt;/font&gt;" style="text;html=1;align=center;verticalAlign=middle;resizable=0;points=[];autosize=1;fontSize=12;fontColor=#000000;" parent="BLoogOVAfIrTMPOBQc6R-2" vertex="1">
          <mxGeometry x="58" y="38" width="70" height="30" as="geometry" />
        </mxCell>
        <mxCell id="BLoogOVAfIrTMPOBQc6R-6" style="edgeStyle=none;rounded=0;orthogonalLoop=1;jettySize=auto;html=1;endArrow=none;endFill=0;fontSize=12;fontColor=#000000;strokeColor=#007FFF;strokeWidth=4;" parent="RAIZJpcT9ia0xnAVukXc-1" source="BLoogOVAfIrTMPOBQc6R-4" target="BLoogOVAfIrTMPOBQc6R-0" edge="1">
          <mxGeometry relative="1" as="geometry" />
        </mxCell>
        <mxCell id="BLoogOVAfIrTMPOBQc6R-7" style="edgeStyle=none;rounded=0;orthogonalLoop=1;jettySize=auto;html=1;endArrow=none;endFill=0;fontSize=12;fontColor=#000000;strokeColor=#007FFF;strokeWidth=4;" parent="RAIZJpcT9ia0xnAVukXc-1" source="BLoogOVAfIrTMPOBQc6R-4" target="40vxavE0q52EdHZP9TQ0-0" edge="1">
          <mxGeometry relative="1" as="geometry" />
        </mxCell>
        <mxCell id="dmjbSOnmuh-c49Ak6gwg-1" style="edgeStyle=none;rounded=0;orthogonalLoop=1;jettySize=auto;html=1;endArrow=none;endFill=0;strokeColor=#FF8000;strokeWidth=2;fontColor=#000000;" parent="RAIZJpcT9ia0xnAVukXc-1" source="BLoogOVAfIrTMPOBQc6R-4" target="vnIVXOKVOxg8UwXb7cvk-0" edge="1">
          <mxGeometry relative="1" as="geometry" />
        </mxCell>
        <mxCell id="BLoogOVAfIrTMPOBQc6R-4" value="Backbone Switch (Redundancy)&lt;br&gt;10Gbps/10Gbps" style="shape=mxgraph.cisco.switches.atm_fast_gigabit_etherswitch;html=1;pointerEvents=1;dashed=0;fillColor=#036897;strokeColor=#ffffff;strokeWidth=2;verticalLabelPosition=bottom;verticalAlign=top;align=center;outlineConnect=0;labelBackgroundColor=#ffffff;fontSize=12;fontColor=#000000;" parent="RAIZJpcT9ia0xnAVukXc-1" vertex="1">
          <mxGeometry x="556" y="990" width="64" height="64" as="geometry" />
        </mxCell>
        <mxCell id="mWCPWzIxvP0kutCIwYGv-0" value="" style="group" parent="RAIZJpcT9ia0xnAVukXc-1" vertex="1" connectable="0">
          <mxGeometry x="690" y="972" width="275" height="170" as="geometry" />
        </mxCell>
        <mxCell id="mWCPWzIxvP0kutCIwYGv-1" value="" style="rounded=1;whiteSpace=wrap;html=1;labelBackgroundColor=#ffffff;fontColor=#000000;align=left;labelBorderColor=none;strokeColor=#CCCCCC;" parent="mWCPWzIxvP0kutCIwYGv-0" vertex="1">
          <mxGeometry width="275" height="170" as="geometry" />
        </mxCell>
        <mxCell id="mWCPWzIxvP0kutCIwYGv-2" style="edgeStyle=none;rounded=0;orthogonalLoop=1;jettySize=auto;html=1;endArrow=none;endFill=0;strokeWidth=3;strokeColor=#FF8000;" parent="mWCPWzIxvP0kutCIwYGv-0" edge="1">
          <mxGeometry as="geometry">
            <mxPoint x="94.99999999999997" y="55" as="sourcePoint" />
            <mxPoint x="15" y="55" as="targetPoint" />
          </mxGeometry>
        </mxCell>
        <mxCell id="mWCPWzIxvP0kutCIwYGv-3" style="edgeStyle=none;rounded=0;orthogonalLoop=1;jettySize=auto;html=1;endArrow=none;endFill=0;strokeWidth=5;strokeColor=#007FFF;" parent="mWCPWzIxvP0kutCIwYGv-0" edge="1">
          <mxGeometry as="geometry">
            <mxPoint x="15" y="86" as="sourcePoint" />
            <mxPoint x="94.99999999999997" y="86" as="targetPoint" />
          </mxGeometry>
        </mxCell>
        <mxCell id="mWCPWzIxvP0kutCIwYGv-4" style="rounded=0;orthogonalLoop=1;jettySize=auto;html=1;elbow=vertical;endArrow=none;endFill=0;" parent="mWCPWzIxvP0kutCIwYGv-0" edge="1">
          <mxGeometry as="geometry">
            <mxPoint x="15" y="26" as="sourcePoint" />
            <mxPoint x="94.99999999999997" y="26" as="targetPoint" />
          </mxGeometry>
        </mxCell>
        <mxCell id="mWCPWzIxvP0kutCIwYGv-5" value="UTP-CAT6 (1Gbps)" style="text;html=1;align=left;verticalAlign=middle;resizable=0;points=[];autosize=1;fontColor=#000000;" parent="mWCPWzIxvP0kutCIwYGv-0" vertex="1">
          <mxGeometry x="98.99999999999997" y="16" width="120" height="20" as="geometry" />
        </mxCell>
        <mxCell id="mWCPWzIxvP0kutCIwYGv-6" value="STP-CAT7 (10Gbps)" style="text;html=1;align=left;verticalAlign=middle;resizable=0;points=[];autosize=1;fontColor=#000000;" parent="mWCPWzIxvP0kutCIwYGv-0" vertex="1">
          <mxGeometry x="98.99999999999997" y="46" width="130" height="20" as="geometry" />
        </mxCell>
        <mxCell id="mWCPWzIxvP0kutCIwYGv-7" value="Single Mode Fibre (100Gbps)" style="text;html=1;align=left;verticalAlign=middle;resizable=0;points=[];autosize=1;fontColor=#000000;" parent="mWCPWzIxvP0kutCIwYGv-0" vertex="1">
          <mxGeometry x="98.99999999999997" y="75.29999999999995" width="170" height="20" as="geometry" />
        </mxCell>
        <mxCell id="mWCPWzIxvP0kutCIwYGv-8" style="edgeStyle=none;rounded=0;orthogonalLoop=1;jettySize=auto;html=1;endArrow=none;endFill=0;strokeWidth=3;fontColor=#000000;strokeColor=#FF3333;" parent="mWCPWzIxvP0kutCIwYGv-0" edge="1">
          <mxGeometry as="geometry">
            <mxPoint x="15" y="114" as="sourcePoint" />
            <mxPoint x="94.99999999999997" y="114" as="targetPoint" />
          </mxGeometry>
        </mxCell>
        <mxCell id="mWCPWzIxvP0kutCIwYGv-9" value="Encrypted UTP to Critical Net" style="text;html=1;align=left;verticalAlign=middle;resizable=0;points=[];autosize=1;fontColor=#000000;" parent="mWCPWzIxvP0kutCIwYGv-0" vertex="1">
          <mxGeometry x="98.99999999999997" y="103.29999999999995" width="170" height="20" as="geometry" />
        </mxCell>
        <mxCell id="mWCPWzIxvP0kutCIwYGv-10" style="edgeStyle=none;rounded=0;orthogonalLoop=1;jettySize=auto;html=1;endArrow=none;endFill=0;strokeWidth=3;fontColor=#000000;strokeColor=#FF3333;dashed=1;dashPattern=1 1;" parent="mWCPWzIxvP0kutCIwYGv-0" edge="1">
          <mxGeometry x="-1" y="26" as="geometry">
            <mxPoint x="14" y="140" as="sourcePoint" />
            <mxPoint x="93.99999999999997" y="140" as="targetPoint" />
          </mxGeometry>
        </mxCell>
        <mxCell id="mWCPWzIxvP0kutCIwYGv-11" value="Logical VPN Connection" style="text;html=1;align=left;verticalAlign=middle;resizable=0;points=[];autosize=1;fontColor=#000000;" parent="mWCPWzIxvP0kutCIwYGv-0" vertex="1">
          <mxGeometry x="98.99999999999997" y="130" width="150" height="20" as="geometry" />
        </mxCell>
        <mxCell id="vnIVXOKVOxg8UwXb7cvk-4" style="edgeStyle=none;rounded=0;orthogonalLoop=1;jettySize=auto;html=1;endArrow=none;endFill=0;strokeColor=#FF8000;strokeWidth=2;exitX=0.98;exitY=0.5;exitDx=0;exitDy=0;exitPerimeter=0;" parent="RAIZJpcT9ia0xnAVukXc-1" source="m4dTVVSOKDjZEtIVwKJh-0" target="vnIVXOKVOxg8UwXb7cvk-0" edge="1">
          <mxGeometry relative="1" as="geometry" />
        </mxCell>
        <mxCell id="vnIVXOKVOxg8UwXb7cvk-0" value="POE Switch Router&lt;br&gt;1Gbps/10Gbps" style="shape=mxgraph.cisco.switches.workgroup_switch;html=1;pointerEvents=1;dashed=0;fillColor=#036897;strokeColor=#ffffff;strokeWidth=2;verticalLabelPosition=bottom;verticalAlign=top;align=center;outlineConnect=0;labelBackgroundColor=#ffffff;" parent="RAIZJpcT9ia0xnAVukXc-1" vertex="1">
          <mxGeometry x="430" y="1200" width="101" height="50" as="geometry" />
        </mxCell>
        <mxCell id="RPgtPNgpf2uLghUG7uce-12" style="edgeStyle=none;rounded=0;orthogonalLoop=1;jettySize=auto;html=1;endArrow=none;endFill=0;strokeColor=#000000;strokeWidth=1;fontColor=#000000;" parent="RAIZJpcT9ia0xnAVukXc-1" source="vnIVXOKVOxg8UwXb7cvk-0" target="RPgtPNgpf2uLghUG7uce-6" edge="1">
          <mxGeometry relative="1" as="geometry" />
        </mxCell>
        <mxCell id="RPgtPNgpf2uLghUG7uce-13" style="edgeStyle=none;rounded=0;orthogonalLoop=1;jettySize=auto;html=1;endArrow=none;endFill=0;strokeColor=#000000;strokeWidth=1;fontColor=#000000;" parent="RAIZJpcT9ia0xnAVukXc-1" source="vnIVXOKVOxg8UwXb7cvk-0" target="RPgtPNgpf2uLghUG7uce-7" edge="1">
          <mxGeometry relative="1" as="geometry" />
        </mxCell>
        <mxCell id="RPgtPNgpf2uLghUG7uce-14" style="edgeStyle=none;rounded=0;orthogonalLoop=1;jettySize=auto;html=1;endArrow=none;endFill=0;strokeColor=#000000;strokeWidth=1;fontColor=#000000;" parent="RAIZJpcT9ia0xnAVukXc-1" source="vnIVXOKVOxg8UwXb7cvk-0" target="RPgtPNgpf2uLghUG7uce-5" edge="1">
          <mxGeometry relative="1" as="geometry" />
        </mxCell>
        <mxCell id="RPgtPNgpf2uLghUG7uce-15" style="edgeStyle=none;rounded=0;orthogonalLoop=1;jettySize=auto;html=1;endArrow=none;endFill=0;strokeColor=#000000;strokeWidth=1;fontColor=#000000;" parent="RAIZJpcT9ia0xnAVukXc-1" source="vnIVXOKVOxg8UwXb7cvk-0" target="RPgtPNgpf2uLghUG7uce-4" edge="1">
          <mxGeometry relative="1" as="geometry" />
        </mxCell>
        <mxCell id="RPgtPNgpf2uLghUG7uce-3" value="&lt;font style=&quot;background-color: rgb(255 , 255 , 255)&quot; size=&quot;1&quot;&gt;&lt;b style=&quot;font-size: 12px&quot;&gt;VLAN:&lt;br&gt;&lt;div&gt;&lt;b&gt;Surveillance Group&lt;/b&gt;&lt;/div&gt;&lt;/b&gt;&lt;/font&gt;" style="text;html=1;align=left;verticalAlign=middle;resizable=0;points=[];autosize=1;fontSize=12;fontColor=#000000;labelBackgroundColor=#ffffff;" parent="RAIZJpcT9ia0xnAVukXc-1" vertex="1">
          <mxGeometry x="199.9963017730384" y="1142.0016956521738" width="130" height="30" as="geometry" />
        </mxCell>
        <mxCell id="RPgtPNgpf2uLghUG7uce-4" value="" style="points=[];aspect=fixed;html=1;align=center;shadow=0;dashed=0;image;image=img/lib/allied_telesis/security/Surveillance_Camera_Ceiling.svg;fontSize=12;fontColor=#000000;" parent="RAIZJpcT9ia0xnAVukXc-1" vertex="1">
          <mxGeometry x="219.9960326086956" y="1255.15" width="37.20000000000001" height="35.400000000000006" as="geometry" />
        </mxCell>
        <mxCell id="RPgtPNgpf2uLghUG7uce-5" value="" style="points=[];aspect=fixed;html=1;align=center;shadow=0;dashed=0;image;image=img/lib/allied_telesis/security/Surveillance_Camera_Ceiling.svg;fontSize=12;fontColor=#000000;" parent="RAIZJpcT9ia0xnAVukXc-1" vertex="1">
          <mxGeometry x="219.99913043478264" y="1192.15" width="37.20000000000001" height="35.400000000000006" as="geometry" />
        </mxCell>
        <mxCell id="RPgtPNgpf2uLghUG7uce-8" value="Outdoor" style="text;html=1;align=center;verticalAlign=middle;resizable=0;points=[];autosize=1;fontColor=#000000;" parent="RAIZJpcT9ia0xnAVukXc-1" vertex="1">
          <mxGeometry x="208.6" y="1302.15" width="60" height="20" as="geometry" />
        </mxCell>
        <mxCell id="RPgtPNgpf2uLghUG7uce-9" value="Indoor" style="text;html=1;align=center;verticalAlign=middle;resizable=0;points=[];autosize=1;fontColor=#000000;" parent="RAIZJpcT9ia0xnAVukXc-1" vertex="1">
          <mxGeometry x="286.01" y="1302.15" width="50" height="20" as="geometry" />
        </mxCell>
        <mxCell id="RPgtPNgpf2uLghUG7uce-10" value="Surveillance" style="text;html=1;align=center;verticalAlign=middle;resizable=0;points=[];autosize=1;fontColor=#000000;labelBackgroundColor=#ffffff;" parent="RAIZJpcT9ia0xnAVukXc-1" vertex="1">
          <mxGeometry x="231.3" y="1330.3000000000002" width="80" height="20" as="geometry" />
        </mxCell>
        <mxCell id="RPgtPNgpf2uLghUG7uce-7" value="" style="points=[];aspect=fixed;html=1;align=center;shadow=0;dashed=0;image;image=img/lib/allied_telesis/security/Surveillance_Camera_Ceiling.svg;fontSize=12;fontColor=#000000;" parent="RAIZJpcT9ia0xnAVukXc-1" vertex="1">
          <mxGeometry x="292.40913043478264" y="1255.15" width="37.20000000000001" height="35.400000000000006" as="geometry" />
        </mxCell>
        <mxCell id="RPgtPNgpf2uLghUG7uce-6" value="" style="points=[];aspect=fixed;html=1;align=center;shadow=0;dashed=0;image;image=img/lib/allied_telesis/security/Surveillance_Camera_Ceiling.svg;fontSize=12;fontColor=#000000;" parent="RAIZJpcT9ia0xnAVukXc-1" vertex="1">
          <mxGeometry x="292.40913043478264" y="1192.15" width="37.20000000000001" height="35.400000000000006" as="geometry" />
        </mxCell>
        <mxCell id="1MxvUE7uG66Ad9kFWABK-11" style="edgeStyle=none;rounded=0;orthogonalLoop=1;jettySize=auto;html=1;endArrow=none;endFill=0;strokeColor=#000000;strokeWidth=1;fontColor=#000000;" parent="RAIZJpcT9ia0xnAVukXc-1" source="m4dTVVSOKDjZEtIVwKJh-0" target="1MxvUE7uG66Ad9kFWABK-1" edge="1">
          <mxGeometry relative="1" as="geometry" />
        </mxCell>
        <mxCell id="1MxvUE7uG66Ad9kFWABK-12" style="edgeStyle=none;rounded=0;orthogonalLoop=1;jettySize=auto;html=1;endArrow=none;endFill=0;strokeColor=#000000;strokeWidth=1;fontColor=#000000;" parent="RAIZJpcT9ia0xnAVukXc-1" source="m4dTVVSOKDjZEtIVwKJh-0" target="1MxvUE7uG66Ad9kFWABK-8" edge="1">
          <mxGeometry relative="1" as="geometry" />
        </mxCell>
        <mxCell id="m4dTVVSOKDjZEtIVwKJh-0" value="Switch Router&lt;br&gt;1Gbps/10Gbps" style="shape=mxgraph.cisco.switches.workgroup_switch;html=1;pointerEvents=1;dashed=0;fillColor=#036897;strokeColor=#ffffff;strokeWidth=2;verticalLabelPosition=bottom;verticalAlign=top;align=center;outlineConnect=0;labelBackgroundColor=#ffffff;" parent="RAIZJpcT9ia0xnAVukXc-1" vertex="1">
          <mxGeometry x="610" y="1200" width="101" height="50" as="geometry" />
        </mxCell>
        <mxCell id="1MxvUE7uG66Ad9kFWABK-1" value="Indoor Wireless AP&lt;br&gt;5GHz, 9.6Gbps, Wifi6" style="shape=mxgraph.cisco.routers.wireless_router;html=1;pointerEvents=1;dashed=0;fillColor=#036897;strokeColor=#ffffff;strokeWidth=2;verticalLabelPosition=bottom;verticalAlign=top;align=center;outlineConnect=0;labelBackgroundColor=#ffffff;fontSize=12;fontColor=#000000;" parent="RAIZJpcT9ia0xnAVukXc-1" vertex="1">
          <mxGeometry x="725" y="1315.75" width="50" height="57.5" as="geometry" />
        </mxCell>
        <mxCell id="1MxvUE7uG66Ad9kFWABK-2" style="edgeStyle=none;rounded=0;orthogonalLoop=1;jettySize=auto;html=1;endArrow=none;endFill=0;fontSize=12;fontColor=#000000;dashed=1;strokeWidth=2;" parent="RAIZJpcT9ia0xnAVukXc-1" source="1MxvUE7uG66Ad9kFWABK-1" target="1MxvUE7uG66Ad9kFWABK-4" edge="1">
          <mxGeometry x="655" y="1287.5" as="geometry" />
        </mxCell>
        <mxCell id="1MxvUE7uG66Ad9kFWABK-3" value="Non-critical Public Network" style="text;html=1;align=center;verticalAlign=middle;resizable=0;points=[];autosize=1;fontSize=12;fontColor=#000000;labelBackgroundColor=#ffffff;fontStyle=1" parent="RAIZJpcT9ia0xnAVukXc-1" vertex="1">
          <mxGeometry x="742.5" y="1295.55" width="170" height="20" as="geometry" />
        </mxCell>
        <mxCell id="1MxvUE7uG66Ad9kFWABK-4" value="" style="pointerEvents=1;shadow=0;dashed=0;html=1;strokeColor=none;fillColor=#505050;labelPosition=center;verticalLabelPosition=bottom;verticalAlign=top;outlineConnect=0;align=center;shape=mxgraph.office.devices.cell_phone_android_standalone;labelBackgroundColor=#ffffff;fontSize=12;fontColor=#000000;" parent="RAIZJpcT9ia0xnAVukXc-1" vertex="1">
          <mxGeometry x="876" y="1323.5" width="24" height="44" as="geometry" />
        </mxCell>
        <mxCell id="1MxvUE7uG66Ad9kFWABK-5" value="" style="shape=image;html=1;verticalAlign=top;verticalLabelPosition=bottom;labelBackgroundColor=#ffffff;imageAspect=0;aspect=fixed;image=https://cdn3.iconfinder.com/data/icons/construction-293/32/Construction_constructor_hat_helmet_protection_worker-128.png;fillColor=#E6E6E6;fontSize=12;fontColor=#000000;" parent="RAIZJpcT9ia0xnAVukXc-1" vertex="1">
          <mxGeometry x="906" y="1321" width="49" height="49" as="geometry" />
        </mxCell>
        <mxCell id="1MxvUE7uG66Ad9kFWABK-6" value="Staff" style="text;html=1;align=center;verticalAlign=middle;resizable=0;points=[];autosize=1;fontSize=12;fontColor=#000000;labelBackgroundColor=#ffffff;" parent="RAIZJpcT9ia0xnAVukXc-1" vertex="1">
          <mxGeometry x="886" y="1482.65" width="40" height="20" as="geometry" />
        </mxCell>
        <mxCell id="1MxvUE7uG66Ad9kFWABK-7" style="edgeStyle=none;rounded=0;orthogonalLoop=1;jettySize=auto;html=1;endArrow=none;endFill=0;strokeWidth=2;fontColor=#000000;dashed=1;" parent="RAIZJpcT9ia0xnAVukXc-1" source="1MxvUE7uG66Ad9kFWABK-8" target="1MxvUE7uG66Ad9kFWABK-9" edge="1">
          <mxGeometry relative="1" as="geometry" />
        </mxCell>
        <mxCell id="1MxvUE7uG66Ad9kFWABK-8" value="Outdoor Wireless AP&lt;br&gt;2.4GHz, 9.6Gbps, Wifi6" style="shape=mxgraph.cisco.routers.wireless_router;html=1;pointerEvents=1;dashed=0;fillColor=#036897;strokeColor=#ffffff;strokeWidth=2;verticalLabelPosition=bottom;verticalAlign=top;align=center;outlineConnect=0;labelBackgroundColor=#ffffff;fontSize=12;fontColor=#000000;" parent="RAIZJpcT9ia0xnAVukXc-1" vertex="1">
          <mxGeometry x="725" y="1417.2" width="50" height="57.5" as="geometry" />
        </mxCell>
        <mxCell id="1MxvUE7uG66Ad9kFWABK-9" value="" style="pointerEvents=1;shadow=0;dashed=0;html=1;strokeColor=none;fillColor=#505050;labelPosition=center;verticalLabelPosition=bottom;verticalAlign=top;outlineConnect=0;align=center;shape=mxgraph.office.devices.cell_phone_android_standalone;labelBackgroundColor=#ffffff;fontSize=12;fontColor=#000000;" parent="RAIZJpcT9ia0xnAVukXc-1" vertex="1">
          <mxGeometry x="876" y="1423.95" width="24" height="44" as="geometry" />
        </mxCell>
        <mxCell id="1MxvUE7uG66Ad9kFWABK-10" value="" style="shape=image;html=1;verticalAlign=top;verticalLabelPosition=bottom;labelBackgroundColor=#ffffff;imageAspect=0;aspect=fixed;image=https://cdn3.iconfinder.com/data/icons/construction-293/32/Construction_constructor_hat_helmet_protection_worker-128.png;fillColor=#E6E6E6;fontSize=12;fontColor=#000000;" parent="RAIZJpcT9ia0xnAVukXc-1" vertex="1">
          <mxGeometry x="906" y="1421.45" width="49" height="49" as="geometry" />
        </mxCell>
        <mxCell id="gfqRhCFQRdkBZW6nVYV3-2" style="rounded=0;orthogonalLoop=1;jettySize=auto;html=1;fontColor=#FF0000;endArrow=none;endFill=0;" edge="1" parent="RAIZJpcT9ia0xnAVukXc-1" source="gfqRhCFQRdkBZW6nVYV3-0" target="m4dTVVSOKDjZEtIVwKJh-0">
          <mxGeometry relative="1" as="geometry" />
        </mxCell>
        <mxCell id="gfqRhCFQRdkBZW6nVYV3-3" style="edgeStyle=none;rounded=0;orthogonalLoop=1;jettySize=auto;html=1;endArrow=none;endFill=0;fontColor=#FF0000;dashed=1;strokeWidth=2;" edge="1" parent="RAIZJpcT9ia0xnAVukXc-1" source="gfqRhCFQRdkBZW6nVYV3-0" target="-RvLXp1pWWfajbZVR07f-4">
          <mxGeometry relative="1" as="geometry" />
        </mxCell>
        <mxCell id="gfqRhCFQRdkBZW6nVYV3-4" style="edgeStyle=none;rounded=0;orthogonalLoop=1;jettySize=auto;html=1;endArrow=none;endFill=0;fontColor=#FF0000;dashed=1;strokeWidth=2;" edge="1" parent="RAIZJpcT9ia0xnAVukXc-1" source="gfqRhCFQRdkBZW6nVYV3-0" target="-RvLXp1pWWfajbZVR07f-19">
          <mxGeometry relative="1" as="geometry" />
        </mxCell>
        <mxCell id="gfqRhCFQRdkBZW6nVYV3-5" style="edgeStyle=none;rounded=0;orthogonalLoop=1;jettySize=auto;html=1;endArrow=none;endFill=0;fontColor=#FF0000;dashed=1;strokeWidth=2;" edge="1" parent="RAIZJpcT9ia0xnAVukXc-1" source="gfqRhCFQRdkBZW6nVYV3-0" target="-RvLXp1pWWfajbZVR07f-23">
          <mxGeometry relative="1" as="geometry" />
        </mxCell>
        <mxCell id="gfqRhCFQRdkBZW6nVYV3-6" style="edgeStyle=none;rounded=0;orthogonalLoop=1;jettySize=auto;html=1;endArrow=none;endFill=0;fontColor=#FF0000;dashed=1;strokeWidth=2;" edge="1" parent="RAIZJpcT9ia0xnAVukXc-1" source="gfqRhCFQRdkBZW6nVYV3-0" target="-RvLXp1pWWfajbZVR07f-22">
          <mxGeometry relative="1" as="geometry" />
        </mxCell>
        <mxCell id="gfqRhCFQRdkBZW6nVYV3-0" value="6LoWPan Router" style="shape=mxgraph.cisco.routers.wireless_router;html=1;pointerEvents=1;dashed=0;fillColor=#036897;strokeColor=#ffffff;strokeWidth=2;verticalLabelPosition=bottom;verticalAlign=top;align=center;outlineConnect=0;labelBackgroundColor=#ffffff;fontSize=12;fontColor=#000000;" vertex="1" parent="RAIZJpcT9ia0xnAVukXc-1">
          <mxGeometry x="535" y="1283.3999999999999" width="50" height="57.5" as="geometry" />
        </mxCell>
      </root>
    </mxGraphModel>
  </diagram>
  <diagram id="cpmZCC5Oprr2ZXbexLu2" name="RDC">
    <mxGraphModel dx="1422" dy="-52" grid="1" gridSize="10" guides="1" tooltips="1" connect="1" arrows="1" fold="1" page="1" pageScale="1" pageWidth="1169" pageHeight="827" math="0" shadow="0">
      <root>
        <mxCell id="uzLA5QX6dGq-AKEPzL09-0" />
        <mxCell id="uzLA5QX6dGq-AKEPzL09-1" parent="uzLA5QX6dGq-AKEPzL09-0" />
        <mxCell id="vGmyYpGahynu5idJg-cL-0" value="" style="rounded=1;whiteSpace=wrap;html=1;fontSize=12;fontColor=#000000;strokeColor=none;fillColor=#E6E6E6;opacity=70;" parent="uzLA5QX6dGq-AKEPzL09-1" vertex="1">
          <mxGeometry x="696.3" y="1160" width="310" height="230" as="geometry" />
        </mxCell>
        <mxCell id="DywPEPtaeExcg18AdxtG-0" value="" style="rounded=1;whiteSpace=wrap;html=1;fontSize=12;fillColor=#f8cecc;opacity=70;strokeColor=none;" parent="uzLA5QX6dGq-AKEPzL09-1" vertex="1">
          <mxGeometry x="170" y="1114.3999999999999" width="182.6" height="219.30000000000007" as="geometry" />
        </mxCell>
        <mxCell id="DywPEPtaeExcg18AdxtG-1" value="" style="rounded=1;whiteSpace=wrap;html=1;labelBackgroundColor=none;fontColor=#000000;opacity=70;" parent="uzLA5QX6dGq-AKEPzL09-1" vertex="1">
          <mxGeometry x="271.01" y="1168.05" width="60" height="136.5" as="geometry" />
        </mxCell>
        <mxCell id="DywPEPtaeExcg18AdxtG-2" value="" style="rounded=1;whiteSpace=wrap;html=1;labelBackgroundColor=none;fontColor=#000000;opacity=70;" parent="uzLA5QX6dGq-AKEPzL09-1" vertex="1">
          <mxGeometry x="198.6" y="1168.05" width="60" height="136.5" as="geometry" />
        </mxCell>
        <mxCell id="j8oJ3JueoRFll1rhwUHG-4" style="edgeStyle=none;rounded=0;orthogonalLoop=1;jettySize=auto;html=1;exitX=0.98;exitY=0.5;exitDx=0;exitDy=0;exitPerimeter=0;entryX=0.98;entryY=0.5;entryDx=0;entryDy=0;entryPerimeter=0;endArrow=none;endFill=0;strokeWidth=2;strokeColor=#FF8000;" parent="uzLA5QX6dGq-AKEPzL09-1" source="j8oJ3JueoRFll1rhwUHG-0" target="PKOOLPWBtXEluYSXQ1Ge-25" edge="1">
          <mxGeometry relative="1" as="geometry" />
        </mxCell>
        <mxCell id="j8oJ3JueoRFll1rhwUHG-5" style="edgeStyle=none;rounded=0;orthogonalLoop=1;jettySize=auto;html=1;exitX=0.87;exitY=0.74;exitDx=0;exitDy=0;exitPerimeter=0;entryX=0.87;entryY=0.74;entryDx=0;entryDy=0;entryPerimeter=0;endArrow=none;endFill=0;strokeWidth=2;strokeColor=#FF8000;" parent="uzLA5QX6dGq-AKEPzL09-1" source="j8oJ3JueoRFll1rhwUHG-0" target="PKOOLPWBtXEluYSXQ1Ge-25" edge="1">
          <mxGeometry relative="1" as="geometry" />
        </mxCell>
        <mxCell id="JKYLaqoofUDc7rcCDnns-12" value="" style="rounded=1;whiteSpace=wrap;html=1;labelBackgroundColor=#ffffff;fillColor=#dae8fc;fontSize=12;opacity=70;strokeColor=#FF0000;" parent="uzLA5QX6dGq-AKEPzL09-1" vertex="1">
          <mxGeometry x="846.3" y="898.7" width="160" height="178" as="geometry" />
        </mxCell>
        <mxCell id="JKYLaqoofUDc7rcCDnns-13" value="&lt;b&gt;VLAN:&lt;br&gt;Security Work Group&lt;br&gt;&lt;/b&gt;" style="text;html=1;align=center;verticalAlign=middle;resizable=0;points=[];autosize=1;labelBackgroundColor=#ffffff;" parent="uzLA5QX6dGq-AKEPzL09-1" vertex="1">
          <mxGeometry x="856.3" y="902.7" width="140" height="30" as="geometry" />
        </mxCell>
        <mxCell id="PKOOLPWBtXEluYSXQ1Ge-14" value="" style="group" parent="uzLA5QX6dGq-AKEPzL09-1" vertex="1" connectable="0">
          <mxGeometry x="190" y="1440" width="360" height="140" as="geometry" />
        </mxCell>
        <mxCell id="PKOOLPWBtXEluYSXQ1Ge-15" value="" style="rounded=1;whiteSpace=wrap;html=1;labelBackgroundColor=#ffffff;fillColor=#d5e8d4;fontSize=12;opacity=70;strokeColor=none;" parent="PKOOLPWBtXEluYSXQ1Ge-14" vertex="1">
          <mxGeometry x="-20" y="-10" width="260" height="150" as="geometry" />
        </mxCell>
        <mxCell id="UmpknB4mM6dv-x1jonzb-1" value="Foundry Control Centre" style="points=[];aspect=fixed;html=1;align=center;shadow=0;dashed=0;image;image=img/lib/allied_telesis/computer_and_terminals/Personal_Computer.svg;labelBackgroundColor=#ffffff;fillColor=#E6E6E6;fontSize=12;fontColor=#000000;" parent="PKOOLPWBtXEluYSXQ1Ge-14" vertex="1">
          <mxGeometry x="131.2" y="10" width="45.6" height="61.800000000000004" as="geometry" />
        </mxCell>
        <mxCell id="PKOOLPWBtXEluYSXQ1Ge-20" value="&lt;b&gt;VLAN:&amp;nbsp;&lt;br&gt;Facility Group&lt;/b&gt;" style="text;html=1;align=center;verticalAlign=middle;resizable=0;points=[];autosize=1;fontSize=12;fontColor=#000000;labelBackgroundColor=#ffffff;" parent="PKOOLPWBtXEluYSXQ1Ge-14" vertex="1">
          <mxGeometry x="60.00113702623911" y="105.0016956521738" width="100" height="30" as="geometry" />
        </mxCell>
        <mxCell id="2I7SPlQqBjEWn6ZdRsQT-11" value="Foundry Monitor" style="points=[];aspect=fixed;html=1;align=center;shadow=0;dashed=0;image;image=img/lib/allied_telesis/computer_and_terminals/IP_TV.svg;labelBackgroundColor=#ffffff;fillColor=#E6E6E6;fontSize=12;fontColor=#000000;" parent="PKOOLPWBtXEluYSXQ1Ge-14" vertex="1">
          <mxGeometry x="20" y="21.70000000000009" width="49.199999999999996" height="50.4" as="geometry" />
        </mxCell>
        <mxCell id="PKOOLPWBtXEluYSXQ1Ge-23" style="edgeStyle=none;rounded=0;orthogonalLoop=1;jettySize=auto;html=1;exitX=0.5;exitY=0;exitDx=0;exitDy=0;exitPerimeter=0;endArrow=none;endFill=0;fontSize=12;fontColor=#000000;strokeColor=#FF8000;strokeWidth=3;" parent="uzLA5QX6dGq-AKEPzL09-1" source="PKOOLPWBtXEluYSXQ1Ge-25" target="PKOOLPWBtXEluYSXQ1Ge-37" edge="1">
          <mxGeometry relative="1" as="geometry" />
        </mxCell>
        <mxCell id="PKOOLPWBtXEluYSXQ1Ge-24" style="edgeStyle=none;rounded=0;orthogonalLoop=1;jettySize=auto;html=1;endArrow=none;endFill=0;fontSize=12;fontColor=#000000;strokeColor=#FF8000;strokeWidth=3;" parent="uzLA5QX6dGq-AKEPzL09-1" source="PKOOLPWBtXEluYSXQ1Ge-25" target="PKOOLPWBtXEluYSXQ1Ge-43" edge="1">
          <mxGeometry relative="1" as="geometry" />
        </mxCell>
        <mxCell id="UmpknB4mM6dv-x1jonzb-3" style="edgeStyle=none;rounded=0;orthogonalLoop=1;jettySize=auto;html=1;endArrow=none;endFill=0;strokeWidth=1;fontSize=12;fontColor=#000000;" parent="uzLA5QX6dGq-AKEPzL09-1" source="PKOOLPWBtXEluYSXQ1Ge-25" target="UmpknB4mM6dv-x1jonzb-1" edge="1">
          <mxGeometry relative="1" as="geometry" />
        </mxCell>
        <mxCell id="2I7SPlQqBjEWn6ZdRsQT-7" style="edgeStyle=none;rounded=0;orthogonalLoop=1;jettySize=auto;html=1;endArrow=none;endFill=0;strokeWidth=1;fontSize=12;fontColor=#000000;" parent="uzLA5QX6dGq-AKEPzL09-1" source="PKOOLPWBtXEluYSXQ1Ge-25" target="2I7SPlQqBjEWn6ZdRsQT-6" edge="1">
          <mxGeometry relative="1" as="geometry" />
        </mxCell>
        <mxCell id="2I7SPlQqBjEWn6ZdRsQT-12" style="edgeStyle=none;rounded=0;orthogonalLoop=1;jettySize=auto;html=1;endArrow=none;endFill=0;strokeWidth=1;fontSize=12;fontColor=#000000;" parent="uzLA5QX6dGq-AKEPzL09-1" source="PKOOLPWBtXEluYSXQ1Ge-25" target="2I7SPlQqBjEWn6ZdRsQT-11" edge="1">
          <mxGeometry relative="1" as="geometry" />
        </mxCell>
        <mxCell id="vGmyYpGahynu5idJg-cL-11" style="edgeStyle=none;rounded=0;orthogonalLoop=1;jettySize=auto;html=1;endArrow=none;endFill=0;strokeColor=#000000;strokeWidth=1;fontColor=#000000;" parent="uzLA5QX6dGq-AKEPzL09-1" source="PKOOLPWBtXEluYSXQ1Ge-25" target="vGmyYpGahynu5idJg-cL-1" edge="1">
          <mxGeometry relative="1" as="geometry" />
        </mxCell>
        <mxCell id="vGmyYpGahynu5idJg-cL-12" style="edgeStyle=none;rounded=0;orthogonalLoop=1;jettySize=auto;html=1;endArrow=none;endFill=0;strokeColor=#000000;strokeWidth=1;fontColor=#000000;" parent="uzLA5QX6dGq-AKEPzL09-1" source="PKOOLPWBtXEluYSXQ1Ge-25" target="vGmyYpGahynu5idJg-cL-8" edge="1">
          <mxGeometry relative="1" as="geometry" />
        </mxCell>
        <mxCell id="PKOOLPWBtXEluYSXQ1Ge-25" value="Switch Router&lt;br&gt;1Gbps/10Gbps" style="shape=mxgraph.cisco.switches.workgroup_switch;html=1;pointerEvents=1;dashed=0;fillColor=#036897;strokeColor=#ffffff;strokeWidth=2;verticalLabelPosition=bottom;verticalAlign=top;align=center;outlineConnect=0;labelBackgroundColor=#ffffff;" parent="uzLA5QX6dGq-AKEPzL09-1" vertex="1">
          <mxGeometry x="542.0000000000001" y="1193.7" width="101" height="50" as="geometry" />
        </mxCell>
        <mxCell id="PKOOLPWBtXEluYSXQ1Ge-36" style="edgeStyle=none;rounded=0;orthogonalLoop=1;jettySize=auto;html=1;endArrow=none;endFill=0;fontSize=12;fontColor=#000000;strokeColor=#007FFF;strokeWidth=4;" parent="uzLA5QX6dGq-AKEPzL09-1" source="PKOOLPWBtXEluYSXQ1Ge-37" target="PKOOLPWBtXEluYSXQ1Ge-39" edge="1">
          <mxGeometry relative="1" as="geometry" />
        </mxCell>
        <mxCell id="mhb9kk-lv9f_aEbRoMx0-0" style="edgeStyle=none;rounded=0;orthogonalLoop=1;jettySize=auto;html=1;endArrow=none;endFill=0;strokeWidth=2;fontColor=#000000;strokeColor=#FF8000;" parent="uzLA5QX6dGq-AKEPzL09-1" source="PKOOLPWBtXEluYSXQ1Ge-37" target="j8oJ3JueoRFll1rhwUHG-0" edge="1">
          <mxGeometry relative="1" as="geometry" />
        </mxCell>
        <mxCell id="PKOOLPWBtXEluYSXQ1Ge-37" value="Backbone Switch&lt;br&gt;10Gbps/10Gbps" style="shape=mxgraph.cisco.switches.atm_fast_gigabit_etherswitch;html=1;pointerEvents=1;dashed=0;fillColor=#036897;strokeColor=#ffffff;strokeWidth=2;verticalLabelPosition=bottom;verticalAlign=top;align=center;outlineConnect=0;labelBackgroundColor=#ffffff;fontSize=12;fontColor=#000000;" parent="uzLA5QX6dGq-AKEPzL09-1" vertex="1">
          <mxGeometry x="468" y="1032.7" width="64" height="64" as="geometry" />
        </mxCell>
        <mxCell id="PKOOLPWBtXEluYSXQ1Ge-38" value="" style="group" parent="uzLA5QX6dGq-AKEPzL09-1" vertex="1" connectable="0">
          <mxGeometry x="492" y="898.7" width="186" height="106" as="geometry" />
        </mxCell>
        <mxCell id="PKOOLPWBtXEluYSXQ1Ge-39" value="" style="shape=mxgraph.cisco.storage.cloud;html=1;pointerEvents=1;dashed=0;fillColor=#036897;strokeColor=#ffffff;strokeWidth=2;verticalLabelPosition=bottom;verticalAlign=top;align=center;outlineConnect=0;labelBackgroundColor=#ffffff;fontSize=12;fontColor=#000000;" parent="PKOOLPWBtXEluYSXQ1Ge-38" vertex="1">
          <mxGeometry width="186" height="106" as="geometry" />
        </mxCell>
        <mxCell id="PKOOLPWBtXEluYSXQ1Ge-40" value="&lt;font style=&quot;font-size: 36px&quot; color=&quot;#ffffff&quot;&gt;ISP&lt;/font&gt;" style="text;html=1;align=center;verticalAlign=middle;resizable=0;points=[];autosize=1;fontSize=12;fontColor=#000000;" parent="PKOOLPWBtXEluYSXQ1Ge-38" vertex="1">
          <mxGeometry x="58" y="38" width="70" height="30" as="geometry" />
        </mxCell>
        <mxCell id="PKOOLPWBtXEluYSXQ1Ge-41" style="edgeStyle=none;rounded=0;orthogonalLoop=1;jettySize=auto;html=1;endArrow=none;endFill=0;fontSize=12;fontColor=#000000;strokeColor=#007FFF;strokeWidth=4;" parent="uzLA5QX6dGq-AKEPzL09-1" source="PKOOLPWBtXEluYSXQ1Ge-43" target="PKOOLPWBtXEluYSXQ1Ge-39" edge="1">
          <mxGeometry relative="1" as="geometry" />
        </mxCell>
        <mxCell id="PKOOLPWBtXEluYSXQ1Ge-42" style="edgeStyle=none;rounded=0;orthogonalLoop=1;jettySize=auto;html=1;endArrow=none;endFill=0;fontSize=12;fontColor=#000000;strokeColor=#007FFF;strokeWidth=4;" parent="uzLA5QX6dGq-AKEPzL09-1" source="PKOOLPWBtXEluYSXQ1Ge-43" target="PKOOLPWBtXEluYSXQ1Ge-37" edge="1">
          <mxGeometry relative="1" as="geometry" />
        </mxCell>
        <mxCell id="mhb9kk-lv9f_aEbRoMx0-1" style="edgeStyle=none;rounded=0;orthogonalLoop=1;jettySize=auto;html=1;endArrow=none;endFill=0;strokeWidth=2;fontColor=#000000;strokeColor=#FF8000;" parent="uzLA5QX6dGq-AKEPzL09-1" source="PKOOLPWBtXEluYSXQ1Ge-43" target="j8oJ3JueoRFll1rhwUHG-0" edge="1">
          <mxGeometry relative="1" as="geometry" />
        </mxCell>
        <mxCell id="PKOOLPWBtXEluYSXQ1Ge-43" value="Backbone Switch (Redundancy)&lt;br&gt;10Gbps/10Gbps" style="shape=mxgraph.cisco.switches.atm_fast_gigabit_etherswitch;html=1;pointerEvents=1;dashed=0;fillColor=#036897;strokeColor=#ffffff;strokeWidth=2;verticalLabelPosition=bottom;verticalAlign=top;align=center;outlineConnect=0;labelBackgroundColor=#ffffff;fontSize=12;fontColor=#000000;" parent="uzLA5QX6dGq-AKEPzL09-1" vertex="1">
          <mxGeometry x="634.6" y="1032.7" width="64" height="64" as="geometry" />
        </mxCell>
        <mxCell id="2I7SPlQqBjEWn6ZdRsQT-0" value="" style="group" parent="uzLA5QX6dGq-AKEPzL09-1" vertex="1" connectable="0">
          <mxGeometry x="564.6" y="1340.45" width="55.799999999999955" height="89.90000000000009" as="geometry" />
        </mxCell>
        <mxCell id="2I7SPlQqBjEWn6ZdRsQT-1" value="VPN Server" style="points=[];aspect=fixed;html=1;align=center;shadow=0;dashed=0;image;image=img/lib/allied_telesis/security/Router_VPN.svg;labelBackgroundColor=#ffffff;strokeColor=#CCCCCC;fontColor=#000000;" parent="2I7SPlQqBjEWn6ZdRsQT-0" vertex="1">
          <mxGeometry y="50.30000000000007" width="55.800000000000004" height="39.6" as="geometry" />
        </mxCell>
        <mxCell id="2I7SPlQqBjEWn6ZdRsQT-2" value="" style="points=[];aspect=fixed;html=1;align=center;shadow=0;dashed=0;image;image=img/lib/allied_telesis/security/Router_VPN.svg;labelBackgroundColor=#ffffff;strokeColor=#CCCCCC;fontColor=#000000;" parent="2I7SPlQqBjEWn6ZdRsQT-0" vertex="1">
          <mxGeometry y="40.30000000000007" width="55.800000000000004" height="39.6" as="geometry" />
        </mxCell>
        <mxCell id="2I7SPlQqBjEWn6ZdRsQT-3" value="" style="points=[];aspect=fixed;html=1;align=center;shadow=0;dashed=0;image;image=img/lib/allied_telesis/security/Router_VPN.svg;labelBackgroundColor=#ffffff;strokeColor=#CCCCCC;fontColor=#000000;" parent="2I7SPlQqBjEWn6ZdRsQT-0" vertex="1">
          <mxGeometry y="30.300000000000068" width="55.800000000000004" height="39.6" as="geometry" />
        </mxCell>
        <mxCell id="2I7SPlQqBjEWn6ZdRsQT-4" value="" style="points=[];aspect=fixed;html=1;align=center;shadow=0;dashed=0;image;image=img/lib/allied_telesis/security/Router_VPN.svg;labelBackgroundColor=#ffffff;strokeColor=#CCCCCC;fontColor=#000000;" parent="2I7SPlQqBjEWn6ZdRsQT-0" vertex="1">
          <mxGeometry y="20.300000000000068" width="55.800000000000004" height="39.6" as="geometry" />
        </mxCell>
        <mxCell id="2I7SPlQqBjEWn6ZdRsQT-5" value="" style="points=[];aspect=fixed;html=1;align=center;shadow=0;dashed=0;image;image=img/lib/allied_telesis/security/Router_VPN.svg;labelBackgroundColor=#ffffff;strokeColor=#CCCCCC;fontColor=#000000;" parent="2I7SPlQqBjEWn6ZdRsQT-0" vertex="1">
          <mxGeometry y="10.700000000000045" width="55.800000000000004" height="39.6" as="geometry" />
        </mxCell>
        <mxCell id="2I7SPlQqBjEWn6ZdRsQT-6" value="" style="points=[];aspect=fixed;html=1;align=center;shadow=0;dashed=0;image;image=img/lib/allied_telesis/security/Router_VPN.svg;labelBackgroundColor=#ffffff;strokeColor=#CCCCCC;fontColor=#000000;" parent="2I7SPlQqBjEWn6ZdRsQT-0" vertex="1">
          <mxGeometry width="55.800000000000004" height="39.6" as="geometry" />
        </mxCell>
        <mxCell id="2I7SPlQqBjEWn6ZdRsQT-16" style="edgeStyle=none;rounded=0;orthogonalLoop=1;jettySize=auto;html=1;endArrow=none;endFill=0;strokeWidth=2;fontSize=12;fontColor=#000000;strokeColor=#FF3333;" parent="uzLA5QX6dGq-AKEPzL09-1" source="2I7SPlQqBjEWn6ZdRsQT-4" target="2I7SPlQqBjEWn6ZdRsQT-8" edge="1">
          <mxGeometry relative="1" as="geometry" />
        </mxCell>
        <mxCell id="_eqKx9DpVrF572wAnKCA-1" style="edgeStyle=none;rounded=0;orthogonalLoop=1;jettySize=auto;html=1;exitX=1;exitY=0.5;exitDx=0;exitDy=0;exitPerimeter=0;endArrow=classic;endFill=1;" parent="uzLA5QX6dGq-AKEPzL09-1" source="PKOOLPWBtXEluYSXQ1Ge-43" target="PKOOLPWBtXEluYSXQ1Ge-43" edge="1">
          <mxGeometry relative="1" as="geometry" />
        </mxCell>
        <mxCell id="_eqKx9DpVrF572wAnKCA-4" style="edgeStyle=none;rounded=0;orthogonalLoop=1;jettySize=auto;html=1;endArrow=none;endFill=0;strokeColor=#FF3333;dashed=1;dashPattern=1 2;strokeWidth=3;" parent="uzLA5QX6dGq-AKEPzL09-1" source="_eqKx9DpVrF572wAnKCA-2" target="2I7SPlQqBjEWn6ZdRsQT-6" edge="1">
          <mxGeometry relative="1" as="geometry" />
        </mxCell>
        <mxCell id="YRrkfkFdQ2vtM7Lbx5JC-0" value="VPN Link" style="edgeLabel;html=1;align=center;verticalAlign=middle;resizable=0;points=[];fontColor=#FF0000;fontStyle=1" vertex="1" connectable="0" parent="_eqKx9DpVrF572wAnKCA-4">
          <mxGeometry x="-0.4972" y="-3" relative="1" as="geometry">
            <mxPoint as="offset" />
          </mxGeometry>
        </mxCell>
        <mxCell id="_eqKx9DpVrF572wAnKCA-2" value="Off-site Designer" style="shape=mxgraph.cisco.people.androgenous_person;html=1;pointerEvents=1;dashed=0;fillColor=#036897;strokeColor=#ffffff;strokeWidth=2;verticalLabelPosition=bottom;verticalAlign=top;align=center;outlineConnect=0;labelBackgroundColor=#ffffff;" parent="uzLA5QX6dGq-AKEPzL09-1" vertex="1">
          <mxGeometry x="891.8" y="940" width="69" height="82" as="geometry" />
        </mxCell>
        <mxCell id="_eqKx9DpVrF572wAnKCA-3" style="edgeStyle=none;rounded=0;orthogonalLoop=1;jettySize=auto;html=1;endArrow=none;endFill=0;" parent="uzLA5QX6dGq-AKEPzL09-1" source="PKOOLPWBtXEluYSXQ1Ge-39" target="_eqKx9DpVrF572wAnKCA-2" edge="1">
          <mxGeometry relative="1" as="geometry" />
        </mxCell>
        <mxCell id="zZt9tMm8bVeeNF8q_sQn-0" value="" style="group" parent="uzLA5QX6dGq-AKEPzL09-1" vertex="1" connectable="0">
          <mxGeometry x="170" y="902.7" width="275" height="170" as="geometry" />
        </mxCell>
        <mxCell id="JKYLaqoofUDc7rcCDnns-1" value="" style="rounded=1;whiteSpace=wrap;html=1;labelBackgroundColor=#ffffff;fontColor=#000000;align=left;labelBorderColor=none;strokeColor=#CCCCCC;" parent="zZt9tMm8bVeeNF8q_sQn-0" vertex="1">
          <mxGeometry width="275" height="170" as="geometry" />
        </mxCell>
        <mxCell id="JKYLaqoofUDc7rcCDnns-2" style="edgeStyle=none;rounded=0;orthogonalLoop=1;jettySize=auto;html=1;endArrow=none;endFill=0;strokeWidth=3;strokeColor=#FF8000;" parent="zZt9tMm8bVeeNF8q_sQn-0" edge="1">
          <mxGeometry as="geometry">
            <mxPoint x="94.99999999999997" y="55" as="sourcePoint" />
            <mxPoint x="15" y="55" as="targetPoint" />
          </mxGeometry>
        </mxCell>
        <mxCell id="JKYLaqoofUDc7rcCDnns-3" style="edgeStyle=none;rounded=0;orthogonalLoop=1;jettySize=auto;html=1;endArrow=none;endFill=0;strokeWidth=5;strokeColor=#007FFF;" parent="zZt9tMm8bVeeNF8q_sQn-0" edge="1">
          <mxGeometry as="geometry">
            <mxPoint x="15" y="86" as="sourcePoint" />
            <mxPoint x="94.99999999999997" y="86" as="targetPoint" />
          </mxGeometry>
        </mxCell>
        <mxCell id="JKYLaqoofUDc7rcCDnns-4" style="rounded=0;orthogonalLoop=1;jettySize=auto;html=1;elbow=vertical;endArrow=none;endFill=0;" parent="zZt9tMm8bVeeNF8q_sQn-0" edge="1">
          <mxGeometry as="geometry">
            <mxPoint x="15" y="26" as="sourcePoint" />
            <mxPoint x="94.99999999999997" y="26" as="targetPoint" />
          </mxGeometry>
        </mxCell>
        <mxCell id="JKYLaqoofUDc7rcCDnns-5" value="UTP-CAT6 (1Gbps)" style="text;html=1;align=left;verticalAlign=middle;resizable=0;points=[];autosize=1;fontColor=#000000;" parent="zZt9tMm8bVeeNF8q_sQn-0" vertex="1">
          <mxGeometry x="98.99999999999997" y="16" width="120" height="20" as="geometry" />
        </mxCell>
        <mxCell id="JKYLaqoofUDc7rcCDnns-6" value="STP-CAT7 (10Gbps)" style="text;html=1;align=left;verticalAlign=middle;resizable=0;points=[];autosize=1;fontColor=#000000;" parent="zZt9tMm8bVeeNF8q_sQn-0" vertex="1">
          <mxGeometry x="98.99999999999997" y="46" width="130" height="20" as="geometry" />
        </mxCell>
        <mxCell id="JKYLaqoofUDc7rcCDnns-7" value="Single Mode Fibre (100Gbps)" style="text;html=1;align=left;verticalAlign=middle;resizable=0;points=[];autosize=1;fontColor=#000000;" parent="zZt9tMm8bVeeNF8q_sQn-0" vertex="1">
          <mxGeometry x="98.99999999999997" y="75.29999999999995" width="170" height="20" as="geometry" />
        </mxCell>
        <mxCell id="JKYLaqoofUDc7rcCDnns-8" style="edgeStyle=none;rounded=0;orthogonalLoop=1;jettySize=auto;html=1;endArrow=none;endFill=0;strokeWidth=3;fontColor=#000000;strokeColor=#FF3333;" parent="zZt9tMm8bVeeNF8q_sQn-0" edge="1">
          <mxGeometry as="geometry">
            <mxPoint x="15" y="114" as="sourcePoint" />
            <mxPoint x="94.99999999999997" y="114" as="targetPoint" />
          </mxGeometry>
        </mxCell>
        <mxCell id="JKYLaqoofUDc7rcCDnns-9" value="Encrypted UTP to Critical Net" style="text;html=1;align=left;verticalAlign=middle;resizable=0;points=[];autosize=1;fontColor=#000000;" parent="zZt9tMm8bVeeNF8q_sQn-0" vertex="1">
          <mxGeometry x="98.99999999999997" y="103.29999999999995" width="170" height="20" as="geometry" />
        </mxCell>
        <mxCell id="JKYLaqoofUDc7rcCDnns-10" style="edgeStyle=none;rounded=0;orthogonalLoop=1;jettySize=auto;html=1;endArrow=none;endFill=0;strokeWidth=3;fontColor=#000000;strokeColor=#FF3333;dashed=1;dashPattern=1 1;" parent="zZt9tMm8bVeeNF8q_sQn-0" edge="1">
          <mxGeometry x="-1" y="26" as="geometry">
            <mxPoint x="14" y="140" as="sourcePoint" />
            <mxPoint x="93.99999999999997" y="140" as="targetPoint" />
          </mxGeometry>
        </mxCell>
        <mxCell id="JKYLaqoofUDc7rcCDnns-11" value="Logical VPN Connection" style="text;html=1;align=left;verticalAlign=middle;resizable=0;points=[];autosize=1;fontColor=#000000;" parent="zZt9tMm8bVeeNF8q_sQn-0" vertex="1">
          <mxGeometry x="98.99999999999997" y="130" width="150" height="20" as="geometry" />
        </mxCell>
        <mxCell id="DywPEPtaeExcg18AdxtG-11" style="edgeStyle=none;rounded=0;orthogonalLoop=1;jettySize=auto;html=1;endArrow=none;endFill=0;strokeColor=#000000;strokeWidth=1;fontColor=#000000;" parent="uzLA5QX6dGq-AKEPzL09-1" source="j8oJ3JueoRFll1rhwUHG-0" target="DywPEPtaeExcg18AdxtG-5" edge="1">
          <mxGeometry relative="1" as="geometry" />
        </mxCell>
        <mxCell id="DywPEPtaeExcg18AdxtG-12" style="edgeStyle=none;rounded=0;orthogonalLoop=1;jettySize=auto;html=1;endArrow=none;endFill=0;strokeColor=#000000;strokeWidth=1;fontColor=#000000;" parent="uzLA5QX6dGq-AKEPzL09-1" source="j8oJ3JueoRFll1rhwUHG-0" target="DywPEPtaeExcg18AdxtG-6" edge="1">
          <mxGeometry relative="1" as="geometry" />
        </mxCell>
        <mxCell id="DywPEPtaeExcg18AdxtG-13" style="edgeStyle=none;rounded=0;orthogonalLoop=1;jettySize=auto;html=1;endArrow=none;endFill=0;strokeColor=#000000;strokeWidth=1;fontColor=#000000;" parent="uzLA5QX6dGq-AKEPzL09-1" source="j8oJ3JueoRFll1rhwUHG-0" target="DywPEPtaeExcg18AdxtG-4" edge="1">
          <mxGeometry relative="1" as="geometry" />
        </mxCell>
        <mxCell id="DywPEPtaeExcg18AdxtG-14" style="edgeStyle=none;rounded=0;orthogonalLoop=1;jettySize=auto;html=1;endArrow=none;endFill=0;strokeColor=#000000;strokeWidth=1;fontColor=#000000;" parent="uzLA5QX6dGq-AKEPzL09-1" source="j8oJ3JueoRFll1rhwUHG-0" target="DywPEPtaeExcg18AdxtG-7" edge="1">
          <mxGeometry relative="1" as="geometry" />
        </mxCell>
        <mxCell id="j8oJ3JueoRFll1rhwUHG-0" value="POE Switch Router&lt;br&gt;1Gbps/10Gbps" style="shape=mxgraph.cisco.switches.workgroup_switch;html=1;pointerEvents=1;dashed=0;fillColor=#036897;strokeColor=#ffffff;strokeWidth=2;verticalLabelPosition=bottom;verticalAlign=top;align=center;outlineConnect=0;labelBackgroundColor=#ffffff;" parent="uzLA5QX6dGq-AKEPzL09-1" vertex="1">
          <mxGeometry x="400" y="1191" width="101" height="50" as="geometry" />
        </mxCell>
        <mxCell id="DywPEPtaeExcg18AdxtG-3" value="&lt;b style=&quot;text-align: left&quot;&gt;VLAN:&lt;br&gt;&lt;div&gt;&lt;b&gt;Surveillance Group&lt;/b&gt;&lt;/div&gt;&lt;/b&gt;" style="text;html=1;align=center;verticalAlign=middle;resizable=0;points=[];autosize=1;fontSize=12;fontColor=#000000;labelBackgroundColor=#ffffff;" parent="uzLA5QX6dGq-AKEPzL09-1" vertex="1">
          <mxGeometry x="167.4063017730384" y="1128.0516956521737" width="130" height="30" as="geometry" />
        </mxCell>
        <mxCell id="DywPEPtaeExcg18AdxtG-4" value="" style="points=[];aspect=fixed;html=1;align=center;shadow=0;dashed=0;image;image=img/lib/allied_telesis/security/Surveillance_Camera_Ceiling.svg;fontSize=12;fontColor=#000000;" parent="uzLA5QX6dGq-AKEPzL09-1" vertex="1">
          <mxGeometry x="209.9960326086956" y="1238.55" width="37.20000000000001" height="35.400000000000006" as="geometry" />
        </mxCell>
        <mxCell id="DywPEPtaeExcg18AdxtG-5" value="" style="points=[];aspect=fixed;html=1;align=center;shadow=0;dashed=0;image;image=img/lib/allied_telesis/security/Surveillance_Camera_Ceiling.svg;fontSize=12;fontColor=#000000;" parent="uzLA5QX6dGq-AKEPzL09-1" vertex="1">
          <mxGeometry x="209.99913043478264" y="1175.55" width="37.20000000000001" height="35.400000000000006" as="geometry" />
        </mxCell>
        <mxCell id="DywPEPtaeExcg18AdxtG-6" value="" style="points=[];aspect=fixed;html=1;align=center;shadow=0;dashed=0;image;image=img/lib/allied_telesis/security/Surveillance_Camera_Ceiling.svg;fontSize=12;fontColor=#000000;" parent="uzLA5QX6dGq-AKEPzL09-1" vertex="1">
          <mxGeometry x="282.40913043478264" y="1175.55" width="37.20000000000001" height="35.400000000000006" as="geometry" />
        </mxCell>
        <mxCell id="DywPEPtaeExcg18AdxtG-7" value="" style="points=[];aspect=fixed;html=1;align=center;shadow=0;dashed=0;image;image=img/lib/allied_telesis/security/Surveillance_Camera_Ceiling.svg;fontSize=12;fontColor=#000000;" parent="uzLA5QX6dGq-AKEPzL09-1" vertex="1">
          <mxGeometry x="282.40913043478264" y="1238.55" width="37.20000000000001" height="35.400000000000006" as="geometry" />
        </mxCell>
        <mxCell id="DywPEPtaeExcg18AdxtG-8" value="Outdoor" style="text;html=1;align=center;verticalAlign=middle;resizable=0;points=[];autosize=1;fontColor=#000000;" parent="uzLA5QX6dGq-AKEPzL09-1" vertex="1">
          <mxGeometry x="198.6" y="1285.55" width="60" height="20" as="geometry" />
        </mxCell>
        <mxCell id="DywPEPtaeExcg18AdxtG-9" value="Indoor" style="text;html=1;align=center;verticalAlign=middle;resizable=0;points=[];autosize=1;fontColor=#000000;" parent="uzLA5QX6dGq-AKEPzL09-1" vertex="1">
          <mxGeometry x="276.01" y="1285.55" width="50" height="20" as="geometry" />
        </mxCell>
        <mxCell id="DywPEPtaeExcg18AdxtG-10" value="Surveillance" style="text;html=1;align=center;verticalAlign=middle;resizable=0;points=[];autosize=1;fontColor=#000000;labelBackgroundColor=#ffffff;" parent="uzLA5QX6dGq-AKEPzL09-1" vertex="1">
          <mxGeometry x="221.3" y="1313.7" width="80" height="20" as="geometry" />
        </mxCell>
        <mxCell id="vGmyYpGahynu5idJg-cL-1" value="Indoor Wireless AP&lt;br&gt;5GHz, 9.6Gbps, Wifi6" style="shape=mxgraph.cisco.routers.wireless_router;html=1;pointerEvents=1;dashed=0;fillColor=#036897;strokeColor=#ffffff;strokeWidth=2;verticalLabelPosition=bottom;verticalAlign=top;align=center;outlineConnect=0;labelBackgroundColor=#ffffff;fontSize=12;fontColor=#000000;" parent="uzLA5QX6dGq-AKEPzL09-1" vertex="1">
          <mxGeometry x="750" y="1188.25" width="50" height="57.5" as="geometry" />
        </mxCell>
        <mxCell id="vGmyYpGahynu5idJg-cL-2" style="edgeStyle=none;rounded=0;orthogonalLoop=1;jettySize=auto;html=1;endArrow=none;endFill=0;fontSize=12;fontColor=#000000;dashed=1;strokeWidth=2;" parent="uzLA5QX6dGq-AKEPzL09-1" source="vGmyYpGahynu5idJg-cL-1" target="vGmyYpGahynu5idJg-cL-4" edge="1">
          <mxGeometry x="680" y="1160" as="geometry" />
        </mxCell>
        <mxCell id="vGmyYpGahynu5idJg-cL-3" value="Non-critical Public Network" style="text;html=1;align=center;verticalAlign=middle;resizable=0;points=[];autosize=1;fontSize=12;fontColor=#000000;labelBackgroundColor=#ffffff;fontStyle=1" parent="uzLA5QX6dGq-AKEPzL09-1" vertex="1">
          <mxGeometry x="788.5" y="1164.05" width="170" height="20" as="geometry" />
        </mxCell>
        <mxCell id="vGmyYpGahynu5idJg-cL-4" value="" style="pointerEvents=1;shadow=0;dashed=0;html=1;strokeColor=none;fillColor=#505050;labelPosition=center;verticalLabelPosition=bottom;verticalAlign=top;outlineConnect=0;align=center;shape=mxgraph.office.devices.cell_phone_android_standalone;labelBackgroundColor=#ffffff;fontSize=12;fontColor=#000000;" parent="uzLA5QX6dGq-AKEPzL09-1" vertex="1">
          <mxGeometry x="901" y="1196" width="24" height="44" as="geometry" />
        </mxCell>
        <mxCell id="vGmyYpGahynu5idJg-cL-5" value="" style="shape=image;html=1;verticalAlign=top;verticalLabelPosition=bottom;labelBackgroundColor=#ffffff;imageAspect=0;aspect=fixed;image=https://cdn3.iconfinder.com/data/icons/construction-293/32/Construction_constructor_hat_helmet_protection_worker-128.png;fillColor=#E6E6E6;fontSize=12;fontColor=#000000;" parent="uzLA5QX6dGq-AKEPzL09-1" vertex="1">
          <mxGeometry x="931" y="1193.5" width="49" height="49" as="geometry" />
        </mxCell>
        <mxCell id="vGmyYpGahynu5idJg-cL-6" value="Staff" style="text;html=1;align=center;verticalAlign=middle;resizable=0;points=[];autosize=1;fontSize=12;fontColor=#000000;labelBackgroundColor=#ffffff;" parent="uzLA5QX6dGq-AKEPzL09-1" vertex="1">
          <mxGeometry x="911" y="1355.15" width="40" height="20" as="geometry" />
        </mxCell>
        <mxCell id="vGmyYpGahynu5idJg-cL-7" style="edgeStyle=none;rounded=0;orthogonalLoop=1;jettySize=auto;html=1;endArrow=none;endFill=0;strokeWidth=2;fontColor=#000000;dashed=1;" parent="uzLA5QX6dGq-AKEPzL09-1" source="vGmyYpGahynu5idJg-cL-8" target="vGmyYpGahynu5idJg-cL-9" edge="1">
          <mxGeometry relative="1" as="geometry" />
        </mxCell>
        <mxCell id="vGmyYpGahynu5idJg-cL-8" value="Outdoor Wireless AP&lt;br&gt;2.4GHz, 9.6Gbps, Wifi6" style="shape=mxgraph.cisco.routers.wireless_router;html=1;pointerEvents=1;dashed=0;fillColor=#036897;strokeColor=#ffffff;strokeWidth=2;verticalLabelPosition=bottom;verticalAlign=top;align=center;outlineConnect=0;labelBackgroundColor=#ffffff;fontSize=12;fontColor=#000000;" parent="uzLA5QX6dGq-AKEPzL09-1" vertex="1">
          <mxGeometry x="750" y="1289.7" width="50" height="57.5" as="geometry" />
        </mxCell>
        <mxCell id="vGmyYpGahynu5idJg-cL-9" value="" style="pointerEvents=1;shadow=0;dashed=0;html=1;strokeColor=none;fillColor=#505050;labelPosition=center;verticalLabelPosition=bottom;verticalAlign=top;outlineConnect=0;align=center;shape=mxgraph.office.devices.cell_phone_android_standalone;labelBackgroundColor=#ffffff;fontSize=12;fontColor=#000000;" parent="uzLA5QX6dGq-AKEPzL09-1" vertex="1">
          <mxGeometry x="901" y="1296.45" width="24" height="44" as="geometry" />
        </mxCell>
        <mxCell id="vGmyYpGahynu5idJg-cL-10" value="" style="shape=image;html=1;verticalAlign=top;verticalLabelPosition=bottom;labelBackgroundColor=#ffffff;imageAspect=0;aspect=fixed;image=https://cdn3.iconfinder.com/data/icons/construction-293/32/Construction_constructor_hat_helmet_protection_worker-128.png;fillColor=#E6E6E6;fontSize=12;fontColor=#000000;" parent="uzLA5QX6dGq-AKEPzL09-1" vertex="1">
          <mxGeometry x="931" y="1293.95" width="49" height="49" as="geometry" />
        </mxCell>
        <mxCell id="vGmyYpGahynu5idJg-cL-13" value="" style="group" parent="uzLA5QX6dGq-AKEPzL09-1" vertex="1" connectable="0">
          <mxGeometry x="756.3000000000001" y="1402" width="250" height="178" as="geometry" />
        </mxCell>
        <mxCell id="2I7SPlQqBjEWn6ZdRsQT-15" value="" style="rounded=1;whiteSpace=wrap;html=1;labelBackgroundColor=#ffffff;fillColor=#dae8fc;fontSize=12;opacity=70;strokeColor=#FF0000;" parent="vGmyYpGahynu5idJg-cL-13" vertex="1">
          <mxGeometry width="250" height="178" as="geometry" />
        </mxCell>
        <mxCell id="2I7SPlQqBjEWn6ZdRsQT-8" value="" style="points=[];aspect=fixed;html=1;align=center;shadow=0;dashed=0;image;image=img/lib/allied_telesis/computer_and_terminals/Server_Desktop.svg;labelBackgroundColor=#ffffff;fillColor=#E6E6E6;fontSize=12;fontColor=#000000;" parent="vGmyYpGahynu5idJg-cL-13" vertex="1">
          <mxGeometry x="78.79999999999995" y="18" width="42.599999999999994" height="54" as="geometry" />
        </mxCell>
        <mxCell id="2I7SPlQqBjEWn6ZdRsQT-9" value="" style="points=[];aspect=fixed;html=1;align=center;shadow=0;dashed=0;image;image=img/lib/allied_telesis/computer_and_terminals/Server_Desktop.svg;labelBackgroundColor=#ffffff;fillColor=#E6E6E6;fontSize=12;fontColor=#000000;" parent="vGmyYpGahynu5idJg-cL-13" vertex="1">
          <mxGeometry x="100" y="33" width="42.599999999999994" height="54" as="geometry" />
        </mxCell>
        <mxCell id="2I7SPlQqBjEWn6ZdRsQT-10" value="" style="points=[];aspect=fixed;html=1;align=center;shadow=0;dashed=0;image;image=img/lib/allied_telesis/computer_and_terminals/Server_Desktop.svg;labelBackgroundColor=#ffffff;fillColor=#E6E6E6;fontSize=12;fontColor=#000000;" parent="vGmyYpGahynu5idJg-cL-13" vertex="1">
          <mxGeometry x="122.39999999999998" y="48" width="42.599999999999994" height="54" as="geometry" />
        </mxCell>
        <mxCell id="2I7SPlQqBjEWn6ZdRsQT-13" value="Video Conference &amp;amp; Design Server&lt;br&gt;(Encrypted)" style="text;html=1;align=center;verticalAlign=middle;resizable=0;points=[];autosize=1;fontSize=12;fontColor=#000000;labelBackgroundColor=#ffffff;" parent="vGmyYpGahynu5idJg-cL-13" vertex="1">
          <mxGeometry x="30" y="108" width="200" height="30" as="geometry" />
        </mxCell>
        <mxCell id="_eqKx9DpVrF572wAnKCA-0" value="&lt;b&gt;VLAN:&lt;br&gt;Security Work Group&lt;/b&gt;" style="text;html=1;align=center;verticalAlign=middle;resizable=0;points=[];autosize=1;labelBackgroundColor=#ffffff;" parent="vGmyYpGahynu5idJg-cL-13" vertex="1">
          <mxGeometry x="60" y="143" width="140" height="30" as="geometry" />
        </mxCell>
      </root>
    </mxGraphModel>
  </diagram>
  <diagram id="Nzpy52RFB5wY9vJfqAbn" name="Administrator Building">
    <mxGraphModel dx="1422" dy="-52" grid="1" gridSize="10" guides="1" tooltips="1" connect="1" arrows="1" fold="1" page="1" pageScale="1" pageWidth="1169" pageHeight="827" math="0" shadow="0">
      <root>
        <mxCell id="BJuQSa_UwCPsbTage6PU-0" />
        <mxCell id="BJuQSa_UwCPsbTage6PU-1" parent="BJuQSa_UwCPsbTage6PU-0" />
        <mxCell id="Ra9d1gFitnQrmyRqMjTd-3" value="" style="rounded=1;whiteSpace=wrap;html=1;fontSize=12;fillColor=#f8cecc;opacity=70;strokeColor=none;" parent="BJuQSa_UwCPsbTage6PU-1" vertex="1">
          <mxGeometry x="180" y="1098.85" width="182.6" height="219.30000000000007" as="geometry" />
        </mxCell>
        <mxCell id="i1jmTbfRxJnBSrhr6MtA-14" value="" style="rounded=1;whiteSpace=wrap;html=1;labelBackgroundColor=none;fontColor=#000000;opacity=70;" parent="BJuQSa_UwCPsbTage6PU-1" vertex="1">
          <mxGeometry x="281.01" y="1152.5" width="60" height="136.5" as="geometry" />
        </mxCell>
        <mxCell id="i1jmTbfRxJnBSrhr6MtA-13" value="" style="rounded=1;whiteSpace=wrap;html=1;labelBackgroundColor=none;fontColor=#000000;opacity=70;" parent="BJuQSa_UwCPsbTage6PU-1" vertex="1">
          <mxGeometry x="208.6" y="1152.5" width="60" height="136.5" as="geometry" />
        </mxCell>
        <mxCell id="Ra9d1gFitnQrmyRqMjTd-0" value="" style="rounded=1;whiteSpace=wrap;html=1;labelBackgroundColor=#ffffff;fillColor=#dae8fc;fontSize=12;opacity=70;strokeColor=#FF0000;" parent="BJuQSa_UwCPsbTage6PU-1" vertex="1">
          <mxGeometry x="820" y="902.7" width="160" height="178" as="geometry" />
        </mxCell>
        <mxCell id="Ra9d1gFitnQrmyRqMjTd-2" value="" style="rounded=1;whiteSpace=wrap;html=1;fontSize=12;fontColor=#000000;strokeColor=none;fillColor=#E6E6E6;opacity=70;" parent="BJuQSa_UwCPsbTage6PU-1" vertex="1">
          <mxGeometry x="670" y="1140" width="310" height="250" as="geometry" />
        </mxCell>
        <mxCell id="Ra9d1gFitnQrmyRqMjTd-50" value="" style="rounded=1;whiteSpace=wrap;html=1;labelBackgroundColor=#ffffff;fillColor=#dae8fc;fontSize=12;opacity=70;strokeColor=#FF0000;" parent="BJuQSa_UwCPsbTage6PU-1" vertex="1">
          <mxGeometry x="690" y="1420" width="290" height="142.7" as="geometry" />
        </mxCell>
        <mxCell id="i1jmTbfRxJnBSrhr6MtA-1" style="edgeStyle=none;rounded=0;orthogonalLoop=1;jettySize=auto;html=1;exitX=0.98;exitY=0.5;exitDx=0;exitDy=0;exitPerimeter=0;entryX=0.98;entryY=0.5;entryDx=0;entryDy=0;entryPerimeter=0;endArrow=none;endFill=0;strokeWidth=2;fontColor=#000000;strokeColor=#FF8000;" parent="BJuQSa_UwCPsbTage6PU-1" source="i1jmTbfRxJnBSrhr6MtA-0" target="Ra9d1gFitnQrmyRqMjTd-23" edge="1">
          <mxGeometry relative="1" as="geometry" />
        </mxCell>
        <mxCell id="i1jmTbfRxJnBSrhr6MtA-2" style="edgeStyle=none;rounded=0;orthogonalLoop=1;jettySize=auto;html=1;exitX=0.87;exitY=0.74;exitDx=0;exitDy=0;exitPerimeter=0;entryX=0.87;entryY=0.74;entryDx=0;entryDy=0;entryPerimeter=0;endArrow=none;endFill=0;strokeWidth=2;fontColor=#000000;strokeColor=#FF8000;" parent="BJuQSa_UwCPsbTage6PU-1" source="i1jmTbfRxJnBSrhr6MtA-0" target="Ra9d1gFitnQrmyRqMjTd-23" edge="1">
          <mxGeometry relative="1" as="geometry" />
        </mxCell>
        <mxCell id="Ra9d1gFitnQrmyRqMjTd-18" style="edgeStyle=none;rounded=0;orthogonalLoop=1;jettySize=auto;html=1;exitX=0.5;exitY=0;exitDx=0;exitDy=0;exitPerimeter=0;endArrow=none;endFill=0;fontSize=12;fontColor=#000000;strokeColor=#FF8000;strokeWidth=3;" parent="BJuQSa_UwCPsbTage6PU-1" source="Ra9d1gFitnQrmyRqMjTd-23" target="Ra9d1gFitnQrmyRqMjTd-35" edge="1">
          <mxGeometry relative="1" as="geometry" />
        </mxCell>
        <mxCell id="Ra9d1gFitnQrmyRqMjTd-19" style="edgeStyle=none;rounded=0;orthogonalLoop=1;jettySize=auto;html=1;endArrow=none;endFill=0;fontSize=12;fontColor=#000000;strokeColor=#FF8000;strokeWidth=3;" parent="BJuQSa_UwCPsbTage6PU-1" source="Ra9d1gFitnQrmyRqMjTd-23" target="Ra9d1gFitnQrmyRqMjTd-41" edge="1">
          <mxGeometry relative="1" as="geometry" />
        </mxCell>
        <mxCell id="Ra9d1gFitnQrmyRqMjTd-21" style="edgeStyle=none;rounded=0;orthogonalLoop=1;jettySize=auto;html=1;endArrow=none;endFill=0;strokeWidth=1;fontSize=12;fontColor=#000000;" parent="BJuQSa_UwCPsbTage6PU-1" source="Ra9d1gFitnQrmyRqMjTd-23" target="Ra9d1gFitnQrmyRqMjTd-48" edge="1">
          <mxGeometry relative="1" as="geometry" />
        </mxCell>
        <mxCell id="Ra9d1gFitnQrmyRqMjTd-34" style="edgeStyle=none;rounded=0;orthogonalLoop=1;jettySize=auto;html=1;endArrow=none;endFill=0;fontSize=12;fontColor=#000000;strokeColor=#007FFF;strokeWidth=4;" parent="BJuQSa_UwCPsbTage6PU-1" source="Ra9d1gFitnQrmyRqMjTd-35" target="Ra9d1gFitnQrmyRqMjTd-37" edge="1">
          <mxGeometry relative="1" as="geometry" />
        </mxCell>
        <mxCell id="Jw1TdScofydF_HoWTe2o-0" style="edgeStyle=none;rounded=0;orthogonalLoop=1;jettySize=auto;html=1;endArrow=none;endFill=0;strokeColor=#FF8000;strokeWidth=2;fontColor=#000000;" parent="BJuQSa_UwCPsbTage6PU-1" source="Ra9d1gFitnQrmyRqMjTd-35" target="i1jmTbfRxJnBSrhr6MtA-0" edge="1">
          <mxGeometry relative="1" as="geometry" />
        </mxCell>
        <mxCell id="Ra9d1gFitnQrmyRqMjTd-35" value="Backbone Switch&lt;br&gt;10Gbps/10Gbps" style="shape=mxgraph.cisco.switches.atm_fast_gigabit_etherswitch;html=1;pointerEvents=1;dashed=0;fillColor=#036897;strokeColor=#ffffff;strokeWidth=2;verticalLabelPosition=bottom;verticalAlign=top;align=center;outlineConnect=0;labelBackgroundColor=#ffffff;fontSize=12;fontColor=#000000;" parent="BJuQSa_UwCPsbTage6PU-1" vertex="1">
          <mxGeometry x="460" y="1032.7" width="64" height="64" as="geometry" />
        </mxCell>
        <mxCell id="Ra9d1gFitnQrmyRqMjTd-36" value="" style="group" parent="BJuQSa_UwCPsbTage6PU-1" vertex="1" connectable="0">
          <mxGeometry x="496.6000000000001" y="890" width="186" height="106" as="geometry" />
        </mxCell>
        <mxCell id="Ra9d1gFitnQrmyRqMjTd-37" value="" style="shape=mxgraph.cisco.storage.cloud;html=1;pointerEvents=1;dashed=0;fillColor=#036897;strokeColor=#ffffff;strokeWidth=2;verticalLabelPosition=bottom;verticalAlign=top;align=center;outlineConnect=0;labelBackgroundColor=#ffffff;fontSize=12;fontColor=#000000;" parent="Ra9d1gFitnQrmyRqMjTd-36" vertex="1">
          <mxGeometry width="186" height="106" as="geometry" />
        </mxCell>
        <mxCell id="Ra9d1gFitnQrmyRqMjTd-38" value="&lt;font style=&quot;font-size: 36px&quot; color=&quot;#ffffff&quot;&gt;ISP&lt;/font&gt;" style="text;html=1;align=center;verticalAlign=middle;resizable=0;points=[];autosize=1;fontSize=12;fontColor=#000000;" parent="Ra9d1gFitnQrmyRqMjTd-36" vertex="1">
          <mxGeometry x="58" y="38" width="70" height="30" as="geometry" />
        </mxCell>
        <mxCell id="Ra9d1gFitnQrmyRqMjTd-39" style="edgeStyle=none;rounded=0;orthogonalLoop=1;jettySize=auto;html=1;endArrow=none;endFill=0;fontSize=12;fontColor=#000000;strokeColor=#007FFF;strokeWidth=4;" parent="BJuQSa_UwCPsbTage6PU-1" source="Ra9d1gFitnQrmyRqMjTd-41" target="Ra9d1gFitnQrmyRqMjTd-37" edge="1">
          <mxGeometry relative="1" as="geometry" />
        </mxCell>
        <mxCell id="Ra9d1gFitnQrmyRqMjTd-40" style="edgeStyle=none;rounded=0;orthogonalLoop=1;jettySize=auto;html=1;endArrow=none;endFill=0;fontSize=12;fontColor=#000000;strokeColor=#007FFF;strokeWidth=4;" parent="BJuQSa_UwCPsbTage6PU-1" source="Ra9d1gFitnQrmyRqMjTd-41" target="Ra9d1gFitnQrmyRqMjTd-35" edge="1">
          <mxGeometry relative="1" as="geometry" />
        </mxCell>
        <mxCell id="Jw1TdScofydF_HoWTe2o-1" style="edgeStyle=none;rounded=0;orthogonalLoop=1;jettySize=auto;html=1;endArrow=none;endFill=0;strokeColor=#FF8000;strokeWidth=2;fontColor=#000000;" parent="BJuQSa_UwCPsbTage6PU-1" source="Ra9d1gFitnQrmyRqMjTd-41" target="i1jmTbfRxJnBSrhr6MtA-0" edge="1">
          <mxGeometry relative="1" as="geometry" />
        </mxCell>
        <mxCell id="Ra9d1gFitnQrmyRqMjTd-41" value="Backbone Switch (Redundancy)&lt;br&gt;10Gbps/10Gbps" style="shape=mxgraph.cisco.switches.atm_fast_gigabit_etherswitch;html=1;pointerEvents=1;dashed=0;fillColor=#036897;strokeColor=#ffffff;strokeWidth=2;verticalLabelPosition=bottom;verticalAlign=top;align=center;outlineConnect=0;labelBackgroundColor=#ffffff;fontSize=12;fontColor=#000000;" parent="BJuQSa_UwCPsbTage6PU-1" vertex="1">
          <mxGeometry x="626.6" y="1032.7" width="64" height="64" as="geometry" />
        </mxCell>
        <mxCell id="Ra9d1gFitnQrmyRqMjTd-42" value="" style="group" parent="BJuQSa_UwCPsbTage6PU-1" vertex="1" connectable="0">
          <mxGeometry x="556.6" y="1312.7" width="55.799999999999955" height="89.90000000000009" as="geometry" />
        </mxCell>
        <mxCell id="Ra9d1gFitnQrmyRqMjTd-43" value="VPN Server" style="points=[];aspect=fixed;html=1;align=center;shadow=0;dashed=0;image;image=img/lib/allied_telesis/security/Router_VPN.svg;labelBackgroundColor=#ffffff;strokeColor=#CCCCCC;fontColor=#000000;" parent="Ra9d1gFitnQrmyRqMjTd-42" vertex="1">
          <mxGeometry y="50.30000000000007" width="55.800000000000004" height="39.6" as="geometry" />
        </mxCell>
        <mxCell id="Ra9d1gFitnQrmyRqMjTd-44" value="" style="points=[];aspect=fixed;html=1;align=center;shadow=0;dashed=0;image;image=img/lib/allied_telesis/security/Router_VPN.svg;labelBackgroundColor=#ffffff;strokeColor=#CCCCCC;fontColor=#000000;" parent="Ra9d1gFitnQrmyRqMjTd-42" vertex="1">
          <mxGeometry y="40.30000000000007" width="55.800000000000004" height="39.6" as="geometry" />
        </mxCell>
        <mxCell id="Ra9d1gFitnQrmyRqMjTd-45" value="" style="points=[];aspect=fixed;html=1;align=center;shadow=0;dashed=0;image;image=img/lib/allied_telesis/security/Router_VPN.svg;labelBackgroundColor=#ffffff;strokeColor=#CCCCCC;fontColor=#000000;" parent="Ra9d1gFitnQrmyRqMjTd-42" vertex="1">
          <mxGeometry y="30.300000000000068" width="55.800000000000004" height="39.6" as="geometry" />
        </mxCell>
        <mxCell id="Ra9d1gFitnQrmyRqMjTd-46" value="" style="points=[];aspect=fixed;html=1;align=center;shadow=0;dashed=0;image;image=img/lib/allied_telesis/security/Router_VPN.svg;labelBackgroundColor=#ffffff;strokeColor=#CCCCCC;fontColor=#000000;" parent="Ra9d1gFitnQrmyRqMjTd-42" vertex="1">
          <mxGeometry y="20.300000000000068" width="55.800000000000004" height="39.6" as="geometry" />
        </mxCell>
        <mxCell id="Ra9d1gFitnQrmyRqMjTd-47" value="" style="points=[];aspect=fixed;html=1;align=center;shadow=0;dashed=0;image;image=img/lib/allied_telesis/security/Router_VPN.svg;labelBackgroundColor=#ffffff;strokeColor=#CCCCCC;fontColor=#000000;" parent="Ra9d1gFitnQrmyRqMjTd-42" vertex="1">
          <mxGeometry y="10.700000000000045" width="55.800000000000004" height="39.6" as="geometry" />
        </mxCell>
        <mxCell id="Ra9d1gFitnQrmyRqMjTd-48" value="" style="points=[];aspect=fixed;html=1;align=center;shadow=0;dashed=0;image;image=img/lib/allied_telesis/security/Router_VPN.svg;labelBackgroundColor=#ffffff;strokeColor=#CCCCCC;fontColor=#000000;" parent="Ra9d1gFitnQrmyRqMjTd-42" vertex="1">
          <mxGeometry width="55.800000000000004" height="39.6" as="geometry" />
        </mxCell>
        <mxCell id="Ra9d1gFitnQrmyRqMjTd-57" style="edgeStyle=none;rounded=0;orthogonalLoop=1;jettySize=auto;html=1;exitX=1;exitY=0.5;exitDx=0;exitDy=0;exitPerimeter=0;endArrow=classic;endFill=1;" parent="BJuQSa_UwCPsbTage6PU-1" source="Ra9d1gFitnQrmyRqMjTd-41" target="Ra9d1gFitnQrmyRqMjTd-41" edge="1">
          <mxGeometry relative="1" as="geometry" />
        </mxCell>
        <mxCell id="Ra9d1gFitnQrmyRqMjTd-60" style="edgeStyle=none;rounded=0;orthogonalLoop=1;jettySize=auto;html=1;endArrow=none;endFill=0;" parent="BJuQSa_UwCPsbTage6PU-1" source="Ra9d1gFitnQrmyRqMjTd-37" target="Ra9d1gFitnQrmyRqMjTd-59" edge="1">
          <mxGeometry relative="1" as="geometry" />
        </mxCell>
        <mxCell id="xorjEvLRfhijkcpKGZ41-2" style="edgeStyle=none;rounded=0;orthogonalLoop=1;jettySize=auto;html=1;endArrow=none;endFill=0;strokeWidth=2;fontColor=#FF8000;strokeColor=#FF3333;" parent="BJuQSa_UwCPsbTage6PU-1" source="Ra9d1gFitnQrmyRqMjTd-45" target="xorjEvLRfhijkcpKGZ41-0" edge="1">
          <mxGeometry relative="1" as="geometry" />
        </mxCell>
        <mxCell id="xorjEvLRfhijkcpKGZ41-3" style="edgeStyle=none;rounded=0;orthogonalLoop=1;jettySize=auto;html=1;endArrow=none;endFill=0;strokeWidth=2;fontColor=#FF8000;strokeColor=#FF3333;" parent="BJuQSa_UwCPsbTage6PU-1" source="Ra9d1gFitnQrmyRqMjTd-47" target="xorjEvLRfhijkcpKGZ41-1" edge="1">
          <mxGeometry relative="1" as="geometry" />
        </mxCell>
        <mxCell id="iA5z8n99lIaWz6LixOi6-5" value="" style="group" parent="BJuQSa_UwCPsbTage6PU-1" vertex="1" connectable="0">
          <mxGeometry x="170" y="1339.7" width="326.6" height="223" as="geometry" />
        </mxCell>
        <mxCell id="iA5z8n99lIaWz6LixOi6-0" value="" style="rounded=1;whiteSpace=wrap;html=1;labelBackgroundColor=#ffffff;fillColor=#E6E6E6;fontSize=12;fontColor=#000000;opacity=70;strokeColor=none;" parent="iA5z8n99lIaWz6LixOi6-5" vertex="1">
          <mxGeometry width="326.6" height="223" as="geometry" />
        </mxCell>
        <mxCell id="iA5z8n99lIaWz6LixOi6-1" value="" style="points=[];aspect=fixed;html=1;align=center;shadow=0;dashed=0;image;image=img/lib/allied_telesis/computer_and_terminals/Personal_Computer_with_Server.svg;labelBackgroundColor=#ffffff;fontColor=#FF8000;" parent="iA5z8n99lIaWz6LixOi6-5" vertex="1">
          <mxGeometry x="80.18323353293412" y="53" width="62.400000000000006" height="62.400000000000006" as="geometry" />
        </mxCell>
        <mxCell id="iA5z8n99lIaWz6LixOi6-2" value="" style="points=[];aspect=fixed;html=1;align=center;shadow=0;dashed=0;image;image=img/lib/allied_telesis/computer_and_terminals/Personal_Computer_with_Server.svg;labelBackgroundColor=#ffffff;fontColor=#FF8000;" parent="iA5z8n99lIaWz6LixOi6-5" vertex="1">
          <mxGeometry x="194.04777112441784" y="53" width="62.400000000000006" height="62.400000000000006" as="geometry" />
        </mxCell>
        <mxCell id="iA5z8n99lIaWz6LixOi6-3" value="&lt;font color=&quot;#000000&quot;&gt;Non-critical PC Connected with&lt;br&gt;Public Network&lt;br&gt;&lt;/font&gt;" style="text;html=1;align=center;verticalAlign=middle;resizable=0;points=[];autosize=1;fontColor=#FF8000;labelBackgroundColor=#ffffff;" parent="iA5z8n99lIaWz6LixOi6-5" vertex="1">
          <mxGeometry x="70.62208915502326" y="135.4000000000001" width="180" height="30" as="geometry" />
        </mxCell>
        <mxCell id="iA5z8n99lIaWz6LixOi6-4" value="Non-critical Public Network (Wired)" style="text;html=1;align=center;verticalAlign=middle;resizable=0;points=[];autosize=1;fontSize=12;fontColor=#000000;labelBackgroundColor=#ffffff;fontStyle=1" parent="iA5z8n99lIaWz6LixOi6-5" vertex="1">
          <mxGeometry x="10.213040585495651" y="193" width="220" height="20" as="geometry" />
        </mxCell>
        <mxCell id="iA5z8n99lIaWz6LixOi6-6" style="edgeStyle=none;rounded=0;orthogonalLoop=1;jettySize=auto;html=1;endArrow=none;endFill=0;strokeWidth=1;" parent="BJuQSa_UwCPsbTage6PU-1" source="Ra9d1gFitnQrmyRqMjTd-23" target="iA5z8n99lIaWz6LixOi6-1" edge="1">
          <mxGeometry relative="1" as="geometry" />
        </mxCell>
        <mxCell id="iA5z8n99lIaWz6LixOi6-7" style="edgeStyle=none;rounded=0;orthogonalLoop=1;jettySize=auto;html=1;endArrow=none;endFill=0;strokeWidth=1;" parent="BJuQSa_UwCPsbTage6PU-1" source="Ra9d1gFitnQrmyRqMjTd-23" target="iA5z8n99lIaWz6LixOi6-2" edge="1">
          <mxGeometry relative="1" as="geometry" />
        </mxCell>
        <mxCell id="FQnzImHcKnOhGjFuIoIT-0" value="" style="group" parent="BJuQSa_UwCPsbTage6PU-1" vertex="1" connectable="0">
          <mxGeometry x="162" y="902.7" width="275" height="170" as="geometry" />
        </mxCell>
        <mxCell id="Ra9d1gFitnQrmyRqMjTd-61" value="" style="rounded=1;whiteSpace=wrap;html=1;labelBackgroundColor=#ffffff;fontColor=#000000;align=left;labelBorderColor=none;strokeColor=#CCCCCC;" parent="FQnzImHcKnOhGjFuIoIT-0" vertex="1">
          <mxGeometry width="275" height="170" as="geometry" />
        </mxCell>
        <mxCell id="Ra9d1gFitnQrmyRqMjTd-62" style="edgeStyle=none;rounded=0;orthogonalLoop=1;jettySize=auto;html=1;endArrow=none;endFill=0;strokeWidth=3;strokeColor=#FF8000;" parent="FQnzImHcKnOhGjFuIoIT-0" edge="1">
          <mxGeometry as="geometry">
            <mxPoint x="95.00000000000009" y="55" as="sourcePoint" />
            <mxPoint x="15.000000000000085" y="55" as="targetPoint" />
          </mxGeometry>
        </mxCell>
        <mxCell id="Ra9d1gFitnQrmyRqMjTd-63" style="edgeStyle=none;rounded=0;orthogonalLoop=1;jettySize=auto;html=1;endArrow=none;endFill=0;strokeWidth=5;strokeColor=#007FFF;" parent="FQnzImHcKnOhGjFuIoIT-0" edge="1">
          <mxGeometry as="geometry">
            <mxPoint x="15.000000000000085" y="86" as="sourcePoint" />
            <mxPoint x="95.00000000000009" y="86" as="targetPoint" />
          </mxGeometry>
        </mxCell>
        <mxCell id="Ra9d1gFitnQrmyRqMjTd-64" style="rounded=0;orthogonalLoop=1;jettySize=auto;html=1;elbow=vertical;endArrow=none;endFill=0;" parent="FQnzImHcKnOhGjFuIoIT-0" edge="1">
          <mxGeometry as="geometry">
            <mxPoint x="15.000000000000085" y="26" as="sourcePoint" />
            <mxPoint x="95.00000000000009" y="26" as="targetPoint" />
          </mxGeometry>
        </mxCell>
        <mxCell id="Ra9d1gFitnQrmyRqMjTd-65" value="UTP-CAT6 (1Gbps)" style="text;html=1;align=left;verticalAlign=middle;resizable=0;points=[];autosize=1;fontColor=#000000;" parent="FQnzImHcKnOhGjFuIoIT-0" vertex="1">
          <mxGeometry x="98.99999999999997" y="16" width="120" height="20" as="geometry" />
        </mxCell>
        <mxCell id="Ra9d1gFitnQrmyRqMjTd-66" value="STP-CAT7 (10Gbps)" style="text;html=1;align=left;verticalAlign=middle;resizable=0;points=[];autosize=1;fontColor=#000000;" parent="FQnzImHcKnOhGjFuIoIT-0" vertex="1">
          <mxGeometry x="98.99999999999997" y="46" width="130" height="20" as="geometry" />
        </mxCell>
        <mxCell id="Ra9d1gFitnQrmyRqMjTd-67" value="Single Mode Fibre (100Gbps)" style="text;html=1;align=left;verticalAlign=middle;resizable=0;points=[];autosize=1;fontColor=#000000;" parent="FQnzImHcKnOhGjFuIoIT-0" vertex="1">
          <mxGeometry x="98.99999999999997" y="75.29999999999995" width="170" height="20" as="geometry" />
        </mxCell>
        <mxCell id="Ra9d1gFitnQrmyRqMjTd-68" style="edgeStyle=none;rounded=0;orthogonalLoop=1;jettySize=auto;html=1;endArrow=none;endFill=0;strokeWidth=3;fontColor=#000000;strokeColor=#FF3333;" parent="FQnzImHcKnOhGjFuIoIT-0" edge="1">
          <mxGeometry as="geometry">
            <mxPoint x="15.000000000000085" y="114" as="sourcePoint" />
            <mxPoint x="95.00000000000009" y="114" as="targetPoint" />
          </mxGeometry>
        </mxCell>
        <mxCell id="Ra9d1gFitnQrmyRqMjTd-69" value="Encrypted UTP to Critical Net" style="text;html=1;align=left;verticalAlign=middle;resizable=0;points=[];autosize=1;fontColor=#000000;" parent="FQnzImHcKnOhGjFuIoIT-0" vertex="1">
          <mxGeometry x="98.99999999999997" y="103.29999999999995" width="170" height="20" as="geometry" />
        </mxCell>
        <mxCell id="Ra9d1gFitnQrmyRqMjTd-70" style="edgeStyle=none;rounded=0;orthogonalLoop=1;jettySize=auto;html=1;endArrow=none;endFill=0;strokeWidth=3;fontColor=#000000;strokeColor=#FF3333;dashed=1;dashPattern=1 1;" parent="FQnzImHcKnOhGjFuIoIT-0" edge="1">
          <mxGeometry x="-1" y="26" as="geometry">
            <mxPoint x="14.000000000000085" y="140" as="sourcePoint" />
            <mxPoint x="94.00000000000009" y="140" as="targetPoint" />
          </mxGeometry>
        </mxCell>
        <mxCell id="Ra9d1gFitnQrmyRqMjTd-71" value="Logical VPN Connection" style="text;html=1;align=left;verticalAlign=middle;resizable=0;points=[];autosize=1;fontColor=#000000;" parent="FQnzImHcKnOhGjFuIoIT-0" vertex="1">
          <mxGeometry x="98.99999999999997" y="130" width="150" height="20" as="geometry" />
        </mxCell>
        <mxCell id="i1jmTbfRxJnBSrhr6MtA-0" value="POE Switch Router&lt;br&gt;1Gbps/10Gbps" style="shape=mxgraph.cisco.switches.workgroup_switch;html=1;pointerEvents=1;dashed=0;fillColor=#036897;strokeColor=#ffffff;strokeWidth=2;verticalLabelPosition=bottom;verticalAlign=top;align=center;outlineConnect=0;labelBackgroundColor=#ffffff;" parent="BJuQSa_UwCPsbTage6PU-1" vertex="1">
          <mxGeometry x="390" y="1183.5" width="101" height="50" as="geometry" />
        </mxCell>
        <mxCell id="i1jmTbfRxJnBSrhr6MtA-6" style="edgeStyle=none;rounded=0;orthogonalLoop=1;jettySize=auto;html=1;endArrow=none;endFill=0;strokeWidth=1;fontColor=#000000;" parent="BJuQSa_UwCPsbTage6PU-1" source="i1jmTbfRxJnBSrhr6MtA-0" target="Ra9d1gFitnQrmyRqMjTd-8" edge="1">
          <mxGeometry relative="1" as="geometry" />
        </mxCell>
        <mxCell id="i1jmTbfRxJnBSrhr6MtA-7" style="edgeStyle=none;rounded=0;orthogonalLoop=1;jettySize=auto;html=1;endArrow=none;endFill=0;strokeColor=#000000;strokeWidth=1;fontColor=#000000;" parent="BJuQSa_UwCPsbTage6PU-1" source="i1jmTbfRxJnBSrhr6MtA-0" target="Ra9d1gFitnQrmyRqMjTd-7" edge="1">
          <mxGeometry relative="1" as="geometry" />
        </mxCell>
        <mxCell id="i1jmTbfRxJnBSrhr6MtA-8" style="edgeStyle=none;rounded=0;orthogonalLoop=1;jettySize=auto;html=1;endArrow=none;endFill=0;strokeColor=#000000;strokeWidth=1;fontColor=#000000;" parent="BJuQSa_UwCPsbTage6PU-1" source="i1jmTbfRxJnBSrhr6MtA-0" target="Ra9d1gFitnQrmyRqMjTd-6" edge="1">
          <mxGeometry relative="1" as="geometry" />
        </mxCell>
        <mxCell id="i1jmTbfRxJnBSrhr6MtA-10" style="edgeStyle=none;rounded=0;orthogonalLoop=1;jettySize=auto;html=1;endArrow=none;endFill=0;strokeColor=#000000;strokeWidth=1;fontColor=#000000;" parent="BJuQSa_UwCPsbTage6PU-1" source="i1jmTbfRxJnBSrhr6MtA-0" target="i1jmTbfRxJnBSrhr6MtA-9" edge="1">
          <mxGeometry relative="1" as="geometry" />
        </mxCell>
        <mxCell id="9arfCHW1LlX4nxCGmjPT-4" style="edgeStyle=none;rounded=0;orthogonalLoop=1;jettySize=auto;html=1;endArrow=none;endFill=0;strokeColor=#000000;strokeWidth=1;fontColor=#000000;" parent="BJuQSa_UwCPsbTage6PU-1" source="Ra9d1gFitnQrmyRqMjTd-23" target="9arfCHW1LlX4nxCGmjPT-0" edge="1">
          <mxGeometry relative="1" as="geometry" />
        </mxCell>
        <mxCell id="Ra9d1gFitnQrmyRqMjTd-23" value="Switch Router&lt;br&gt;1Gbps/10Gbps" style="shape=mxgraph.cisco.switches.workgroup_switch;html=1;pointerEvents=1;dashed=0;fillColor=#036897;strokeColor=#ffffff;strokeWidth=2;verticalLabelPosition=bottom;verticalAlign=top;align=center;outlineConnect=0;labelBackgroundColor=#ffffff;" parent="BJuQSa_UwCPsbTage6PU-1" vertex="1">
          <mxGeometry x="534" y="1183.5" width="101" height="50" as="geometry" />
        </mxCell>
        <mxCell id="Ra9d1gFitnQrmyRqMjTd-26" value="Indoor Wireless AP&lt;br&gt;5GHz, 9.6Gbps, Wifi6" style="shape=mxgraph.cisco.routers.wireless_router;html=1;pointerEvents=1;dashed=0;fillColor=#036897;strokeColor=#ffffff;strokeWidth=2;verticalLabelPosition=bottom;verticalAlign=top;align=center;outlineConnect=0;labelBackgroundColor=#ffffff;fontSize=12;fontColor=#000000;" parent="BJuQSa_UwCPsbTage6PU-1" vertex="1">
          <mxGeometry x="740" y="1180.75" width="50" height="57.5" as="geometry" />
        </mxCell>
        <mxCell id="Ra9d1gFitnQrmyRqMjTd-24" style="edgeStyle=none;rounded=0;orthogonalLoop=1;jettySize=auto;html=1;endArrow=none;endFill=0;fontSize=12;fontColor=#000000;dashed=1;strokeWidth=2;" parent="BJuQSa_UwCPsbTage6PU-1" source="Ra9d1gFitnQrmyRqMjTd-26" target="Ra9d1gFitnQrmyRqMjTd-28" edge="1">
          <mxGeometry x="670" y="1152.5" as="geometry" />
        </mxCell>
        <mxCell id="Ra9d1gFitnQrmyRqMjTd-33" value="Non-critical Public Network (Wireless)" style="text;html=1;align=center;verticalAlign=middle;resizable=0;points=[];autosize=1;fontSize=12;fontColor=#000000;labelBackgroundColor=#ffffff;fontStyle=1" parent="BJuQSa_UwCPsbTage6PU-1" vertex="1">
          <mxGeometry x="749" y="1152.5" width="230" height="20" as="geometry" />
        </mxCell>
        <mxCell id="Ra9d1gFitnQrmyRqMjTd-17" style="edgeStyle=none;rounded=0;orthogonalLoop=1;jettySize=auto;html=1;endArrow=none;endFill=0;fontSize=12;fontColor=#000000;" parent="BJuQSa_UwCPsbTage6PU-1" source="Ra9d1gFitnQrmyRqMjTd-23" target="Ra9d1gFitnQrmyRqMjTd-26" edge="1">
          <mxGeometry relative="1" as="geometry" />
        </mxCell>
        <mxCell id="Ra9d1gFitnQrmyRqMjTd-58" style="edgeStyle=none;rounded=0;orthogonalLoop=1;jettySize=auto;html=1;endArrow=none;endFill=0;strokeColor=#FF3333;dashed=1;dashPattern=1 2;strokeWidth=3;" parent="BJuQSa_UwCPsbTage6PU-1" source="Ra9d1gFitnQrmyRqMjTd-59" target="Ra9d1gFitnQrmyRqMjTd-48" edge="1">
          <mxGeometry relative="1" as="geometry" />
        </mxCell>
        <mxCell id="Ra9d1gFitnQrmyRqMjTd-28" value="" style="pointerEvents=1;shadow=0;dashed=0;html=1;strokeColor=none;fillColor=#505050;labelPosition=center;verticalLabelPosition=bottom;verticalAlign=top;outlineConnect=0;align=center;shape=mxgraph.office.devices.cell_phone_android_standalone;labelBackgroundColor=#ffffff;fontSize=12;fontColor=#000000;" parent="BJuQSa_UwCPsbTage6PU-1" vertex="1">
          <mxGeometry x="891" y="1188.5" width="24" height="44" as="geometry" />
        </mxCell>
        <mxCell id="Ra9d1gFitnQrmyRqMjTd-29" value="" style="shape=image;html=1;verticalAlign=top;verticalLabelPosition=bottom;labelBackgroundColor=#ffffff;imageAspect=0;aspect=fixed;image=https://cdn3.iconfinder.com/data/icons/construction-293/32/Construction_constructor_hat_helmet_protection_worker-128.png;fillColor=#E6E6E6;fontSize=12;fontColor=#000000;" parent="BJuQSa_UwCPsbTage6PU-1" vertex="1">
          <mxGeometry x="921" y="1186" width="49" height="49" as="geometry" />
        </mxCell>
        <mxCell id="Ra9d1gFitnQrmyRqMjTd-31" value="Staff" style="text;html=1;align=center;verticalAlign=middle;resizable=0;points=[];autosize=1;fontSize=12;fontColor=#000000;labelBackgroundColor=#ffffff;" parent="BJuQSa_UwCPsbTage6PU-1" vertex="1">
          <mxGeometry x="901" y="1347.65" width="40" height="20" as="geometry" />
        </mxCell>
        <mxCell id="9arfCHW1LlX4nxCGmjPT-3" style="edgeStyle=none;rounded=0;orthogonalLoop=1;jettySize=auto;html=1;endArrow=none;endFill=0;strokeWidth=2;fontColor=#000000;dashed=1;" parent="BJuQSa_UwCPsbTage6PU-1" source="9arfCHW1LlX4nxCGmjPT-0" target="9arfCHW1LlX4nxCGmjPT-1" edge="1">
          <mxGeometry relative="1" as="geometry" />
        </mxCell>
        <mxCell id="9arfCHW1LlX4nxCGmjPT-0" value="Outdoor Wireless AP&lt;br&gt;2.4GHz, 9.6Gbps, Wifi6" style="shape=mxgraph.cisco.routers.wireless_router;html=1;pointerEvents=1;dashed=0;fillColor=#036897;strokeColor=#ffffff;strokeWidth=2;verticalLabelPosition=bottom;verticalAlign=top;align=center;outlineConnect=0;labelBackgroundColor=#ffffff;fontSize=12;fontColor=#000000;" parent="BJuQSa_UwCPsbTage6PU-1" vertex="1">
          <mxGeometry x="740" y="1282.2" width="50" height="57.5" as="geometry" />
        </mxCell>
        <mxCell id="Ra9d1gFitnQrmyRqMjTd-54" value="Encrypted In-office Server &amp;amp; Computer" style="text;html=1;align=center;verticalAlign=middle;resizable=0;points=[];autosize=1;fontSize=12;fontColor=#000000;labelBackgroundColor=#ffffff;" parent="BJuQSa_UwCPsbTage6PU-1" vertex="1">
          <mxGeometry x="726" y="1505.9987640449438" width="220" height="20" as="geometry" />
        </mxCell>
        <mxCell id="Ra9d1gFitnQrmyRqMjTd-55" value="&lt;b&gt;VLAN:&lt;br&gt;Security Work Group&lt;/b&gt;" style="text;html=1;align=center;verticalAlign=middle;resizable=0;points=[];autosize=1;labelBackgroundColor=#ffffff;" parent="BJuQSa_UwCPsbTage6PU-1" vertex="1">
          <mxGeometry x="765" y="1529.9640449438202" width="140" height="30" as="geometry" />
        </mxCell>
        <mxCell id="xorjEvLRfhijkcpKGZ41-0" value="" style="points=[];aspect=fixed;html=1;align=center;shadow=0;dashed=0;image;image=img/lib/allied_telesis/computer_and_terminals/Personal_Computer_with_Server.svg;labelBackgroundColor=#ffffff;fontColor=#FF8000;" parent="BJuQSa_UwCPsbTage6PU-1" vertex="1">
          <mxGeometry x="755.7" y="1440" width="54.3" height="54.3" as="geometry" />
        </mxCell>
        <mxCell id="xorjEvLRfhijkcpKGZ41-1" value="" style="points=[];aspect=fixed;html=1;align=center;shadow=0;dashed=0;image;image=img/lib/allied_telesis/computer_and_terminals/Personal_Computer_with_Server.svg;labelBackgroundColor=#ffffff;fontColor=#FF8000;" parent="BJuQSa_UwCPsbTage6PU-1" vertex="1">
          <mxGeometry x="867.35" y="1440" width="54.3" height="54.3" as="geometry" />
        </mxCell>
        <mxCell id="9arfCHW1LlX4nxCGmjPT-1" value="" style="pointerEvents=1;shadow=0;dashed=0;html=1;strokeColor=none;fillColor=#505050;labelPosition=center;verticalLabelPosition=bottom;verticalAlign=top;outlineConnect=0;align=center;shape=mxgraph.office.devices.cell_phone_android_standalone;labelBackgroundColor=#ffffff;fontSize=12;fontColor=#000000;" parent="BJuQSa_UwCPsbTage6PU-1" vertex="1">
          <mxGeometry x="891" y="1288.95" width="24" height="44" as="geometry" />
        </mxCell>
        <mxCell id="9arfCHW1LlX4nxCGmjPT-2" value="" style="shape=image;html=1;verticalAlign=top;verticalLabelPosition=bottom;labelBackgroundColor=#ffffff;imageAspect=0;aspect=fixed;image=https://cdn3.iconfinder.com/data/icons/construction-293/32/Construction_constructor_hat_helmet_protection_worker-128.png;fillColor=#E6E6E6;fontSize=12;fontColor=#000000;" parent="BJuQSa_UwCPsbTage6PU-1" vertex="1">
          <mxGeometry x="921" y="1286.45" width="49" height="49" as="geometry" />
        </mxCell>
        <mxCell id="Ra9d1gFitnQrmyRqMjTd-1" value="&lt;b&gt;VLAN:&lt;br&gt;Security Work Group&lt;/b&gt;" style="text;html=1;align=center;verticalAlign=middle;resizable=0;points=[];autosize=1;labelBackgroundColor=#ffffff;" parent="BJuQSa_UwCPsbTage6PU-1" vertex="1">
          <mxGeometry x="833" y="910" width="140" height="30" as="geometry" />
        </mxCell>
        <mxCell id="Ra9d1gFitnQrmyRqMjTd-59" value="Work from Home" style="shape=mxgraph.cisco.people.androgenous_person;html=1;pointerEvents=1;dashed=0;fillColor=#036897;strokeColor=#ffffff;strokeWidth=2;verticalLabelPosition=bottom;verticalAlign=top;align=center;outlineConnect=0;labelBackgroundColor=#ffffff;" parent="BJuQSa_UwCPsbTage6PU-1" vertex="1">
          <mxGeometry x="867.35" y="950.7" width="69" height="82" as="geometry" />
        </mxCell>
        <mxCell id="Ra9d1gFitnQrmyRqMjTd-4" value="&lt;b style=&quot;text-align: left&quot;&gt;VLAN:&lt;br&gt;&lt;div&gt;&lt;b&gt;Surveillance Group&lt;/b&gt;&lt;/div&gt;&lt;/b&gt;" style="text;html=1;align=center;verticalAlign=middle;resizable=0;points=[];autosize=1;fontSize=12;fontColor=#000000;labelBackgroundColor=#ffffff;" parent="BJuQSa_UwCPsbTage6PU-1" vertex="1">
          <mxGeometry x="177.4063017730384" y="1112.5016956521738" width="130" height="30" as="geometry" />
        </mxCell>
        <mxCell id="Ra9d1gFitnQrmyRqMjTd-7" value="" style="points=[];aspect=fixed;html=1;align=center;shadow=0;dashed=0;image;image=img/lib/allied_telesis/security/Surveillance_Camera_Ceiling.svg;fontSize=12;fontColor=#000000;" parent="BJuQSa_UwCPsbTage6PU-1" vertex="1">
          <mxGeometry x="219.9960326086956" y="1223" width="37.20000000000001" height="35.400000000000006" as="geometry" />
        </mxCell>
        <mxCell id="i1jmTbfRxJnBSrhr6MtA-9" value="" style="points=[];aspect=fixed;html=1;align=center;shadow=0;dashed=0;image;image=img/lib/allied_telesis/security/Surveillance_Camera_Ceiling.svg;fontSize=12;fontColor=#000000;" parent="BJuQSa_UwCPsbTage6PU-1" vertex="1">
          <mxGeometry x="219.99913043478264" y="1160" width="37.20000000000001" height="35.400000000000006" as="geometry" />
        </mxCell>
        <mxCell id="Ra9d1gFitnQrmyRqMjTd-8" value="" style="points=[];aspect=fixed;html=1;align=center;shadow=0;dashed=0;image;image=img/lib/allied_telesis/security/Surveillance_Camera_Ceiling.svg;fontSize=12;fontColor=#000000;" parent="BJuQSa_UwCPsbTage6PU-1" vertex="1">
          <mxGeometry x="292.40913043478264" y="1160" width="37.20000000000001" height="35.400000000000006" as="geometry" />
        </mxCell>
        <mxCell id="Ra9d1gFitnQrmyRqMjTd-6" value="" style="points=[];aspect=fixed;html=1;align=center;shadow=0;dashed=0;image;image=img/lib/allied_telesis/security/Surveillance_Camera_Ceiling.svg;fontSize=12;fontColor=#000000;" parent="BJuQSa_UwCPsbTage6PU-1" vertex="1">
          <mxGeometry x="292.40913043478264" y="1223" width="37.20000000000001" height="35.400000000000006" as="geometry" />
        </mxCell>
        <mxCell id="i1jmTbfRxJnBSrhr6MtA-11" value="Outdoor" style="text;html=1;align=center;verticalAlign=middle;resizable=0;points=[];autosize=1;fontColor=#000000;" parent="BJuQSa_UwCPsbTage6PU-1" vertex="1">
          <mxGeometry x="208.6" y="1270" width="60" height="20" as="geometry" />
        </mxCell>
        <mxCell id="i1jmTbfRxJnBSrhr6MtA-12" value="Indoor" style="text;html=1;align=center;verticalAlign=middle;resizable=0;points=[];autosize=1;fontColor=#000000;" parent="BJuQSa_UwCPsbTage6PU-1" vertex="1">
          <mxGeometry x="286.01" y="1270" width="50" height="20" as="geometry" />
        </mxCell>
        <mxCell id="i1jmTbfRxJnBSrhr6MtA-15" value="Surveillance" style="text;html=1;align=center;verticalAlign=middle;resizable=0;points=[];autosize=1;fontColor=#000000;labelBackgroundColor=#ffffff;" parent="BJuQSa_UwCPsbTage6PU-1" vertex="1">
          <mxGeometry x="231.3" y="1295.15" width="80" height="20" as="geometry" />
        </mxCell>
      </root>
    </mxGraphModel>
  </diagram>
  <diagram id="Hn6YnlvIQ0r_7LaAQYbj" name="Server Farm">
    <mxGraphModel dx="1422" dy="-52" grid="1" gridSize="10" guides="1" tooltips="1" connect="1" arrows="1" fold="1" page="1" pageScale="1" pageWidth="1169" pageHeight="827" math="0" shadow="0">
      <root>
        <mxCell id="hWqjjMXpDKOYIAjPgIfB-0" />
        <mxCell id="hWqjjMXpDKOYIAjPgIfB-1" parent="hWqjjMXpDKOYIAjPgIfB-0" />
        <mxCell id="hWqjjMXpDKOYIAjPgIfB-17" value="" style="rounded=1;whiteSpace=wrap;html=1;labelBackgroundColor=#ffffff;fillColor=#f8cecc;fontSize=12;opacity=70;strokeColor=none;" parent="hWqjjMXpDKOYIAjPgIfB-1" vertex="1">
          <mxGeometry x="331" y="1390" width="669" height="184.17" as="geometry" />
        </mxCell>
        <mxCell id="8iClWWHn-8V7IZcWPiyX-2" value="" style="rounded=1;whiteSpace=wrap;html=1;labelBackgroundColor=none;fontColor=#000000;opacity=70;" parent="hWqjjMXpDKOYIAjPgIfB-1" vertex="1">
          <mxGeometry x="490" y="1408.52" width="60" height="136.5" as="geometry" />
        </mxCell>
        <mxCell id="8iClWWHn-8V7IZcWPiyX-3" value="" style="rounded=1;whiteSpace=wrap;html=1;labelBackgroundColor=none;fontColor=#000000;opacity=70;" parent="hWqjjMXpDKOYIAjPgIfB-1" vertex="1">
          <mxGeometry x="380" y="1408.52" width="60" height="136.5" as="geometry" />
        </mxCell>
        <mxCell id="u3sGWROmZGs2DPctiDAY-0" value="" style="rounded=1;whiteSpace=wrap;html=1;fontSize=12;fontColor=#000000;strokeColor=none;fillColor=#E6E6E6;opacity=70;" parent="hWqjjMXpDKOYIAjPgIfB-1" vertex="1">
          <mxGeometry x="690" y="1130" width="310" height="230" as="geometry" />
        </mxCell>
        <mxCell id="DYKPWedDQtZ95CWZaOnw-8" value="" style="rounded=1;whiteSpace=wrap;html=1;labelBackgroundColor=#ffffff;fillColor=#dae8fc;fontSize=12;opacity=70;strokeColor=#FF0000;" parent="hWqjjMXpDKOYIAjPgIfB-1" vertex="1">
          <mxGeometry x="743.8" y="872" width="250" height="208" as="geometry" />
        </mxCell>
        <mxCell id="hWqjjMXpDKOYIAjPgIfB-25" style="edgeStyle=none;rounded=0;orthogonalLoop=1;jettySize=auto;html=1;exitX=0.5;exitY=0;exitDx=0;exitDy=0;exitPerimeter=0;endArrow=none;endFill=0;fontSize=12;fontColor=#000000;strokeColor=#FF8000;strokeWidth=3;" parent="hWqjjMXpDKOYIAjPgIfB-1" source="hWqjjMXpDKOYIAjPgIfB-27" target="hWqjjMXpDKOYIAjPgIfB-39" edge="1">
          <mxGeometry relative="1" as="geometry" />
        </mxCell>
        <mxCell id="hWqjjMXpDKOYIAjPgIfB-26" style="edgeStyle=none;rounded=0;orthogonalLoop=1;jettySize=auto;html=1;endArrow=none;endFill=0;fontSize=12;fontColor=#000000;strokeColor=#FF8000;strokeWidth=3;" parent="hWqjjMXpDKOYIAjPgIfB-1" source="hWqjjMXpDKOYIAjPgIfB-27" target="hWqjjMXpDKOYIAjPgIfB-45" edge="1">
          <mxGeometry relative="1" as="geometry" />
        </mxCell>
        <mxCell id="hWqjjMXpDKOYIAjPgIfB-38" style="edgeStyle=none;rounded=0;orthogonalLoop=1;jettySize=auto;html=1;endArrow=none;endFill=0;fontSize=12;fontColor=#000000;strokeColor=#007FFF;strokeWidth=4;" parent="hWqjjMXpDKOYIAjPgIfB-1" source="hWqjjMXpDKOYIAjPgIfB-39" target="hWqjjMXpDKOYIAjPgIfB-41" edge="1">
          <mxGeometry relative="1" as="geometry" />
        </mxCell>
        <mxCell id="q5Y0NdbzMZghLfOzZqP6-1" style="edgeStyle=none;rounded=0;orthogonalLoop=1;jettySize=auto;html=1;endArrow=none;endFill=0;strokeColor=#FF8000;strokeWidth=2;fontColor=#000000;" parent="hWqjjMXpDKOYIAjPgIfB-1" source="hWqjjMXpDKOYIAjPgIfB-39" target="ALZRM8BbOBqBnR4vzs1L-0" edge="1">
          <mxGeometry relative="1" as="geometry" />
        </mxCell>
        <mxCell id="hWqjjMXpDKOYIAjPgIfB-39" value="Backbone Switch&lt;br&gt;10Gbps/10Gbps" style="shape=mxgraph.cisco.switches.atm_fast_gigabit_etherswitch;html=1;pointerEvents=1;dashed=0;fillColor=#036897;strokeColor=#ffffff;strokeWidth=2;verticalLabelPosition=bottom;verticalAlign=top;align=center;outlineConnect=0;labelBackgroundColor=#ffffff;fontSize=12;fontColor=#000000;" parent="hWqjjMXpDKOYIAjPgIfB-1" vertex="1">
          <mxGeometry x="370" y="1260" width="64" height="64" as="geometry" />
        </mxCell>
        <mxCell id="hWqjjMXpDKOYIAjPgIfB-40" value="" style="group" parent="hWqjjMXpDKOYIAjPgIfB-1" vertex="1" connectable="0">
          <mxGeometry x="104" y="1130" width="186" height="106" as="geometry" />
        </mxCell>
        <mxCell id="hWqjjMXpDKOYIAjPgIfB-41" value="" style="shape=mxgraph.cisco.storage.cloud;html=1;pointerEvents=1;dashed=0;fillColor=#036897;strokeColor=#ffffff;strokeWidth=2;verticalLabelPosition=bottom;verticalAlign=top;align=center;outlineConnect=0;labelBackgroundColor=#ffffff;fontSize=12;fontColor=#000000;" parent="hWqjjMXpDKOYIAjPgIfB-40" vertex="1">
          <mxGeometry width="186" height="106" as="geometry" />
        </mxCell>
        <mxCell id="hWqjjMXpDKOYIAjPgIfB-42" value="&lt;font style=&quot;font-size: 36px&quot; color=&quot;#ffffff&quot;&gt;ISP&lt;/font&gt;" style="text;html=1;align=center;verticalAlign=middle;resizable=0;points=[];autosize=1;fontSize=12;fontColor=#000000;" parent="hWqjjMXpDKOYIAjPgIfB-40" vertex="1">
          <mxGeometry x="58" y="38" width="70" height="30" as="geometry" />
        </mxCell>
        <mxCell id="hWqjjMXpDKOYIAjPgIfB-43" style="edgeStyle=none;rounded=0;orthogonalLoop=1;jettySize=auto;html=1;endArrow=none;endFill=0;fontSize=12;fontColor=#000000;strokeColor=#007FFF;strokeWidth=4;" parent="hWqjjMXpDKOYIAjPgIfB-1" source="hWqjjMXpDKOYIAjPgIfB-45" target="hWqjjMXpDKOYIAjPgIfB-41" edge="1">
          <mxGeometry relative="1" as="geometry" />
        </mxCell>
        <mxCell id="hWqjjMXpDKOYIAjPgIfB-44" style="edgeStyle=none;rounded=0;orthogonalLoop=1;jettySize=auto;html=1;endArrow=none;endFill=0;fontSize=12;fontColor=#000000;strokeColor=#007FFF;strokeWidth=4;" parent="hWqjjMXpDKOYIAjPgIfB-1" source="hWqjjMXpDKOYIAjPgIfB-45" target="hWqjjMXpDKOYIAjPgIfB-39" edge="1">
          <mxGeometry relative="1" as="geometry" />
        </mxCell>
        <mxCell id="q5Y0NdbzMZghLfOzZqP6-0" style="edgeStyle=none;rounded=0;orthogonalLoop=1;jettySize=auto;html=1;endArrow=none;endFill=0;strokeColor=#FF8000;strokeWidth=2;fontColor=#000000;" parent="hWqjjMXpDKOYIAjPgIfB-1" source="hWqjjMXpDKOYIAjPgIfB-45" target="ALZRM8BbOBqBnR4vzs1L-0" edge="1">
          <mxGeometry relative="1" as="geometry" />
        </mxCell>
        <mxCell id="hWqjjMXpDKOYIAjPgIfB-45" value="Backbone Switch (Redundancy)&lt;br&gt;10Gbps/10Gbps" style="shape=mxgraph.cisco.switches.atm_fast_gigabit_etherswitch;html=1;pointerEvents=1;dashed=0;fillColor=#036897;strokeColor=#ffffff;strokeWidth=2;verticalLabelPosition=bottom;verticalAlign=top;align=center;outlineConnect=0;labelBackgroundColor=#ffffff;fontSize=12;fontColor=#000000;" parent="hWqjjMXpDKOYIAjPgIfB-1" vertex="1">
          <mxGeometry x="369.99999999999994" y="1050" width="64" height="64" as="geometry" />
        </mxCell>
        <mxCell id="_6DmonuuYlYoVJyoNn88-8" style="edgeStyle=none;rounded=0;orthogonalLoop=1;jettySize=auto;html=1;endArrow=none;endFill=0;fontSize=12;fontColor=#000000;" parent="hWqjjMXpDKOYIAjPgIfB-1" source="hWqjjMXpDKOYIAjPgIfB-27" target="_6DmonuuYlYoVJyoNn88-6" edge="1">
          <mxGeometry relative="1" as="geometry" />
        </mxCell>
        <mxCell id="DYKPWedDQtZ95CWZaOnw-14" style="edgeStyle=none;rounded=0;orthogonalLoop=1;jettySize=auto;html=1;endArrow=none;endFill=0;strokeWidth=1;fontColor=#FF8000;" parent="hWqjjMXpDKOYIAjPgIfB-1" source="hWqjjMXpDKOYIAjPgIfB-27" target="DYKPWedDQtZ95CWZaOnw-6" edge="1">
          <mxGeometry relative="1" as="geometry" />
        </mxCell>
        <mxCell id="DYKPWedDQtZ95CWZaOnw-0" value="" style="group" parent="hWqjjMXpDKOYIAjPgIfB-1" vertex="1" connectable="0">
          <mxGeometry x="620" y="1037.05" width="55.799999999999955" height="89.90000000000009" as="geometry" />
        </mxCell>
        <mxCell id="DYKPWedDQtZ95CWZaOnw-1" value="VPN Server" style="points=[];aspect=fixed;html=1;align=center;shadow=0;dashed=0;image;image=img/lib/allied_telesis/security/Router_VPN.svg;labelBackgroundColor=#ffffff;strokeColor=#CCCCCC;fontColor=#000000;" parent="DYKPWedDQtZ95CWZaOnw-0" vertex="1">
          <mxGeometry y="50.30000000000007" width="55.800000000000004" height="39.6" as="geometry" />
        </mxCell>
        <mxCell id="DYKPWedDQtZ95CWZaOnw-2" value="" style="points=[];aspect=fixed;html=1;align=center;shadow=0;dashed=0;image;image=img/lib/allied_telesis/security/Router_VPN.svg;labelBackgroundColor=#ffffff;strokeColor=#CCCCCC;fontColor=#000000;" parent="DYKPWedDQtZ95CWZaOnw-0" vertex="1">
          <mxGeometry y="40.30000000000007" width="55.800000000000004" height="39.6" as="geometry" />
        </mxCell>
        <mxCell id="DYKPWedDQtZ95CWZaOnw-3" value="" style="points=[];aspect=fixed;html=1;align=center;shadow=0;dashed=0;image;image=img/lib/allied_telesis/security/Router_VPN.svg;labelBackgroundColor=#ffffff;strokeColor=#CCCCCC;fontColor=#000000;" parent="DYKPWedDQtZ95CWZaOnw-0" vertex="1">
          <mxGeometry y="30.300000000000068" width="55.800000000000004" height="39.6" as="geometry" />
        </mxCell>
        <mxCell id="DYKPWedDQtZ95CWZaOnw-4" value="" style="points=[];aspect=fixed;html=1;align=center;shadow=0;dashed=0;image;image=img/lib/allied_telesis/security/Router_VPN.svg;labelBackgroundColor=#ffffff;strokeColor=#CCCCCC;fontColor=#000000;" parent="DYKPWedDQtZ95CWZaOnw-0" vertex="1">
          <mxGeometry y="20.300000000000068" width="55.800000000000004" height="39.6" as="geometry" />
        </mxCell>
        <mxCell id="DYKPWedDQtZ95CWZaOnw-5" value="" style="points=[];aspect=fixed;html=1;align=center;shadow=0;dashed=0;image;image=img/lib/allied_telesis/security/Router_VPN.svg;labelBackgroundColor=#ffffff;strokeColor=#CCCCCC;fontColor=#000000;" parent="DYKPWedDQtZ95CWZaOnw-0" vertex="1">
          <mxGeometry y="10.700000000000045" width="55.800000000000004" height="39.6" as="geometry" />
        </mxCell>
        <mxCell id="DYKPWedDQtZ95CWZaOnw-6" value="" style="points=[];aspect=fixed;html=1;align=center;shadow=0;dashed=0;image;image=img/lib/allied_telesis/security/Router_VPN.svg;labelBackgroundColor=#ffffff;strokeColor=#CCCCCC;fontColor=#000000;" parent="DYKPWedDQtZ95CWZaOnw-0" vertex="1">
          <mxGeometry width="55.800000000000004" height="39.6" as="geometry" />
        </mxCell>
        <mxCell id="DYKPWedDQtZ95CWZaOnw-18" style="edgeStyle=none;rounded=0;orthogonalLoop=1;jettySize=auto;html=1;endArrow=none;endFill=0;strokeWidth=2;fontColor=#FF8000;strokeColor=#FF3333;" parent="hWqjjMXpDKOYIAjPgIfB-1" source="DYKPWedDQtZ95CWZaOnw-6" target="DYKPWedDQtZ95CWZaOnw-17" edge="1">
          <mxGeometry relative="1" as="geometry" />
        </mxCell>
        <mxCell id="DYKPWedDQtZ95CWZaOnw-19" style="edgeStyle=none;rounded=0;orthogonalLoop=1;jettySize=auto;html=1;endArrow=none;endFill=0;strokeWidth=2;fontColor=#FF8000;strokeColor=#FF3333;" parent="hWqjjMXpDKOYIAjPgIfB-1" source="DYKPWedDQtZ95CWZaOnw-6" target="DYKPWedDQtZ95CWZaOnw-16" edge="1">
          <mxGeometry relative="1" as="geometry" />
        </mxCell>
        <mxCell id="DYKPWedDQtZ95CWZaOnw-20" style="edgeStyle=none;rounded=0;orthogonalLoop=1;jettySize=auto;html=1;endArrow=none;endFill=0;strokeWidth=2;fontColor=#FF8000;strokeColor=#FF3333;" parent="hWqjjMXpDKOYIAjPgIfB-1" source="DYKPWedDQtZ95CWZaOnw-5" target="DYKPWedDQtZ95CWZaOnw-15" edge="1">
          <mxGeometry relative="1" as="geometry" />
        </mxCell>
        <mxCell id="_6DmonuuYlYoVJyoNn88-7" style="edgeStyle=none;rounded=0;orthogonalLoop=1;jettySize=auto;html=1;endArrow=none;endFill=0;fontSize=12;fontColor=#000000;" parent="hWqjjMXpDKOYIAjPgIfB-1" source="hWqjjMXpDKOYIAjPgIfB-27" target="_6DmonuuYlYoVJyoNn88-5" edge="1">
          <mxGeometry relative="1" as="geometry" />
        </mxCell>
        <mxCell id="ALZRM8BbOBqBnR4vzs1L-1" style="edgeStyle=none;rounded=0;orthogonalLoop=1;jettySize=auto;html=1;exitX=0.5;exitY=0;exitDx=0;exitDy=0;exitPerimeter=0;entryX=0.5;entryY=0;entryDx=0;entryDy=0;entryPerimeter=0;endArrow=none;endFill=0;strokeColor=#FF8000;strokeWidth=2;fontColor=#000000;" parent="hWqjjMXpDKOYIAjPgIfB-1" source="hWqjjMXpDKOYIAjPgIfB-27" target="ALZRM8BbOBqBnR4vzs1L-0" edge="1">
          <mxGeometry relative="1" as="geometry" />
        </mxCell>
        <mxCell id="UVgTfPlyF4EgsbE6bSVA-0" style="edgeStyle=none;rounded=0;orthogonalLoop=1;jettySize=auto;html=1;entryX=0.87;entryY=0.74;entryDx=0;entryDy=0;entryPerimeter=0;endArrow=none;endFill=0;strokeColor=#FF8000;strokeWidth=2;fontColor=#000000;exitX=0.87;exitY=0.74;exitDx=0;exitDy=0;exitPerimeter=0;" parent="hWqjjMXpDKOYIAjPgIfB-1" source="hWqjjMXpDKOYIAjPgIfB-27" target="ALZRM8BbOBqBnR4vzs1L-0" edge="1">
          <mxGeometry relative="1" as="geometry" />
        </mxCell>
        <mxCell id="u3sGWROmZGs2DPctiDAY-12" style="edgeStyle=none;rounded=0;orthogonalLoop=1;jettySize=auto;html=1;endArrow=none;endFill=0;strokeColor=#000000;strokeWidth=1;fontColor=#000000;" parent="hWqjjMXpDKOYIAjPgIfB-1" source="hWqjjMXpDKOYIAjPgIfB-27" target="u3sGWROmZGs2DPctiDAY-1" edge="1">
          <mxGeometry relative="1" as="geometry" />
        </mxCell>
        <mxCell id="u3sGWROmZGs2DPctiDAY-13" style="edgeStyle=none;rounded=0;orthogonalLoop=1;jettySize=auto;html=1;endArrow=none;endFill=0;strokeColor=#000000;strokeWidth=1;fontColor=#000000;" parent="hWqjjMXpDKOYIAjPgIfB-1" source="hWqjjMXpDKOYIAjPgIfB-27" target="u3sGWROmZGs2DPctiDAY-8" edge="1">
          <mxGeometry relative="1" as="geometry" />
        </mxCell>
        <mxCell id="hWqjjMXpDKOYIAjPgIfB-27" value="Switch Router&lt;br&gt;1Gbps/10Gbps" style="shape=mxgraph.cisco.switches.workgroup_switch;html=1;pointerEvents=1;dashed=0;fillColor=#036897;strokeColor=#ffffff;strokeWidth=2;verticalLabelPosition=bottom;verticalAlign=top;align=center;outlineConnect=0;labelBackgroundColor=#ffffff;" parent="hWqjjMXpDKOYIAjPgIfB-1" vertex="1">
          <mxGeometry x="492.8" y="1158.5" width="101" height="50" as="geometry" />
        </mxCell>
        <mxCell id="Isw_TfusR_N7SYk2CJuh-12" value="" style="group" parent="hWqjjMXpDKOYIAjPgIfB-1" vertex="1" connectable="0">
          <mxGeometry x="130" y="890" width="275" height="140" as="geometry" />
        </mxCell>
        <mxCell id="Isw_TfusR_N7SYk2CJuh-1" value="" style="rounded=1;whiteSpace=wrap;html=1;labelBackgroundColor=#ffffff;fontColor=#000000;align=left;labelBorderColor=none;strokeColor=#CCCCCC;" parent="Isw_TfusR_N7SYk2CJuh-12" vertex="1">
          <mxGeometry width="275" height="140" as="geometry" />
        </mxCell>
        <mxCell id="Isw_TfusR_N7SYk2CJuh-2" style="edgeStyle=none;rounded=0;orthogonalLoop=1;jettySize=auto;html=1;endArrow=none;endFill=0;strokeWidth=3;strokeColor=#FF8000;" parent="Isw_TfusR_N7SYk2CJuh-12" edge="1">
          <mxGeometry as="geometry">
            <mxPoint x="95.00000000000009" y="55" as="sourcePoint" />
            <mxPoint x="15.000000000000085" y="55" as="targetPoint" />
          </mxGeometry>
        </mxCell>
        <mxCell id="Isw_TfusR_N7SYk2CJuh-3" style="edgeStyle=none;rounded=0;orthogonalLoop=1;jettySize=auto;html=1;endArrow=none;endFill=0;strokeWidth=5;strokeColor=#007FFF;" parent="Isw_TfusR_N7SYk2CJuh-12" edge="1">
          <mxGeometry as="geometry">
            <mxPoint x="15.000000000000085" y="86" as="sourcePoint" />
            <mxPoint x="95.00000000000009" y="86" as="targetPoint" />
          </mxGeometry>
        </mxCell>
        <mxCell id="Isw_TfusR_N7SYk2CJuh-4" style="rounded=0;orthogonalLoop=1;jettySize=auto;html=1;elbow=vertical;endArrow=none;endFill=0;" parent="Isw_TfusR_N7SYk2CJuh-12" edge="1">
          <mxGeometry as="geometry">
            <mxPoint x="15.000000000000085" y="26" as="sourcePoint" />
            <mxPoint x="95.00000000000009" y="26" as="targetPoint" />
          </mxGeometry>
        </mxCell>
        <mxCell id="Isw_TfusR_N7SYk2CJuh-5" value="UTP-CAT6 (1Gbps)" style="text;html=1;align=left;verticalAlign=middle;resizable=0;points=[];autosize=1;fontColor=#000000;" parent="Isw_TfusR_N7SYk2CJuh-12" vertex="1">
          <mxGeometry x="98.99999999999997" y="16" width="120" height="20" as="geometry" />
        </mxCell>
        <mxCell id="Isw_TfusR_N7SYk2CJuh-6" value="STP-CAT7 (10Gbps)" style="text;html=1;align=left;verticalAlign=middle;resizable=0;points=[];autosize=1;fontColor=#000000;" parent="Isw_TfusR_N7SYk2CJuh-12" vertex="1">
          <mxGeometry x="98.99999999999997" y="46" width="130" height="20" as="geometry" />
        </mxCell>
        <mxCell id="Isw_TfusR_N7SYk2CJuh-7" value="Single Mode Fibre (100Gbps)" style="text;html=1;align=left;verticalAlign=middle;resizable=0;points=[];autosize=1;fontColor=#000000;" parent="Isw_TfusR_N7SYk2CJuh-12" vertex="1">
          <mxGeometry x="98.99999999999997" y="75.29999999999995" width="170" height="20" as="geometry" />
        </mxCell>
        <mxCell id="Isw_TfusR_N7SYk2CJuh-8" style="edgeStyle=none;rounded=0;orthogonalLoop=1;jettySize=auto;html=1;endArrow=none;endFill=0;strokeWidth=3;fontColor=#000000;strokeColor=#FF3333;" parent="Isw_TfusR_N7SYk2CJuh-12" edge="1">
          <mxGeometry as="geometry">
            <mxPoint x="15.000000000000085" y="114" as="sourcePoint" />
            <mxPoint x="95.00000000000009" y="114" as="targetPoint" />
          </mxGeometry>
        </mxCell>
        <mxCell id="Isw_TfusR_N7SYk2CJuh-9" value="Encrypted UTP to Critical Net" style="text;html=1;align=left;verticalAlign=middle;resizable=0;points=[];autosize=1;fontColor=#000000;" parent="Isw_TfusR_N7SYk2CJuh-12" vertex="1">
          <mxGeometry x="98.99999999999997" y="103.29999999999995" width="170" height="20" as="geometry" />
        </mxCell>
        <mxCell id="8iClWWHn-8V7IZcWPiyX-13" style="edgeStyle=none;rounded=0;orthogonalLoop=1;jettySize=auto;html=1;endArrow=none;endFill=0;strokeColor=#000000;strokeWidth=1;fontColor=#000000;" parent="hWqjjMXpDKOYIAjPgIfB-1" source="ALZRM8BbOBqBnR4vzs1L-0" target="8iClWWHn-8V7IZcWPiyX-6" edge="1">
          <mxGeometry relative="1" as="geometry" />
        </mxCell>
        <mxCell id="8iClWWHn-8V7IZcWPiyX-15" style="edgeStyle=none;rounded=0;orthogonalLoop=1;jettySize=auto;html=1;endArrow=none;endFill=0;strokeColor=#000000;strokeWidth=1;fontColor=#000000;" parent="hWqjjMXpDKOYIAjPgIfB-1" source="ALZRM8BbOBqBnR4vzs1L-0" target="8iClWWHn-8V7IZcWPiyX-5" edge="1">
          <mxGeometry relative="1" as="geometry" />
        </mxCell>
        <mxCell id="8iClWWHn-8V7IZcWPiyX-16" style="edgeStyle=none;rounded=0;orthogonalLoop=1;jettySize=auto;html=1;endArrow=none;endFill=0;strokeColor=#000000;strokeWidth=1;fontColor=#000000;" parent="hWqjjMXpDKOYIAjPgIfB-1" source="ALZRM8BbOBqBnR4vzs1L-0" target="8iClWWHn-8V7IZcWPiyX-7" edge="1">
          <mxGeometry relative="1" as="geometry" />
        </mxCell>
        <mxCell id="8iClWWHn-8V7IZcWPiyX-17" style="edgeStyle=none;rounded=0;orthogonalLoop=1;jettySize=auto;html=1;endArrow=none;endFill=0;strokeColor=#000000;strokeWidth=1;fontColor=#000000;" parent="hWqjjMXpDKOYIAjPgIfB-1" source="ALZRM8BbOBqBnR4vzs1L-0" target="8iClWWHn-8V7IZcWPiyX-8" edge="1">
          <mxGeometry relative="1" as="geometry" />
        </mxCell>
        <mxCell id="ALZRM8BbOBqBnR4vzs1L-0" value="POE Switch Router&lt;br&gt;1Gbps/10Gbps" style="shape=mxgraph.cisco.switches.workgroup_switch;html=1;pointerEvents=1;dashed=0;fillColor=#036897;strokeColor=#ffffff;strokeWidth=2;verticalLabelPosition=bottom;verticalAlign=top;align=center;outlineConnect=0;labelBackgroundColor=#ffffff;" parent="hWqjjMXpDKOYIAjPgIfB-1" vertex="1">
          <mxGeometry x="492.8" y="1267" width="101" height="50" as="geometry" />
        </mxCell>
        <mxCell id="DYKPWedDQtZ95CWZaOnw-13" value="&lt;b&gt;VLAN:&lt;br&gt;Security Work Group&lt;/b&gt;" style="text;html=1;align=center;verticalAlign=middle;resizable=0;points=[];autosize=1;labelBackgroundColor=#ffffff;" parent="hWqjjMXpDKOYIAjPgIfB-1" vertex="1">
          <mxGeometry x="803.8" y="1044.05" width="140" height="30" as="geometry" />
        </mxCell>
        <mxCell id="DYKPWedDQtZ95CWZaOnw-15" value="" style="points=[];aspect=fixed;html=1;align=center;shadow=0;dashed=0;image;image=img/lib/allied_telesis/storage/Datacenter_Server_Rack_EoR.svg;labelBackgroundColor=#ffffff;fontColor=#FF8000;" parent="hWqjjMXpDKOYIAjPgIfB-1" vertex="1">
          <mxGeometry x="891.1199999999999" y="900" width="51.16" height="103.4" as="geometry" />
        </mxCell>
        <mxCell id="DYKPWedDQtZ95CWZaOnw-16" value="&lt;font color=&quot;#000000&quot;&gt;Encrypted Server Group&lt;/font&gt;" style="points=[];aspect=fixed;html=1;align=center;shadow=0;dashed=0;image;image=img/lib/allied_telesis/storage/Datacenter_Server_Rack_EoR.svg;labelBackgroundColor=#ffffff;fontColor=#FF8000;" parent="hWqjjMXpDKOYIAjPgIfB-1" vertex="1">
          <mxGeometry x="839.9599999999999" y="900" width="51.16" height="103.4" as="geometry" />
        </mxCell>
        <mxCell id="DYKPWedDQtZ95CWZaOnw-17" value="" style="points=[];aspect=fixed;html=1;align=center;shadow=0;dashed=0;image;image=img/lib/allied_telesis/storage/Datacenter_Server_Rack_EoR.svg;labelBackgroundColor=#ffffff;fontColor=#FF8000;" parent="hWqjjMXpDKOYIAjPgIfB-1" vertex="1">
          <mxGeometry x="788.8" y="900" width="51.16" height="103.4" as="geometry" />
        </mxCell>
        <mxCell id="u3sGWROmZGs2DPctiDAY-1" value="Indoor Wireless AP&lt;br&gt;5GHz, 9.6Gbps, Wifi6" style="shape=mxgraph.cisco.routers.wireless_router;html=1;pointerEvents=1;dashed=0;fillColor=#036897;strokeColor=#ffffff;strokeWidth=2;verticalLabelPosition=bottom;verticalAlign=top;align=center;outlineConnect=0;labelBackgroundColor=#ffffff;fontSize=12;fontColor=#000000;" parent="hWqjjMXpDKOYIAjPgIfB-1" vertex="1">
          <mxGeometry x="760" y="1155.75" width="50" height="57.5" as="geometry" />
        </mxCell>
        <mxCell id="u3sGWROmZGs2DPctiDAY-2" style="edgeStyle=none;rounded=0;orthogonalLoop=1;jettySize=auto;html=1;endArrow=none;endFill=0;fontSize=12;fontColor=#000000;dashed=1;strokeWidth=2;" parent="hWqjjMXpDKOYIAjPgIfB-1" source="u3sGWROmZGs2DPctiDAY-1" target="u3sGWROmZGs2DPctiDAY-4" edge="1">
          <mxGeometry x="690" y="1127.5" as="geometry" />
        </mxCell>
        <mxCell id="u3sGWROmZGs2DPctiDAY-3" value="Non-critical Public Network" style="text;html=1;align=center;verticalAlign=middle;resizable=0;points=[];autosize=1;fontSize=12;fontColor=#000000;labelBackgroundColor=#ffffff;fontStyle=1" parent="hWqjjMXpDKOYIAjPgIfB-1" vertex="1">
          <mxGeometry x="777.5" y="1135.55" width="170" height="20" as="geometry" />
        </mxCell>
        <mxCell id="u3sGWROmZGs2DPctiDAY-4" value="" style="pointerEvents=1;shadow=0;dashed=0;html=1;strokeColor=none;fillColor=#505050;labelPosition=center;verticalLabelPosition=bottom;verticalAlign=top;outlineConnect=0;align=center;shape=mxgraph.office.devices.cell_phone_android_standalone;labelBackgroundColor=#ffffff;fontSize=12;fontColor=#000000;" parent="hWqjjMXpDKOYIAjPgIfB-1" vertex="1">
          <mxGeometry x="911" y="1163.5" width="24" height="44" as="geometry" />
        </mxCell>
        <mxCell id="u3sGWROmZGs2DPctiDAY-5" value="" style="shape=image;html=1;verticalAlign=top;verticalLabelPosition=bottom;labelBackgroundColor=#ffffff;imageAspect=0;aspect=fixed;image=https://cdn3.iconfinder.com/data/icons/construction-293/32/Construction_constructor_hat_helmet_protection_worker-128.png;fillColor=#E6E6E6;fontSize=12;fontColor=#000000;" parent="hWqjjMXpDKOYIAjPgIfB-1" vertex="1">
          <mxGeometry x="941" y="1161" width="49" height="49" as="geometry" />
        </mxCell>
        <mxCell id="u3sGWROmZGs2DPctiDAY-6" value="Staff" style="text;html=1;align=center;verticalAlign=middle;resizable=0;points=[];autosize=1;fontSize=12;fontColor=#000000;labelBackgroundColor=#ffffff;" parent="hWqjjMXpDKOYIAjPgIfB-1" vertex="1">
          <mxGeometry x="921" y="1322.65" width="40" height="20" as="geometry" />
        </mxCell>
        <mxCell id="u3sGWROmZGs2DPctiDAY-8" value="Outdoor Wireless AP&lt;br&gt;2.4GHz, 9.6Gbps, Wifi6" style="shape=mxgraph.cisco.routers.wireless_router;html=1;pointerEvents=1;dashed=0;fillColor=#036897;strokeColor=#ffffff;strokeWidth=2;verticalLabelPosition=bottom;verticalAlign=top;align=center;outlineConnect=0;labelBackgroundColor=#ffffff;fontSize=12;fontColor=#000000;" parent="hWqjjMXpDKOYIAjPgIfB-1" vertex="1">
          <mxGeometry x="760" y="1257.2" width="50" height="57.5" as="geometry" />
        </mxCell>
        <mxCell id="u3sGWROmZGs2DPctiDAY-9" value="" style="pointerEvents=1;shadow=0;dashed=0;html=1;strokeColor=none;fillColor=#505050;labelPosition=center;verticalLabelPosition=bottom;verticalAlign=top;outlineConnect=0;align=center;shape=mxgraph.office.devices.cell_phone_android_standalone;labelBackgroundColor=#ffffff;fontSize=12;fontColor=#000000;" parent="hWqjjMXpDKOYIAjPgIfB-1" vertex="1">
          <mxGeometry x="911" y="1263.95" width="24" height="44" as="geometry" />
        </mxCell>
        <mxCell id="u3sGWROmZGs2DPctiDAY-7" style="edgeStyle=none;rounded=0;orthogonalLoop=1;jettySize=auto;html=1;endArrow=none;endFill=0;strokeWidth=2;fontColor=#000000;dashed=1;" parent="hWqjjMXpDKOYIAjPgIfB-1" source="u3sGWROmZGs2DPctiDAY-8" target="u3sGWROmZGs2DPctiDAY-9" edge="1">
          <mxGeometry x="690" y="1130" as="geometry" />
        </mxCell>
        <mxCell id="u3sGWROmZGs2DPctiDAY-10" value="" style="shape=image;html=1;verticalAlign=top;verticalLabelPosition=bottom;labelBackgroundColor=#ffffff;imageAspect=0;aspect=fixed;image=https://cdn3.iconfinder.com/data/icons/construction-293/32/Construction_constructor_hat_helmet_protection_worker-128.png;fillColor=#E6E6E6;fontSize=12;fontColor=#000000;" parent="hWqjjMXpDKOYIAjPgIfB-1" vertex="1">
          <mxGeometry x="941" y="1261.45" width="49" height="49" as="geometry" />
        </mxCell>
        <mxCell id="hWqjjMXpDKOYIAjPgIfB-22" value="&lt;b style=&quot;text-align: left&quot;&gt;VLAN:&lt;br&gt;&lt;div&gt;&lt;b&gt;Surveillance Group&lt;/b&gt;&lt;/div&gt;&lt;/b&gt;" style="text;html=1;align=center;verticalAlign=middle;resizable=0;points=[];autosize=1;fontSize=12;fontColor=#000000;labelBackgroundColor=#ffffff;" parent="hWqjjMXpDKOYIAjPgIfB-1" vertex="1">
          <mxGeometry x="874.9954507050634" y="1415.0024021739132" width="130" height="30" as="geometry" />
        </mxCell>
        <mxCell id="IN_OdNyddotsiPPOo2Y0-0" style="rounded=0;orthogonalLoop=1;jettySize=auto;html=1;endArrow=classic;endFill=1;" parent="hWqjjMXpDKOYIAjPgIfB-1" source="_6DmonuuYlYoVJyoNn88-5" target="_6DmonuuYlYoVJyoNn88-6" edge="1">
          <mxGeometry x="331" y="1390" as="geometry" />
        </mxCell>
        <mxCell id="_6DmonuuYlYoVJyoNn88-5" value="Surveillance Video&lt;br&gt;Processor&lt;br&gt;(H.265 Compression)" style="points=[];aspect=fixed;html=1;align=center;shadow=0;dashed=0;image;image=img/lib/allied_telesis/media_converters/Industrial_Media_Converter.svg;labelBackgroundColor=#ffffff;fillColor=#E6E6E6;fontSize=12;fontColor=#000000;" parent="hWqjjMXpDKOYIAjPgIfB-1" vertex="1">
          <mxGeometry x="668.1428571428571" y="1453.5800000000002" width="28.909090909090896" height="54.9272727272727" as="geometry" />
        </mxCell>
        <mxCell id="_6DmonuuYlYoVJyoNn88-6" value="Surveillance Video&lt;br&gt;Server&lt;br&gt;(Size: 1TB)" style="points=[];aspect=fixed;html=1;align=center;shadow=0;dashed=0;image;image=img/lib/allied_telesis/media_converters/Media_Converter_Modular.svg;labelBackgroundColor=#ffffff;fillColor=#E6E6E6;fontSize=12;fontColor=#000000;" parent="hWqjjMXpDKOYIAjPgIfB-1" vertex="1">
          <mxGeometry x="779.3999999999999" y="1455.98" width="68.22545454545451" height="52.614545454545436" as="geometry" />
        </mxCell>
        <mxCell id="8iClWWHn-8V7IZcWPiyX-5" value="" style="points=[];aspect=fixed;html=1;align=center;shadow=0;dashed=0;image;image=img/lib/allied_telesis/security/Surveillance_Camera_Ceiling.svg;fontSize=12;fontColor=#000000;" parent="hWqjjMXpDKOYIAjPgIfB-1" vertex="1">
          <mxGeometry x="391.3960326086956" y="1479.02" width="37.20000000000001" height="35.400000000000006" as="geometry" />
        </mxCell>
        <mxCell id="8iClWWHn-8V7IZcWPiyX-6" value="" style="points=[];aspect=fixed;html=1;align=center;shadow=0;dashed=0;image;image=img/lib/allied_telesis/security/Surveillance_Camera_Ceiling.svg;fontSize=12;fontColor=#000000;" parent="hWqjjMXpDKOYIAjPgIfB-1" vertex="1">
          <mxGeometry x="391.3991304347826" y="1416.02" width="37.20000000000001" height="35.400000000000006" as="geometry" />
        </mxCell>
        <mxCell id="8iClWWHn-8V7IZcWPiyX-9" value="Outdoor" style="text;html=1;align=center;verticalAlign=middle;resizable=0;points=[];autosize=1;fontColor=#000000;" parent="hWqjjMXpDKOYIAjPgIfB-1" vertex="1">
          <mxGeometry x="380" y="1526.02" width="60" height="20" as="geometry" />
        </mxCell>
        <mxCell id="8iClWWHn-8V7IZcWPiyX-11" value="Surveillance" style="text;html=1;align=center;verticalAlign=middle;resizable=0;points=[];autosize=1;fontColor=#000000;labelBackgroundColor=#ffffff;" parent="hWqjjMXpDKOYIAjPgIfB-1" vertex="1">
          <mxGeometry x="428.59999999999997" y="1554.17" width="80" height="20" as="geometry" />
        </mxCell>
        <mxCell id="8iClWWHn-8V7IZcWPiyX-7" value="" style="points=[];aspect=fixed;html=1;align=center;shadow=0;dashed=0;image;image=img/lib/allied_telesis/security/Surveillance_Camera_Ceiling.svg;fontSize=12;fontColor=#000000;" parent="hWqjjMXpDKOYIAjPgIfB-1" vertex="1">
          <mxGeometry x="501.39913043478265" y="1416.02" width="37.20000000000001" height="35.400000000000006" as="geometry" />
        </mxCell>
        <mxCell id="8iClWWHn-8V7IZcWPiyX-8" value="" style="points=[];aspect=fixed;html=1;align=center;shadow=0;dashed=0;image;image=img/lib/allied_telesis/security/Surveillance_Camera_Ceiling.svg;fontSize=12;fontColor=#000000;" parent="hWqjjMXpDKOYIAjPgIfB-1" vertex="1">
          <mxGeometry x="501.39913043478265" y="1479.02" width="37.20000000000001" height="35.400000000000006" as="geometry" />
        </mxCell>
        <mxCell id="8iClWWHn-8V7IZcWPiyX-10" value="Indoor" style="text;html=1;align=center;verticalAlign=middle;resizable=0;points=[];autosize=1;fontColor=#000000;" parent="hWqjjMXpDKOYIAjPgIfB-1" vertex="1">
          <mxGeometry x="495" y="1526.02" width="50" height="20" as="geometry" />
        </mxCell>
      </root>
    </mxGraphModel>
  </diagram>
</mxfile>
